<svg width="16" height="12" viewBox="0 0 16 12" fill="none" xmlns="http://www.w3.org/2000/svg">
<path d="M15.9239 0.618336C15.8735 0.496882 15.7996 0.386563 15.7065 0.2937C15.6137 0.200601 15.5034 0.126737 15.3819 0.0763389C15.2604 0.025941 15.1302 0 14.9987 0C14.8673 0 14.7371 0.025941 14.6156 0.0763389C14.4941 0.126737 14.3838 0.200601 14.291 0.2937L5.00173 9.58493L1.71071 6.29191C1.52299 6.1042 1.26839 5.99874 1.00292 5.99874C0.737446 5.99874 0.482847 6.1042 0.295129 6.29191C0.107412 6.47963 0.00195312 6.73423 0.00195312 6.9997C0.00195312 7.26517 0.107412 7.51977 0.295129 7.70749L4.29394 11.7063C4.3868 11.7994 4.49712 11.8733 4.61857 11.9237C4.74003 11.9741 4.87023 12 5.00173 12C5.13322 12 5.26343 11.9741 5.38488 11.9237C5.50634 11.8733 5.61665 11.7994 5.70952 11.7063L15.7065 1.70928C15.7996 1.61641 15.8735 1.5061 15.9239 1.38464C15.9743 1.26319 16.0002 1.13298 16.0002 1.00149C16.0002 0.869994 15.9743 0.73979 15.9239 0.618336Z" fill="white"/>
</svg>
