<svg width="24" height="24" viewBox="0 0 24 24" fill="none" xmlns="http://www.w3.org/2000/svg">
<path d="M22.7625 11.625L12.975 1.83751C12.7571 1.61751 12.488 1.45518 12.1917 1.36517C11.8955 1.27515 11.5815 1.26028 11.2781 1.32188L3.72185 2.83126C3.50252 2.87624 3.30122 2.98461 3.1429 3.14293C2.98458 3.30125 2.87621 3.50255 2.83122 3.72188L1.32185 11.2781C1.26025 11.5815 1.27512 11.8955 1.36514 12.1918C1.45515 12.488 1.61748 12.7572 1.83747 12.975L11.625 22.7625C11.7985 22.938 12.0051 23.0773 12.2328 23.1723C12.4605 23.2674 12.7048 23.3163 12.9515 23.3163C13.1983 23.3163 13.4426 23.2674 13.6703 23.1723C13.898 23.0773 14.1046 22.938 14.2781 22.7625L22.7625 14.2781C22.9379 14.1046 23.0772 13.898 23.1723 13.6703C23.2674 13.4426 23.3163 13.1983 23.3163 12.9516C23.3163 12.7048 23.2674 12.4605 23.1723 12.2328C23.0772 12.0051 22.9379 11.7985 22.7625 11.625ZM12.9562 20.9063L3.57185 11.5219L4.89372 4.89375L11.5218 3.57188L20.9062 12.9563L12.9562 20.9063ZM9.37497 7.875C9.37497 8.17168 9.287 8.46169 9.12218 8.70836C8.95736 8.95503 8.72309 9.14729 8.449 9.26082C8.17491 9.37436 7.87331 9.40406 7.58234 9.34618C7.29137 9.28831 7.02409 9.14544 6.81431 8.93567C6.60454 8.72589 6.46167 8.45861 6.4038 8.16764C6.34592 7.87667 6.37562 7.57507 6.48915 7.30098C6.60269 7.02689 6.79495 6.79262 7.04162 6.6278C7.28829 6.46298 7.5783 6.375 7.87497 6.375C8.2728 6.375 8.65433 6.53304 8.93563 6.81435C9.21694 7.09565 9.37497 7.47718 9.37497 7.875Z" fill="#E91E63"/>
</svg>
