<svg width="32" height="32" viewBox="0 0 32 32" fill="none" xmlns="http://www.w3.org/2000/svg">
<path fill-rule="evenodd" clip-rule="evenodd" d="M8 28C8 26.5273 9.19391 25.3333 10.6667 25.3333C12.1394 25.3333 13.3333 26.5273 13.3333 28C13.3333 29.4728 12.1394 30.6667 10.6667 30.6667C9.19391 30.6667 8 29.4728 8 28Z" fill="#222222"/>
<path fill-rule="evenodd" clip-rule="evenodd" d="M22.6667 28C22.6667 26.5273 23.8607 25.3333 25.3334 25.3333C26.8062 25.3333 28.0001 26.5273 28.0001 28C28.0001 29.4728 26.8062 30.6667 25.3334 30.6667C23.8607 30.6667 22.6667 29.4728 22.6667 28Z" fill="#222222"/>
<path fill-rule="evenodd" clip-rule="evenodd" d="M1.40002 2.73333C1.40002 1.99695 1.99698 1.39999 2.73336 1.39999H5.40002C6.0288 1.39999 6.57211 1.83927 6.70379 2.4541L7.90584 8.06666H29.4534C29.8577 8.06666 30.2403 8.25019 30.4934 8.56562C30.7464 8.88104 30.8426 9.29427 30.755 9.68905L28.5555 19.5933C28.5554 19.5937 28.5556 19.593 28.5555 19.5933C28.3596 20.482 27.8664 21.2783 27.1576 21.849C26.4485 22.4199 25.5659 22.7319 24.6555 22.7333H11.6267C10.7022 22.7501 9.80026 22.4461 9.07444 21.8727C8.34436 21.2959 7.83818 20.4827 7.64302 19.573L5.53699 9.73957C5.52678 9.70069 5.51828 9.66112 5.51158 9.62094L4.32202 4.06666H2.73336C1.99698 4.06666 1.40002 3.46971 1.40002 2.73333ZM8.47696 10.7333L10.2504 19.0137C10.2503 19.0135 10.2504 19.0138 10.2504 19.0137C10.3155 19.3167 10.4843 19.5881 10.7275 19.7802C10.9709 19.9725 11.2736 20.0739 11.5837 20.067L11.6134 20.0667L24.6512 20.0667C24.651 20.0667 24.6514 20.0667 24.6512 20.0667C24.9544 20.066 25.249 19.962 25.4852 19.7719C25.7216 19.5816 25.886 19.3163 25.9512 19.02L27.7914 10.7333H8.47696Z" fill="#222222"/>
</svg>
