<svg width="23" height="22" viewBox="0 0 23 22" fill="none" xmlns="http://www.w3.org/2000/svg">
<path fill-rule="evenodd" clip-rule="evenodd" d="M5 20C5 18.8954 5.89543 18 7 18C8.10457 18 9 18.8954 9 20C9 21.1046 8.10457 22 7 22C5.89543 22 5 21.1046 5 20Z" fill="#E91E63"/>
<path fill-rule="evenodd" clip-rule="evenodd" d="M16 20C16 18.8954 16.8954 18 18 18C19.1046 18 20 18.8954 20 20C20 21.1046 19.1046 22 18 22C16.8954 22 16 21.1046 16 20Z" fill="#E91E63"/>
<path fill-rule="evenodd" clip-rule="evenodd" d="M0.0500488 1.05005C0.0500488 0.497764 0.497764 0.0500488 1.05005 0.0500488H3.05005C3.52163 0.0500488 3.92912 0.379505 4.02787 0.840627L4.92941 5.05005H21.09C21.3933 5.05005 21.6803 5.1877 21.87 5.42427C22.0598 5.66084 22.132 5.97076 22.0663 6.26684L20.4167 13.695C20.4166 13.6953 20.4167 13.6948 20.4167 13.695C20.2698 14.3615 19.8998 14.9588 19.3682 15.3868C18.8364 15.815 18.1744 16.0489 17.4917 16.05L7.72008 16.05C7.0267 16.0627 6.35023 15.8346 5.80586 15.4046C5.2583 14.972 4.87866 14.3621 4.73229 13.6798L3.15277 6.30473C3.14511 6.27557 3.13874 6.24589 3.13371 6.21576L2.24154 2.05005H1.05005C0.497764 2.05005 0.0500488 1.60233 0.0500488 1.05005ZM5.35775 7.05005L6.6878 13.2603C6.68778 13.2602 6.68783 13.2604 6.6878 13.2603C6.73664 13.4876 6.86323 13.6911 7.04566 13.8352C7.22818 13.9794 7.45526 14.0555 7.6878 14.0503L7.71005 14.05L17.4884 14.05C17.4883 14.05 17.4886 14.05 17.4884 14.05C17.7158 14.0496 17.9368 13.9716 18.1139 13.829C18.2912 13.6862 18.4145 13.4873 18.4634 13.265L19.8436 7.05005H5.35775Z" fill="#E91E63"/>
</svg>
