<svg width="512" height="512" viewBox="0 0 512 512" fill="none" xmlns="http://www.w3.org/2000/svg">
<path fill-rule="evenodd" clip-rule="evenodd" d="M85.5 0.2L425.5 0L433.5 2.8C437.9 4.3 444.2 7.1 447.4 9C450.6 10.9 456 15.4 459.3 19C462.7 22.6 466.9 28.2 468.7 31.5C470.4 34.8 472.8 40.9 473.9 45C476 52.5 476 52.9 475.5 427.5L473.2 436C471.9 440.7 469 448.6 466.6 453.5C464.3 458.4 460.4 465.4 458 469C455.6 472.6 450.4 478.7 446.5 482.6C442.7 486.5 435.7 492.2 431 495.3C426.3 498.3 419.1 502.2 415 503.9C410.9 505.7 403 508.2 387.5 512H124.5L114 509.4C108.2 508 99.5 505 94.5 502.6C89.5 500.3 83.2 496.9 80.5 495C77.7 493.1 73.3 489.8 70.6 487.6C67.9 485.3 63.2 480.5 60.1 476.9C57 473.2 52.7 467.1 50.4 463.4C48.2 459.6 45 453.1 43.3 449C41.6 444.9 39.2 437.1 38.1 431.7C36 422.1 36 420.9 36 237.8C36 55 36 53.4 38 45.5C39.2 41.1 41.5 34.8 43.3 31.5C45.1 28.2 49.3 22.6 52.7 19C56 15.4 61.4 10.9 64.6 9C67.8 7.1 73.8 4.3 78 2.8L85.5 0.2ZM82 46.1C79.7 48.3 77.5 51.7 77 53.8C76.3 56.2 76 121.6 76 238.1C75.9 417 76 418.6 78 426.6C79.1 431 81.5 437.3 83.2 440.6C85.1 444 89.6 449.8 93.9 454.1C98.3 458.4 104 463 107.5 464.8C110.8 466.5 117.1 468.9 121.5 470C129.3 472 131.5 472.1 256 472.1C380.4 472.1 382.6 472 390.5 470C394.9 468.9 401.2 466.5 404.5 464.8C407.9 463 413.7 458.5 418 454.1C423.1 449 426.7 444.3 429.1 439.6C431.1 435.7 433.4 429.2 434.3 425.1C435.9 418.1 436 403.1 435.7 235.5L435.5 53.4C431.5 47.3 428.6 44.4 426.4 43.1L422.5 40.6C160.1 40.3 91.1 40.6 89.2 41.1C87.4 41.6 84.2 43.9 82 46.1ZM382.5 80.6L386.4 83.1C388.6 84.4 391.5 87.3 392.9 89.5C395 92.7 395.5 94.6 395.5 100.1C395.5 105.5 395 107.4 392.9 110.6C391.5 112.8 388.6 115.7 382.5 119.6H129.5L125.5 117.1C123.4 115.7 120.6 113 119.3 111.1C118 109.1 116.7 105.5 116.4 103.1C116 100.6 116.3 96.6 116.9 94.3C117.6 91.6 119.5 88.6 122 86.1C124.2 83.9 127.4 81.6 129.2 81.1C131.1 80.6 184.1 80.3 382.5 80.6ZM222.5 196.6L226.4 199.1C228.6 200.4 231.5 203.3 235.5 209.4V302.6L233 306.5C231.6 308.7 228.7 311.6 222.6 315.6H129.3L125.4 313C123.2 311.6 120.3 308.7 116.5 302.6L116.1 258.6C115.9 229.5 116.2 213.1 116.9 210.3C117.6 207.6 119.4 204.6 122 202.1C124.2 199.9 127.4 197.6 129.2 197.1C131.1 196.6 152.1 196.3 222.5 196.6ZM156 276.1H196V236.1H156V276.1ZM318.7 283.1C321.1 283.1 324.7 283.7 326.7 284.6C329.3 285.6 340.5 296.1 361.3 316.8C381.4 336.8 392.8 349 394.1 351.6C395.1 353.8 395.9 357.4 395.9 359.6C395.9 361.8 395.1 365.4 394.1 367.6C392.8 370.2 381.4 382.3 361.3 402.3C340.5 423 329.3 433.5 326.7 434.5C324.7 435.4 321.4 436.1 319.5 436.1C317.5 436.1 314.3 435.4 312.2 434.5C309.7 433.5 298.5 423 277.6 402.3C257.6 382.3 246.1 370.2 244.9 367.6C243.9 365.4 243 361.6 243 359.3C243 357 243.8 353.4 244.9 351.3C246 349.2 260.7 333.8 277.7 316.9C294.6 300 309.8 285.6 311.5 284.7C313.1 283.8 316.4 283.1 318.7 283.1ZM291 359.6C312.3 380.9 318.9 387 319.5 387.1C320 387.1 326.4 381.1 333.7 373.8C341 366.5 347 360.1 347 359.6C347 359 340.8 352.4 333.2 344.8L319.4 331.1L291 359.6Z" fill="#222222"/>
</svg>
