<svg width="512" height="512" viewBox="0 0 512 512" fill="none" xmlns="http://www.w3.org/2000/svg">
<path fill-rule="evenodd" clip-rule="evenodd" d="M85.5 0.2L425.5 0L433.5 2.8C437.9 4.3 444.2 7.1 447.4 9C450.6 10.9 456 15.4 459.3 19C462.7 22.6 466.9 28.2 468.7 31.5C470.4 34.8 472.8 40.9 473.9 45C476 52.5 476 53.1 476 255.5C476 457.1 476 458.6 474 466.5C472.8 470.9 470.5 477.2 468.7 480.5C466.9 483.8 462.7 489.4 459.3 493C456 496.6 450.6 501.1 447.4 503C444.2 504.9 437.9 507.7 425.5 512H86.5L78.5 509.2C74.1 507.7 67.8 504.9 64.6 503C61.4 501.1 56 496.6 52.7 493C49.3 489.4 45.1 483.8 43.3 480.5C41.6 477.2 39.2 471.1 38.1 467C36 459.5 36 458.9 36 256.5C36 54.9 36 53.4 38 45.5C39.2 41.1 41.5 34.8 43.3 31.5C45.1 28.2 49.3 22.6 52.7 19C56 15.4 61.4 10.9 64.6 9C67.8 7.1 73.8 4.3 78 2.8L85.5 0.2ZM82 46.1C79.7 48.3 77.5 51.7 77 53.8C76.3 56.2 76.1 128 76.2 258.1L76.5 458.6C80.3 464.7 83.2 467.6 85.4 469L89.3 471.6H422.6C428.7 467.6 431.6 464.7 433 462.5L435.5 458.6V53.4C431.5 47.3 428.6 44.4 426.4 43.1L422.5 40.6C160.1 40.3 91.1 40.6 89.2 41.1C87.4 41.6 84.2 43.9 82 46.1ZM260 76.6C269 76.8 278 77.7 284 79C289.2 80.1 297.5 82.4 302.5 84.1C307.4 85.9 314.6 88.9 318.5 90.8C322.3 92.7 329.3 96.8 334 99.9C339.2 103.3 347.2 110.2 354.5 117.5C361.1 124.1 368.8 132.9 371.5 137.1C374.2 141.2 378.6 148.8 381.3 154.1C383.9 159.3 387.3 167.6 388.9 172.6C390.5 177.5 392.6 185.6 393.6 190.6C394.9 197 395.4 204.2 395.4 216.1C395.4 227.9 394.9 235.1 393.6 241.6C392.6 246.5 390.5 254.6 388.9 259.6C387.3 264.5 383.9 272.8 381.3 278.1C378.6 283.3 374.2 290.9 371.5 295.1C368.8 299.2 361.1 308 354.5 314.6C347.9 321.2 339.3 328.7 335.5 331.2C331.6 333.8 324.6 337.9 320 340.4C315.3 342.9 307.4 346.3 302.5 348C297.5 349.7 289 352.1 283.5 353.2C278 354.3 268.5 355.4 262.5 355.8C256.1 356.1 247 355.8 241 355.1C235.2 354.4 226.4 352.8 221.5 351.6C216.5 350.4 208.4 347.7 203.5 345.7C198.5 343.7 190.9 339.9 186.5 337.4C182.1 334.8 175.1 330.2 171 327C166.8 323.9 159.4 317.1 154.5 311.9C149.5 306.7 143.4 299.3 140.8 295.5C138.2 291.7 134.1 284.7 131.6 280.1C129.2 275.4 125.7 267.5 124 262.6C122.3 257.6 119.9 249.1 118.7 243.6C117 235.5 116.6 230.1 116.6 216.1C116.6 202 117 196.6 118.7 188.6C119.9 183.1 122.3 174.5 124 169.6C125.7 164.6 129.2 156.7 131.6 152.1C134.1 147.4 138.2 140.4 140.8 136.6C143.4 132.8 149.7 125.2 155 119.7C160.2 114.3 167.6 107.5 171.5 104.6C175.3 101.7 182.5 97 187.5 94.2C192.4 91.3 200.1 87.6 204.5 85.9C208.9 84.2 216.5 81.8 221.5 80.5C226.4 79.3 233.8 77.8 238 77.2C242.1 76.6 252 76.4 260 76.6ZM224.7 121.1C221.3 122.3 215.3 124.8 211.5 126.8C207.6 128.7 201.8 132.1 198.5 134.4C195.2 136.6 189.3 141.6 185.4 145.5C181.5 149.4 175.8 156.4 172.7 161.1C169.6 165.7 165.7 172.9 164 177.1C162.3 181.2 160 188.2 158.9 192.6C157.8 197 156.6 205.5 156.3 211.6C155.9 219.5 156.2 225.2 157.4 231.8C158.2 236.9 159.9 243.9 161.1 247.3C162.2 250.7 164.7 256.7 166.7 260.6C168.6 264.4 172 270.3 174.3 273.6C176.5 276.9 181.6 282.7 185.4 286.6C189.3 290.5 195.4 295.6 199 298C202.5 300.5 209.5 304.4 214.5 306.7C219.4 309 227.3 311.9 232 313C236.6 314.2 245.4 315.4 251.5 315.7C259.4 316.1 265.1 315.8 271.7 314.7C276.8 313.8 283.8 312.1 287.2 311C290.7 309.8 296.6 307.3 300.5 305.3C304.3 303.4 310.2 300 313.5 297.7C316.8 295.5 322.6 290.5 326.5 286.6C330.4 282.7 335.5 276.6 338 273.1C340.4 269.5 344.3 262.5 346.6 257.6C349 252.6 351.8 244.7 353 240.1C354.1 235.4 355.3 226.6 355.6 220.6C356 212.6 355.7 207 354.6 200.3C353.7 195.2 352 188.2 350.9 184.8C349.7 181.4 347.2 175.4 345.3 171.6C343.3 167.7 339.9 161.9 337.7 158.6C335.4 155.3 330.4 149.4 326.5 145.5C322.6 141.6 315.6 135.9 311 132.8C306.3 129.8 299.1 125.9 295 124.1C290.8 122.3 283.9 120 279.5 118.9C274.5 117.7 266.8 116.8 259 116.5C250.5 116.2 244 116.6 238.7 117.6C234.5 118.4 228.2 120 224.7 121.1ZM342.6 396.6L346.5 399.1C348.7 400.5 351.6 403.5 353 405.6C355 408.8 355.5 410.8 355.5 416.1C355.5 421.3 355 423.3 353 426.5C351.6 428.7 348.7 431.6 342.6 435.6H169.5L165.5 433.1C163.4 431.7 160.6 429 159.3 427.1C158 425.1 156.7 421.5 156.4 419.1C156 416.6 156.3 412.6 156.9 410.3C157.6 407.6 159.5 404.6 162 402.1C164.2 399.9 167.4 397.6 169.2 397.1C171.1 396.6 208.1 396.3 342.6 396.6ZM218 196.6C221.5 196.9 224.8 197.9 227 199.4C228.9 200.6 231.5 203.2 232.7 205.1C234 207.1 235.3 211.6 236 216.1C236.6 220.5 238 225 239.3 227C240.5 228.9 243.2 231.6 245.4 233C248.6 235.1 250.5 235.6 256 235.6C261.4 235.6 263.3 235.1 266.5 233C268.7 231.6 271.5 228.9 272.7 227C274 225 275.3 220.5 276 216.1C276.6 211.6 278 207.1 279.3 205.1C280.5 203.2 283.2 200.5 285.4 199.1C288.6 197 290.5 196.6 295.9 196.6C301.2 196.6 303.2 197 306.4 199.1C308.6 200.4 311.4 203.1 312.7 205.1C314.2 207.3 315.2 210.7 315.6 214.6C316.1 218.7 315.7 223.1 314.5 228.6C313.5 233 311.1 239.7 309.1 243.6C306.7 248.4 303.3 252.9 298.1 258.1C293.7 262.4 287.9 267 284.5 268.8C281.2 270.5 274.9 272.9 270.5 274C266.1 275.1 259.5 276.1 256 276.1C252.4 276.1 245.9 275.1 241.5 274C237.1 272.9 230.8 270.5 227.5 268.8C224 267 218.3 262.4 213.9 258.1C209.6 253.8 205.1 248 203.2 244.6C201.5 241.3 199.1 235 198 230.6C196.9 226.2 196 220.5 196 218.1C196 215.6 196.4 211.9 197 209.8C197.5 207.7 199.7 204.3 202 202.1C204.2 199.9 207.4 197.6 209.2 197.1C211 196.6 214.9 196.3 218 196.6Z" fill="#222222"/>
</svg>
