<svg width="512" height="512" viewBox="0 0 512 512" fill="none" xmlns="http://www.w3.org/2000/svg">
<path fill-rule="evenodd" clip-rule="evenodd" d="M166.899 2.784C162.584 5.038 161.038 6.584 158.784 10.899C155.228 17.707 155.228 22.293 158.784 29.101C161.038 33.416 162.584 34.962 166.899 37.216C171.858 39.806 173.055 40 184.114 40H196V71.886V103.772L198.784 109.101C201.038 113.416 202.584 114.962 206.899 117.216C213.707 120.772 218.293 120.772 225.101 117.216C229.416 114.962 230.962 113.416 233.216 109.101L236 103.772V71.886V40H256H276V71.886V103.772L278.784 109.101C281.038 113.416 282.584 114.962 286.899 117.216C293.707 120.772 298.293 120.772 305.101 117.216C309.416 114.962 310.962 113.416 313.216 109.101L316 103.772V71.886V40H347.886H379.772L385.101 37.216C389.416 34.962 390.962 33.416 393.216 29.101C396.772 22.293 396.772 17.707 393.216 10.899C390.962 6.584 389.416 5.038 385.101 2.784L379.772 0H276H172.228L166.899 2.784ZM164.477 152.968C152.573 154.765 138.485 160.536 129.002 167.5C124.076 171.117 113.661 181.717 110.276 186.557C106.283 192.268 101.092 203.643 98.855 211.585C97.106 217.794 96.629 222.087 96.641 231.5C96.656 242.792 97.848 249.949 116.838 352.809C127.937 412.929 137.489 464.229 138.065 466.809C141.442 481.942 154.495 498.113 169.146 505.313C182.784 512.015 184.381 512.129 260.156 511.796L327.5 511.5L334 509.167C344.236 505.492 350.936 501.219 358.658 493.439C366.258 485.782 371.894 475.958 373.935 466.809C377.365 451.438 415.194 242.18 415.66 236C416.719 221.952 412.317 204.473 404.254 190.715C400.287 183.947 389.856 172.533 383.115 167.585C376.663 162.848 365.738 157.527 356.947 154.839L349.5 152.562L259.5 152.386C210 152.289 167.239 152.551 164.477 152.968ZM163.5 194.038C147.964 199.023 136 215.276 136 231.397C136 234.249 145.191 286.699 156.424 347.953C175.547 452.23 177.028 459.579 179.674 463.335C181.228 465.541 184.501 468.403 186.947 469.694L191.393 472.042L257.111 471.771L322.829 471.5L327.116 468.486C329.475 466.829 332.263 464.001 333.314 462.203C335.58 458.322 376 239.77 376 231.397C376 215.088 363.962 198.92 348.145 193.983C342.007 192.068 338.833 192.002 255.645 192.056C173.444 192.11 169.225 192.2 163.5 194.038ZM206.899 314.784C202.584 317.038 201.038 318.584 198.784 322.899C195.228 329.707 195.228 334.293 198.784 341.101C201.038 345.416 202.584 346.962 206.899 349.216L212.228 352H256H299.772L305.101 349.216C309.416 346.962 310.962 345.416 313.216 341.101C316.772 334.293 316.772 329.707 313.216 322.899C310.962 318.584 309.416 317.038 305.101 314.784L299.772 312H256H212.228L206.899 314.784Z" fill="#222222"/>
</svg>
