<svg width="512" height="512" viewBox="0 0 512 512" fill="none" xmlns="http://www.w3.org/2000/svg">
<g clip-path="url(#clip0_1381_17489)">
<path fill-rule="evenodd" clip-rule="evenodd" d="M165.5 0.2L345.5 0L353.5 2.8C357.9 4.3 364.2 7.1 367.4 9C370.6 10.9 376 15.4 379.3 19C382.7 22.6 386.9 28.2 388.7 31.5C390.5 34.8 392.8 41.1 394 45.5C395.1 49.9 396 55.9 396 58.8C396 61.6 386.8 137.7 375.5 227.7C361.7 338.8 354.4 393.6 353.1 398C352 401.6 349.4 407.4 347.3 410.9C345.2 414.4 340.6 420 337 423.4C333 427.2 327.6 431 323 433.3C318.9 435.4 312.4 437.7 308.5 438.5C302.9 439.7 292.2 440 256 440C219.8 440 209.1 439.7 203.5 438.5C199.7 437.7 193.1 435.4 189 433.3C184.4 431 179 427.2 175 423.4C171.4 420 166.8 414.4 164.7 410.9C162.6 407.4 160 401.6 158.9 398C157.6 393.6 150.3 338.8 136.5 227.7C125.2 137.7 116 61.6 116 58.7C116 55.9 116.9 49.9 118 45.5C119.2 41.1 121.5 34.8 123.3 31.5C125.1 28.2 129.3 22.6 132.7 19C136 15.4 141.4 10.9 144.6 9C147.8 7.1 153.8 4.3 158 2.8L165.5 0.2ZM162 46.1C159.5 48.5 157.5 51.7 156.8 54.3C155.8 58 158.3 79.1 176.2 222.6C195.3 375.8 196.8 386.8 199 390.5C200.4 392.7 203.2 395.6 205.4 397L209.3 399.6H302.6C308.7 395.6 311.6 392.7 312.9 390.5C315.2 386.8 316.7 375.8 335.8 222.6C353.7 79.1 356.1 58 355.1 54.3C354.4 51.7 352.4 48.5 350 46.1C347.7 43.8 344.3 41.6 342.2 41.1C339.9 40.4 307.6 40.1 255.5 40.1C209 40.2 171 40.6 169.2 41.1C167.4 41.6 164.2 43.9 162 46.1ZM302.5 472.6L306.4 475.1C308.6 476.4 311.5 479.3 312.9 481.5C315 484.7 315.5 486.6 315.5 492C315.5 497.3 315 499.3 313 502.5C311.6 504.7 308.4 507.7 301.5 512.1H210.5L206 509.3C203.5 507.7 200.5 504.9 199.3 503C198 501.1 196.8 497.5 196.4 495.1C196.1 492.6 196.3 488.6 196.9 486.3C197.6 483.6 199.5 480.6 202 478.1C204.2 475.9 207.4 473.6 209.2 473.1C211.1 472.6 232.1 472.3 302.5 472.6ZM255.7 80.1C285.4 80.1 291.6 80.3 294.7 81.6C296.8 82.5 300 84.6 301.8 86.4C303.9 88.4 305.6 91.4 306.5 94.8C307.8 99.4 307.8 100.7 306.5 105.3C305.6 108.7 303.9 111.7 301.8 113.8C300 115.5 296.8 117.7 294.7 118.5C291.6 119.8 285.3 120.1 256 120.1C226.6 120.1 220.4 119.8 217.2 118.5C215.2 117.6 212.2 115.7 210.6 114.3C209.1 112.8 207.1 110.2 206.2 108.6C205.3 106.9 204.6 103.1 204.6 100.1C204.6 97 205.3 93.2 206.2 91.6C207.1 89.9 209.1 87.3 210.6 85.9C212.2 84.4 215 82.5 217 81.6C219.9 80.4 226.5 80.1 255.7 80.1Z" fill="#222222"/>
</g>
<defs>
<clipPath id="clip0_1381_17489">
<rect width="512" height="512" fill="white"/>
</clipPath>
</defs>
</svg>
