<svg width="512" height="512" viewBox="0 0 512 512" fill="none" xmlns="http://www.w3.org/2000/svg">
<g clip-path="url(#clip0_1381_17491)">
<path fill-rule="evenodd" clip-rule="evenodd" d="M257.5 0.299935C270.8 0.499935 282.3 1.29993 289 2.39993C294.8 3.29993 303.8 5.19993 309 6.49993C314.2 7.79993 323.2 10.4999 329 12.4999C334.8 14.4999 345.4 18.8999 352.5 22.3999C359.6 25.8999 370.2 31.8999 376 35.6999C381.8 39.4999 390 45.3999 394.3 48.7999C398.5 52.1999 406.2 59.1999 411.2 64.2999C416.3 69.3999 423.4 77.0999 426.9 81.4999C430.4 85.8999 436.5 94.1999 440.3 99.9999C444.1 105.8 450.1 116.3 453.6 123.5C457 130.7 461.6 141.7 463.8 148C466 154.3 468.7 163.6 469.8 168.5C471 173.4 472.9 183.6 474 191C475.4 200.2 476 209.4 476 220C476 230.333 475.3 240.167 473.9 249.5C472.8 257.2 470.8 267.8 469.5 273C468.2 278.2 465.5 287.2 463.5 293C461.5 298.8 457 309.4 453.5 316.5C450.1 323.6 443.6 335 439.1 341.8C433.4 350.4 429.8 354.8 426.8 356.7C423.3 359.1 421.6 359.5 416 359.5C410.6 359.5 408.6 359 405.4 356.9C403.3 355.5 400.4 352.6 399 350.4C397 347.3 396.5 345.2 396.5 340C396.5 333.5 396.6 333.4 404.2 322C408.4 315.7 414 306.4 416.5 301.5C419 296.6 422.4 288.9 424.1 284.5C425.8 280.1 428.3 272.4 429.6 267.5C430.9 262.6 432.7 254.4 433.5 249.5C434.4 244.6 435.3 234.4 435.7 227C436 219 435.8 209 435.1 202.5C434.4 196.4 433 187.2 431.8 182C430.7 176.8 428.5 168.4 426.9 163.5C425.3 158.6 421.1 148.7 417.6 141.5C414.1 134.3 408.6 124.6 405.3 119.8C402.1 115 395.9 106.9 391.5 101.8C387.1 96.6999 379.4 88.9999 374.5 84.6999C369.6 80.3999 361 73.8999 355.5 70.2999C350 66.5999 340.1 60.9999 333.5 57.7999C326.9 54.6999 317.4 50.7999 312.5 49.0999C307.6 47.4999 299.2 45.2999 294 44.1999C288.8 43.0999 280.1 41.6999 274.8 41.0999C269.4 40.4999 260.9 39.9999 256 39.9999C251.1 39.9999 242.6 40.4999 237.3 41.0999C231.9 41.6999 223.2 43.0999 218 44.1999C212.8 45.2999 204.4 47.5999 199.5 49.1999C194.6 50.7999 185.3 54.5999 179 57.5999C172.7 60.6999 164.6 64.9999 161 67.1999C157.4 69.4999 151.1 73.8999 147 76.9999C142.9 80.1999 136.4 85.5999 132.6 89.0999C128.8 92.5999 122.5 99.2999 118.6 104C114.7 108.7 108.8 116.5 105.5 121.5C102.3 126.5 97 135.9 93.9 142.5C90.7 149.1 86.8 158.6 85.1 163.5C83.5 168.4 81.3 176.8 80.2 182C79 187.2 77.6 196.4 76.9 202.5C76.2 209 76 219 76.3 227C76.7 234.4 77.6 244.6 78.5 249.5C79.3 254.4 81.1 262.6 82.4 267.5C83.7 272.4 86.2 280.1 87.9 284.5C89.6 288.9 93 296.6 95.5 301.5C98 306.4 103.4 315.4 107.5 321.5C112.9 329.5 115.1 333.7 115.6 337C116 339.8 115.7 343.2 114.9 346C114.1 348.5 112 352 110 354C108 356 104.5 358.1 102 358.9C99.2 359.7 95.8 360 93 359.6C90.5 359.2 86.8 357.8 84.8 356.5C82.3 354.9 78.2 349.8 72.9 341.7C68.4 335 61.9 323.6 58.5 316.5C55 309.4 50.5 298.8 48.5 293C46.5 287.2 43.8 278.2 42.5 273C41.2 267.8 39.2 257.3 38.1 249.7C36.7 240.4 36 231.1 36 220.5C36 210.2 36.7 200.3 38.1 190.7C39.2 182.9 41.2 172.2 42.5 167C43.8 161.8 46.5 152.8 48.5 147C50.5 141.2 55 130.7 58.5 123.5C61.9 116.3 67.9 105.8 71.7 99.9999C75.5 94.1999 81.6 85.8999 85.1 81.4999C88.6 77.0999 95.6 69.4999 100.6 64.4999C105.5 59.5999 113.2 52.5999 117.6 49.0999C121.9 45.5999 130.2 39.4999 136 35.6999C141.8 31.8999 152.4 25.8999 159.5 22.4999C166.7 18.9999 177.2 14.4999 183 12.4999C188.8 10.4999 197.8 7.79993 203 6.49993C208.2 5.19993 217.7 3.39993 224 2.49993C230.3 1.49993 235.7 0.599935 236 0.299935C236.3 0.0999348 245.9 -6.52075e-05 257.5 0.299935ZM255.5 392C420.9 392 422.6 392 430.5 394C434.9 395.2 441.2 397.5 444.5 399.3C448 401.1 453.7 405.6 458 410C462.4 414.4 466.9 420 468.7 423.5C470.4 426.8 472.8 432.9 473.9 437C475.1 441.3 476 447.5 476 451.5C476 455.4 475.1 462.1 474 466.5C472.8 470.9 470.5 477.2 468.7 480.5C466.9 483.8 462.7 489.4 459.3 493C456 496.6 450.6 501.1 447.4 503C444.2 504.9 437.9 507.7 425.5 512H86.5L78.5 509.2C74.1 507.7 67.8 504.9 64.6 503C61.4 501.1 56 496.6 52.7 493C49.3 489.4 45.1 483.8 43.3 480.5C41.6 477.2 39.2 471.1 38.1 467C36.9 462.7 36 456.5 36 452.5C36 448.6 36.9 441.9 38 437.5C39.2 433.1 41.5 426.8 43.3 423.5C45.1 420 49.6 414.3 54 410C58.3 405.6 64.1 401.1 67.5 399.3C70.8 397.5 76.9 395.2 81 394.1C88.3 392.2 92.1 392.1 255.5 392ZM82 438C79.5 440.5 77.6 443.6 76.9 446.3C76.3 448.6 76.1 452.5 76.4 455C76.8 457.5 78.1 461.1 79.3 463C80.6 464.9 83.4 467.6 85.6 469L89.5 471.5H422.5C428.6 467.6 431.5 464.7 432.9 462.6C435 459.4 435.5 457.4 435.5 452C435.5 446.6 435 444.6 432.9 441.4C431.5 439.3 428.6 436.4 426.4 435L422.5 432.5C160.1 432.2 91.2 432.5 89.2 433.1C87.5 433.6 84.2 435.8 82 438ZM254 80.3999C261.1 80.4999 263.2 80.9999 266.4 82.9999C268.6 84.3999 271.5 87.2999 272.9 89.3999C275 92.5999 275.5 94.5999 275.5 99.9999C275.5 105.4 275 107.4 272.9 110.6C271.5 112.7 268.6 115.6 266.4 116.9C263.3 118.9 260.4 119.5 251.8 120.2C245.8 120.6 237.7 121.7 233.8 122.6C229.8 123.5 224.3 125.1 221.5 126.2C218.8 127.2 213.8 129.5 210.5 131.2C207.2 132.9 201.8 136.1 198.5 138.3C195.2 140.6 189.3 145.6 185.4 149.5C181.5 153.3 175.8 160.3 172.7 165C169.7 169.7 165.7 176.9 164 181C162.3 185.1 160 192.1 159 196.5C157.9 200.9 156.6 209.7 156 216C155.2 225.4 154.6 228.1 152.7 231C151.4 232.9 148.6 235.6 146.4 237C143.3 239 141.2 239.5 136 239.5C130.8 239.5 128.7 239 125.6 237C123.4 235.6 120.5 232.7 119.1 230.6C116.6 226.9 116.5 225.9 116.6 214.6C116.7 206.7 117.5 199 118.8 192.5C120 187 122.3 178.5 124 173.5C125.8 168.6 129.2 160.7 131.7 156C134.1 151.3 138.3 144.4 140.8 140.5C143.4 136.7 149.8 129.1 155 123.7C160.2 118.2 167.7 111.4 171.5 108.5C175.4 105.6 182.6 100.9 187.5 98.0999C192.5 95.2999 200.1 91.5999 204.5 89.8999C208.9 88.1999 216.6 85.6999 221.5 84.4999C226.5 83.1999 233.9 81.6999 238 81.1999C242.1 80.5999 249.3 80.1999 254 80.3999Z" fill="#222222"/>
</g>
<defs>
<clipPath id="clip0_1381_17491">
<rect width="512" height="512" fill="white"/>
</clipPath>
</defs>
</svg>
