<svg width="512" height="512" viewBox="0 0 512 512" fill="none" xmlns="http://www.w3.org/2000/svg">
<path fill-rule="evenodd" clip-rule="evenodd" d="M262.882 1.32293C244.835 8.05793 226.663 30.5199 221.393 52.6079C219.359 61.1289 219.108 80.5969 220.898 90.9999C221.608 95.1249 224.612 108.237 227.574 120.137C236.705 156.82 237.758 169.025 233.082 184C228.453 198.827 231.217 195.816 116.979 310.5C36.894 390.897 9.74504 418.743 7.78304 422.5C-4.77096 446.526 -1.38496 473.895 16.482 492.832C28.542 505.615 42.238 511.46 60 511.404C71.833 511.367 76.257 510.368 87 505.306C94.337 501.849 96.826 499.454 201.5 395.107C316.167 280.798 313.199 283.524 327.952 278.944C343.01 274.268 354.358 275.185 389.809 283.942C420.227 291.456 425.951 292.404 440.5 292.337C460.099 292.246 475.428 286.983 490 275.342C498.539 268.521 503.236 263.112 508.1 254.5C510.908 249.528 511.489 247.472 511.489 242.5C511.49 235.449 509.432 231.274 503.657 226.606C500.092 223.724 499.25 223.5 492 223.5C484.763 223.5 483.902 223.728 480.343 226.589C478.229 228.289 475.435 231.584 474.134 233.914C468.189 244.555 456.249 251.829 443.267 252.719C433.604 253.381 427.211 252.337 401.75 245.937C375.317 239.293 369.975 238.224 357.174 237.016C333.793 234.811 309.257 240.471 292.645 251.9C290.167 253.605 287.54 255 286.807 255C285.187 255 257 226.944 257 225.332C257 224.704 259.032 220.893 261.516 216.865C271.027 201.438 275.226 185.72 275.236 165.5C275.243 150.008 273.798 141.167 266.488 112C259.659 84.7489 258.612 78.4949 259.27 68.8889C260.152 56.0259 266.862 44.6769 277.245 38.4889C280.024 36.8329 283.693 33.7539 285.399 31.6459C288.276 28.0919 288.5 27.2489 288.5 19.9999C288.5 12.7499 288.276 11.9079 285.394 8.34293C283.686 6.22893 280.917 3.69593 279.24 2.71393C275.135 0.30893 267.371 -0.35207 262.882 1.32293ZM358 26.5549C342.294 29.9279 326.838 41.0989 318.839 54.8569C307.899 73.6739 308.605 99.5649 320.558 117.881C326.019 126.25 388.022 187.769 395.5 192.238C406.372 198.736 412.859 200.431 427 200.467C437.521 200.495 440.559 200.134 446.19 198.188C460.774 193.149 473.375 182.131 480.055 168.577C489.145 150.133 489.088 132.824 479.876 114C475.875 105.825 474.491 104.265 443.608 73.1559C425.949 55.3669 408.77 38.8489 405.433 36.4489C397.863 31.0049 392.126 28.5199 382.564 26.5449C373.562 24.6849 366.692 24.6879 358 26.5549ZM362.5 66.5689C352.799 71.6039 348.561 80.8099 351.463 90.5449C352.811 95.0699 355.738 98.2879 385.22 127.65C416.11 158.415 417.71 159.843 422.387 160.808C431.94 162.779 441.371 158.06 445.572 149.207C448.006 144.077 447.145 135.26 443.727 130.328C438.886 123.343 382.712 68.1949 378.752 66.5409C374.02 64.5629 366.339 64.5769 362.5 66.5689ZM135.781 347.75C70.5291 413.034 42.621 441.601 41.538 444.218C38.489 451.587 40.524 461.547 46.132 466.702C51.965 472.065 61.363 473.463 68.434 470.02C71.173 468.687 102.694 437.84 164.992 375.526L257.485 283.011L243.506 269.006C235.817 261.303 229.292 255 229.006 255C228.72 255 186.768 296.737 135.781 347.75Z" fill="#222222"/>
</svg>
