<svg width="512" height="512" viewBox="0 0 512 512" fill="none" xmlns="http://www.w3.org/2000/svg">
<path fill-rule="evenodd" clip-rule="evenodd" d="M124.5 1.44592C101.842 6.53692 86.138 20.6619 78.858 42.4999C76.524 49.4989 76.524 49.5049 76.203 114C76.027 149.475 76.152 180.351 76.482 182.613C79.133 200.799 103.582 205.772 112.848 190.011L115.5 185.5L116 119.5C116.532 49.2999 116.356 51.6929 121.375 46.1549C126.241 40.7849 127.62 40.5359 155.5 39.9999C180.928 39.5109 181.596 39.4449 185.848 37.0109C198.658 29.6769 198.75 10.6409 186.011 3.15192L181.5 0.499917L156 0.298917C137.599 0.153917 128.83 0.472917 124.5 1.44592ZM47.5 233.642C24.606 238.481 6.27099 257.069 1.56699 280.208C-0.371013 289.739 -0.381013 294.537 1.51599 303.495C3.32299 312.025 44.574 419.396 50.245 430.329C54.937 439.376 66.159 451.92 74.533 457.478L80 461.107V477.31C80 494.535 80.61 498.348 84.206 503.595C91.914 514.844 110.138 513.874 117.004 501.848C119.217 497.971 119.525 496.119 119.843 484.75L120.201 472H256.1H392V482.757C392 494.598 392.818 498.651 396.206 503.595C403.913 514.844 422.126 513.874 429.011 501.848C431.346 497.769 431.531 496.379 432 479.35L432.5 461.199L438.5 456.779C447.477 450.165 457.223 439.067 461.801 430.247C467.088 420.06 507.877 314.379 509.755 306C510.557 302.425 511.615 298.719 512.106 297.764C513.357 295.334 513.264 284.719 512 285.5C511.435 285.849 511 285.028 511 283.611C511 278.855 506.034 265.484 501.965 259.282C496.528 250.995 487.433 242.94 478.665 238.644C464.246 231.58 478.244 231.991 255.292 232.082C82.091 232.152 53.538 232.366 47.5 233.642ZM51.5 273.89C44.358 277.186 40 284.07 40 292.054C40 295.012 45.815 311.29 60.643 349.836C71.997 379.351 82.307 405.83 83.556 408.678C87.832 418.431 98.134 427.254 108.932 430.412C113.781 431.83 129.549 432 256 432C382.451 432 398.219 431.83 403.068 430.412C413.866 427.254 424.168 418.431 428.444 408.678C429.693 405.83 440.003 379.351 451.357 349.836C466.95 309.301 471.995 295.111 471.978 291.836C471.952 286.787 469.284 280.438 465.868 277.298C459.724 271.649 473.619 271.998 255.782 272.022C63.202 272.043 55.346 272.115 51.5 273.89ZM0.319987 292C0.319987 295.575 0.501987 297.038 0.722987 295.25C0.944987 293.462 0.944987 290.538 0.722987 288.75C0.501987 286.962 0.319987 288.425 0.319987 292Z" fill="#222222"/>
</svg>
