<svg width="11" height="8" viewBox="0 0 11 8" fill="none" xmlns="http://www.w3.org/2000/svg">
<path d="M10.6146 0.412224C10.581 0.331254 10.5318 0.257709 10.4697 0.1958C10.4078 0.133734 10.3343 0.0844912 10.2533 0.0508926C10.1723 0.017294 10.0855 0 9.99786 0C9.9102 0 9.8234 0.017294 9.74243 0.0508926C9.66146 0.0844912 9.58791 0.133734 9.526 0.1958L3.33318 6.38996L1.13917 4.19461C1.01402 4.06946 0.844292 3.99916 0.66731 3.99916C0.490329 3.99916 0.320596 4.06946 0.195451 4.19461C0.0703058 4.31975 0 4.48949 0 4.66647C0 4.84345 0.0703058 5.01318 0.195451 5.13833L2.86132 7.8042C2.92323 7.86627 2.99678 7.91551 3.07775 7.94911C3.15872 7.98271 3.24552 8 3.33318 8C3.42085 8 3.50765 7.98271 3.58862 7.94911C3.66959 7.91551 3.74313 7.86627 3.80504 7.8042L10.4697 1.13952C10.5318 1.07761 10.581 1.00406 10.6146 0.923095C10.6482 0.842125 10.6655 0.755323 10.6655 0.667659C10.6655 0.579996 10.6482 0.493193 10.6146 0.412224Z" fill="white"/>
</svg>
