<svg width="24" height="24" viewBox="0 0 24 24" fill="none" xmlns="http://www.w3.org/2000/svg">
<path d="M20 8V5C20 4.44772 19.5523 4 19 4H5C4.44772 4 4 4.44772 4 5V8" stroke="#555555" stroke-width="1.5"/>
<path d="M4 12V19C4 19.5523 4.44772 20 5 20H19C19.5523 20 20 19.5523 20 19V12" stroke="#555555" stroke-width="1.5"/>
<path d="M15 20V17C15 16.4477 14.5523 16 14 16H11C10.4477 16 10 16.4477 10 17V20" stroke="#555555" stroke-width="1.5"/>
<path d="M21 11V9C21 8.44772 20.5523 8 20 8H4C3.44772 8 3 8.44772 3 9V11C3.16667 11.6667 4 13 6 13C8 13 8.83333 11.6667 9 11C9.16667 11.6667 10 13 12 13C14 13 14.8333 11.6667 15 11C15.1667 11.6667 16 13 18 13C20 13 20.8333 11.6667 21 11Z" stroke="#555555" stroke-width="1.5"/>
</svg>
