<svg width="17" height="14" viewBox="0 0 17 14" fill="none" xmlns="http://www.w3.org/2000/svg">
<path d="M7.26184 4.08594C7.28723 4.23828 7.31262 4.41602 7.31262 4.59375C7.31262 4.79688 7.28723 4.97461 7.26184 5.12695L7.82043 5.63477C7.99817 5.78711 8.07434 6.04102 7.97278 6.26953C7.922 6.39648 7.84583 6.54883 7.79504 6.67578L7.71887 6.80273C7.61731 6.92969 7.54114 7.05664 7.46497 7.18359C7.31262 7.36133 7.05872 7.4375 6.8302 7.36133L6.11926 7.10742C5.83997 7.33594 5.53528 7.51367 5.2052 7.64062L5.02747 8.37695C5.00208 8.63086 4.79895 8.80859 4.57043 8.83398C4.3927 8.85938 4.21497 8.85938 4.06262 8.85938C3.88489 8.85938 3.70715 8.85938 3.52942 8.83398C3.3009 8.80859 3.09778 8.63086 3.07239 8.37695L2.89465 7.64062C2.56458 7.51367 2.25989 7.33594 1.98059 7.10742L1.26965 7.36133C1.04114 7.4375 0.787231 7.36133 0.634888 7.18359C0.558716 7.05664 0.457153 6.92969 0.380981 6.80273L0.30481 6.67578C0.254028 6.54883 0.177856 6.39648 0.127075 6.26953C0.0255127 6.04102 0.101685 5.78711 0.279419 5.63477L0.838013 5.12695C0.812622 4.97461 0.787231 4.79688 0.787231 4.59375C0.787231 4.41602 0.812622 4.23828 0.838013 4.08594L0.279419 3.57812C0.101685 3.40039 0.0255127 3.14648 0.127075 2.94336C0.177856 2.79102 0.254028 2.66406 0.30481 2.53711L0.380981 2.41016C0.457153 2.2832 0.558716 2.15625 0.634888 2.0293C0.787231 1.85156 1.04114 1.77539 1.26965 1.85156L1.98059 2.10547C2.25989 1.87695 2.56458 1.69922 2.89465 1.57227L3.07239 0.835938C3.09778 0.582031 3.3009 0.404297 3.52942 0.378906C3.70715 0.353516 3.88489 0.328125 4.06262 0.328125C4.21497 0.328125 4.3927 0.353516 4.57043 0.378906C4.79895 0.404297 5.00208 0.582031 5.02747 0.835938L5.2052 1.57227C5.53528 1.69922 5.83997 1.87695 6.11926 2.10547L6.8302 1.85156C7.05872 1.77539 7.31262 1.85156 7.46497 2.0293C7.54114 2.15625 7.61731 2.2832 7.71887 2.41016L7.79504 2.53711C7.84583 2.66406 7.922 2.79102 7.97278 2.94336C8.07434 3.14648 7.99817 3.40039 7.82043 3.57812L7.26184 4.08594ZM4.06262 3.375C3.37708 3.375 2.84387 3.93359 2.84387 4.59375C2.84387 5.2793 3.37708 5.8125 4.06262 5.8125C4.72278 5.8125 5.28137 5.2793 5.28137 4.59375C5.28137 3.93359 4.72278 3.375 4.06262 3.375ZM12.2892 12.2871C12.1368 12.3125 11.9591 12.3125 11.7814 12.3125C11.5782 12.3125 11.4005 12.3125 11.2482 12.2871L10.7404 12.8457C10.5626 13.0234 10.3341 13.0996 10.1056 12.998C9.97864 12.9473 9.82629 12.8711 9.69934 12.8203L9.57239 12.7188C9.44543 12.6426 9.31848 12.5664 9.19153 12.4902C9.01379 12.3379 8.93762 12.084 9.01379 11.8555L9.2677 11.1445C9.03918 10.8652 8.86145 10.5605 8.7345 10.2051L7.99817 10.0527C7.74426 10.002 7.56653 9.82422 7.54114 9.5957C7.51575 9.41797 7.51575 9.24023 7.51575 9.0625C7.51575 8.91016 7.51575 8.73242 7.54114 8.55469C7.56653 8.32617 7.74426 8.12305 7.99817 8.07227L8.7345 7.91992C8.86145 7.58984 9.03918 7.28516 9.2677 7.00586L9.01379 6.29492C8.93762 6.06641 9.01379 5.8125 9.19153 5.66016C9.31848 5.58398 9.44543 5.48242 9.57239 5.40625L9.69934 5.33008C9.82629 5.2793 9.95325 5.20312 10.1056 5.15234C10.3341 5.05078 10.5626 5.12695 10.7404 5.30469L11.2482 5.86328C11.4005 5.83789 11.5782 5.8125 11.7814 5.8125C11.9591 5.8125 12.1368 5.83789 12.2892 5.86328L12.797 5.30469C12.9747 5.12695 13.2032 5.05078 13.4318 5.15234C13.5841 5.20312 13.7111 5.2793 13.838 5.33008L13.965 5.40625C14.0919 5.48242 14.2189 5.58398 14.3458 5.66016C14.5236 5.8125 14.5997 6.06641 14.5236 6.29492L14.2697 7.00586C14.4982 7.28516 14.6759 7.58984 14.8029 7.91992L15.5392 8.07227C15.7931 8.12305 15.9708 8.32617 15.9962 8.55469C16.0216 8.73242 16.047 8.91016 16.047 9.0625C16.047 9.24023 16.0216 9.41797 15.9962 9.5957C15.9708 9.82422 15.7931 10.002 15.5392 10.0527L14.8029 10.2051C14.6759 10.5605 14.4982 10.8652 14.2697 11.1445L14.5236 11.8555C14.5997 12.084 14.5236 12.3379 14.3458 12.4902C14.2189 12.5664 14.0919 12.6426 13.965 12.7188L13.838 12.8203C13.7111 12.8711 13.5587 12.9473 13.4318 12.998C13.2032 13.0996 12.9747 13.0234 12.797 12.8457L12.2892 12.2871ZM13.0001 9.0625C13.0001 8.40234 12.4415 7.84375 11.7814 7.84375C11.0958 7.84375 10.5626 8.40234 10.5626 9.0625C10.5626 9.74805 11.0958 10.2812 11.7814 10.2812C12.4415 10.2812 13.0001 9.74805 13.0001 9.0625Z" fill="white"/>
</svg>
