<svg width="25" height="24" viewBox="0 0 25 24" fill="none" xmlns="http://www.w3.org/2000/svg">
<path d="M20.666 8V5C20.666 4.44772 20.2183 4 19.666 4H5.66602C5.11373 4 4.66602 4.44772 4.66602 5V8" stroke="black" stroke-width="2"/>
<path d="M4.66602 12V19C4.66602 19.5523 5.11373 20 5.66602 20H19.666C20.2183 20 20.666 19.5523 20.666 19V12" stroke="black" stroke-width="2"/>
<path d="M15.666 20V17C15.666 16.4477 15.2183 16 14.666 16H11.666C11.1137 16 10.666 16.4477 10.666 17V20" stroke="black" stroke-width="2"/>
<path d="M21.666 11V9C21.666 8.44772 21.2183 8 20.666 8H4.66602C4.11373 8 3.66602 8.44772 3.66602 9V11C3.83268 11.6667 4.66602 13 6.66602 13C8.66602 13 9.49935 11.6667 9.66602 11C9.83268 11.6667 10.666 13 12.666 13C14.666 13 15.4993 11.6667 15.666 11C15.8327 11.6667 16.666 13 18.666 13C20.666 13 21.4993 11.6667 21.666 11Z" stroke="black" stroke-width="2"/>
</svg>
