<svg width="25" height="24" viewBox="0 0 25 24" fill="none" xmlns="http://www.w3.org/2000/svg">
<path d="M16.834 9.40002L7.83398 4.21002" stroke="#E91E63" stroke-width="2" stroke-linecap="round" stroke-linejoin="round"/>
<path d="M21.334 16V8.00002C21.3336 7.6493 21.241 7.30483 21.0655 7.00119C20.89 6.69754 20.6377 6.44539 20.334 6.27002L13.334 2.27002C13.0299 2.09449 12.6851 2.00208 12.334 2.00208C11.9829 2.00208 11.638 2.09449 11.334 2.27002L4.33398 6.27002C4.03025 6.44539 3.77796 6.69754 3.60245 7.00119C3.42693 7.30483 3.33434 7.6493 3.33398 8.00002V16C3.33434 16.3508 3.42693 16.6952 3.60245 16.9989C3.77796 17.3025 4.03025 17.5547 4.33398 17.73L11.334 21.73C11.638 21.9056 11.9829 21.998 12.334 21.998C12.6851 21.998 13.0299 21.9056 13.334 21.73L20.334 17.73C20.6377 17.5547 20.89 17.3025 21.0655 16.9989C21.241 16.6952 21.3336 16.3508 21.334 16Z" stroke="#E91E63" stroke-width="2" stroke-linecap="round" stroke-linejoin="round"/>
<path d="M3.62305 7L12.333 12L21.043 7" stroke="#E91E63" stroke-width="2" stroke-linecap="round" stroke-linejoin="round"/>
<path d="M12.334 22V12" stroke="#E91E63" stroke-width="2" stroke-linecap="round" stroke-linejoin="round"/>
</svg>
