<svg width="24" height="21" viewBox="0 0 24 21" fill="none" xmlns="http://www.w3.org/2000/svg">
<path fill-rule="evenodd" clip-rule="evenodd" d="M4.951 1.48103C5.72893 1.15801 6.56298 0.99173 7.40531 0.99173C8.24764 0.99173 9.08168 1.15801 9.85961 1.48103C10.6375 1.80405 11.3441 2.27746 11.9386 2.87411L11.942 2.87745L12.0003 2.93656L12.0587 2.87746L12.062 2.87411C12.6566 2.27746 13.3631 1.80405 14.141 1.48103C14.9189 1.15801 15.753 0.99173 16.5953 0.99173C17.4376 0.99173 18.2717 1.15801 19.0496 1.48103C19.8273 1.80394 20.5336 2.27713 21.128 2.8735C23.6731 5.41919 23.7296 9.62834 20.7139 12.7005L20.7074 12.7071L12.7074 20.7071C12.5199 20.8946 12.2655 21 12.0003 21C11.7351 21 11.4807 20.8946 11.2932 20.7071L3.28664 12.7005C0.270943 9.62836 0.327563 5.41918 2.87259 2.87349C3.46705 2.27713 4.17334 1.80394 4.951 1.48103ZM7.40531 2.99173C6.82621 2.99173 6.2528 3.10605 5.71797 3.32812C5.18314 3.5502 4.69742 3.87567 4.28864 4.28587L4.28741 4.28709C2.5938 5.98071 2.39006 8.92925 4.71082 11.2963L12.0003 18.5858L19.2898 11.2963C21.6106 8.92926 21.4068 5.98071 19.7132 4.28709L19.712 4.28587C19.3032 3.87567 18.8175 3.5502 18.2826 3.32812C17.7478 3.10605 17.1744 2.99173 16.5953 2.99173C16.0162 2.99173 15.4428 3.10605 14.908 3.32812C14.3738 3.54991 13.8887 3.87481 13.4803 4.28425C13.4797 4.28479 13.4792 4.28533 13.4786 4.28587L12.712 5.06252C12.5241 5.25285 12.2678 5.35999 12.0003 5.35999C11.7329 5.35999 11.4765 5.25285 11.2887 5.06252L10.522 4.28587C10.5214 4.28533 10.5209 4.28479 10.5204 4.28425C10.1119 3.87481 9.62677 3.54991 9.09264 3.32812C8.55781 3.10605 7.98441 2.99173 7.40531 2.99173Z" fill="#555555"/>
</svg>
