<?xml version="1.0" encoding="utf-8"?><svg viewBox="0 0 512 512" xmlns="http://www.w3.org/2000/svg" xmlns:xlink="http://www.w3.org/1999/xlink"><style>:root>svg{display:none}:root>svg:target{display:block}</style><svg viewBox="0 0 32 32" id="cart" xmlns="http://www.w3.org/2000/svg"><path fill-rule="evenodd" clip-rule="evenodd" d="M8 28a2.667 2.667 0 115.333 0A2.667 2.667 0 018 28zM22.667 28A2.667 2.667 0 1128 28a2.667 2.667 0 01-5.333 0zM1.4 2.733c0-.736.597-1.333 1.333-1.333H5.4c.629 0 1.172.44 1.304 1.054l1.202 5.613h21.547a1.334 1.334 0 011.302 1.622l-2.2 9.904a4.003 4.003 0 01-3.9 3.14H11.627a4 4 0 01-3.984-3.16L5.537 9.74a1.325 1.325 0 01-.025-.12l-1.19-5.553H2.733A1.333 1.333 0 011.4 2.733zm7.077 8l1.773 8.28a1.334 1.334 0 001.334 1.054H24.65a1.336 1.336 0 001.3-1.047l1.84-8.287H8.477z"/></svg><svg viewBox="0 0 512 512" id="catalog-1" xmlns="http://www.w3.org/2000/svg"><g clip-path="url(#bclip0_1381_17489)"><path fill-rule="evenodd" clip-rule="evenodd" d="M165.5.2l180-.2 8 2.8c4.4 1.5 10.7 4.3 13.9 6.2 3.2 1.9 8.6 6.4 11.9 10 3.4 3.6 7.6 9.2 9.4 12.5 1.8 3.3 4.1 9.6 5.3 14 1.1 4.4 2 10.4 2 13.3 0 2.8-9.2 78.9-20.5 168.9-13.8 111.1-21.1 165.9-22.4 170.3-1.1 3.6-3.7 9.4-5.8 12.9-2.1 3.5-6.7 9.1-10.3 12.5-4 3.8-9.4 7.6-14 9.9-4.1 2.1-10.6 4.4-14.5 5.2-5.6 1.2-16.3 1.5-52.5 1.5s-46.9-.3-52.5-1.5c-3.8-.8-10.4-3.1-14.5-5.2-4.6-2.3-10-6.1-14-9.9-3.6-3.4-8.2-9-10.3-12.5-2.1-3.5-4.7-9.3-5.8-12.9-1.3-4.4-8.6-59.2-22.4-170.3-11.3-90-20.5-166.1-20.5-169 0-2.8.9-8.8 2-13.2 1.2-4.4 3.5-10.7 5.3-14 1.8-3.3 6-8.9 9.4-12.5 3.3-3.6 8.7-8.1 11.9-10 3.2-1.9 9.2-4.7 13.4-6.2l7.5-2.6zM162 46.1c-2.5 2.4-4.5 5.6-5.2 8.2-1 3.7 1.5 24.8 19.4 168.3 19.1 153.2 20.6 164.2 22.8 167.9 1.4 2.2 4.2 5.1 6.4 6.5l3.9 2.6h93.3c6.1-4 9-6.9 10.3-9.1 2.3-3.7 3.8-14.7 22.9-167.9C353.7 79.1 356.1 58 355.1 54.3c-.7-2.6-2.7-5.8-5.1-8.2-2.3-2.3-5.7-4.5-7.8-5-2.3-.7-34.6-1-86.7-1-46.5.1-84.5.5-86.3 1-1.8.5-5 2.8-7.2 5zm140.5 426.5l3.9 2.5c2.2 1.3 5.1 4.2 6.5 6.4 2.1 3.2 2.6 5.1 2.6 10.5 0 5.3-.5 7.3-2.5 10.5-1.4 2.2-4.6 5.2-11.5 9.6h-91l-4.5-2.8c-2.5-1.6-5.5-4.4-6.7-6.3-1.3-1.9-2.5-5.5-2.9-7.9-.3-2.5-.1-6.5.5-8.8.7-2.7 2.6-5.7 5.1-8.2 2.2-2.2 5.4-4.5 7.2-5 1.9-.5 22.9-.8 93.3-.5zM255.7 80.1c29.7 0 35.9.2 39 1.5 2.1.9 5.3 3 7.1 4.8 2.1 2 3.8 5 4.7 8.4 1.3 4.6 1.3 5.9 0 10.5-.9 3.4-2.6 6.4-4.7 8.5-1.8 1.7-5 3.9-7.1 4.7-3.1 1.3-9.4 1.6-38.7 1.6-29.4 0-35.6-.3-38.8-1.6-2-.9-5-2.8-6.6-4.2-1.5-1.5-3.5-4.1-4.4-5.7-.9-1.7-1.6-5.5-1.6-8.5 0-3.1.7-6.9 1.6-8.5.9-1.7 2.9-4.3 4.4-5.7 1.6-1.5 4.4-3.4 6.4-4.3 2.9-1.2 9.5-1.5 38.7-1.5z"/></g><defs><clipPath id="bclip0_1381_17489"><path d="M0 0h512v512H0z"/></clipPath></defs></svg><svg viewBox="0 0 512 512" id="catalog-2" xmlns="http://www.w3.org/2000/svg"><path fill-rule="evenodd" clip-rule="evenodd" d="M166.899 2.784c-4.315 2.254-5.861 3.8-8.115 8.115-3.556 6.808-3.556 11.394 0 18.202 2.254 4.315 3.8 5.861 8.115 8.115 4.959 2.59 6.156 2.784 17.215 2.784H196v63.772l2.784 5.329c2.254 4.315 3.8 5.861 8.115 8.115 6.808 3.556 11.394 3.556 18.202 0 4.315-2.254 5.861-3.8 8.115-8.115l2.784-5.329V40h40v63.772l2.784 5.329c2.254 4.315 3.8 5.861 8.115 8.115 6.808 3.556 11.394 3.556 18.202 0 4.315-2.254 5.861-3.8 8.115-8.115l2.784-5.329V40h63.772l5.329-2.784c4.315-2.254 5.861-3.8 8.115-8.115 3.556-6.808 3.556-11.394 0-18.202-2.254-4.315-3.8-5.861-8.115-8.115L379.772 0H172.228l-5.329 2.784zm-2.422 150.184c-11.904 1.797-25.992 7.568-35.475 14.532-4.926 3.617-15.341 14.217-18.726 19.057-3.993 5.711-9.184 17.086-11.421 25.028-1.749 6.209-2.226 10.502-2.214 19.915.015 11.292 1.207 18.449 20.197 121.309 11.099 60.12 20.651 111.42 21.227 114 3.377 15.133 16.43 31.304 31.081 38.504 13.638 6.702 15.235 6.816 91.01 6.483l67.344-.296 6.5-2.333c10.236-3.675 16.936-7.948 24.658-15.728 7.6-7.657 13.236-17.481 15.277-26.63 3.43-15.371 41.259-224.629 41.725-230.809 1.059-14.048-3.343-31.527-11.406-45.285-3.967-6.768-14.398-18.182-21.139-23.13-6.452-4.737-17.377-10.058-26.168-12.746l-7.447-2.277-90-.176c-49.5-.097-92.261.165-95.023.582zm-.977 41.07c-15.536 4.985-27.5 21.238-27.5 37.359 0 2.852 9.191 55.302 20.424 116.556 19.123 104.277 20.604 111.626 23.25 115.382 1.554 2.206 4.827 5.068 7.273 6.359l4.446 2.348 65.718-.271 65.718-.271 4.287-3.014c2.359-1.657 5.147-4.485 6.198-6.283C335.58 458.322 376 239.77 376 231.397c0-16.309-12.038-32.477-27.855-37.414-6.138-1.915-9.312-1.981-92.5-1.927-82.201.054-86.42.144-92.145 1.982zm43.399 120.746c-4.315 2.254-5.861 3.8-8.115 8.115-3.556 6.808-3.556 11.394 0 18.202 2.254 4.315 3.8 5.861 8.115 8.115l5.329 2.784h87.544l5.329-2.784c4.315-2.254 5.861-3.8 8.115-8.115 3.556-6.808 3.556-11.394 0-18.202-2.254-4.315-3.8-5.861-8.115-8.115L299.772 312h-87.544l-5.329 2.784z"/></svg><svg viewBox="0 0 512 512" id="catalog-3" xmlns="http://www.w3.org/2000/svg"><path fill-rule="evenodd" clip-rule="evenodd" d="M85.5.2l340-.2 8 2.8c4.4 1.5 10.7 4.3 13.9 6.2 3.2 1.9 8.6 6.4 11.9 10 3.4 3.6 7.6 9.2 9.4 12.5 1.7 3.3 4.1 9.4 5.2 13.5 2.1 7.5 2.1 7.9 1.6 382.5l-2.3 8.5c-1.3 4.7-4.2 12.6-6.6 17.5-2.3 4.9-6.2 11.9-8.6 15.5-2.4 3.6-7.6 9.7-11.5 13.6-3.8 3.9-10.8 9.6-15.5 12.7-4.7 3-11.9 6.9-16 8.6-4.1 1.8-12 4.3-27.5 8.1h-263l-10.5-2.6c-5.8-1.4-14.5-4.4-19.5-6.8-5-2.3-11.3-5.7-14-7.6-2.8-1.9-7.2-5.2-9.9-7.4-2.7-2.3-7.4-7.1-10.5-10.7-3.1-3.7-7.4-9.8-9.7-13.5-2.2-3.8-5.4-10.3-7.1-14.4-1.7-4.1-4.1-11.9-5.2-17.3-2.1-9.6-2.1-10.8-2.1-193.9C36 55 36 53.4 38 45.5c1.2-4.4 3.5-10.7 5.3-14 1.8-3.3 6-8.9 9.4-12.5 3.3-3.6 8.7-8.1 11.9-10 3.2-1.9 9.2-4.7 13.4-6.2L85.5.2zM82 46.1c-2.3 2.2-4.5 5.6-5 7.7-.7 2.4-1 67.8-1 184.3-.1 178.9 0 180.5 2 188.5 1.1 4.4 3.5 10.7 5.2 14 1.9 3.4 6.4 9.2 10.7 13.5 4.4 4.3 10.1 8.9 13.6 10.7 3.3 1.7 9.6 4.1 14 5.2 7.8 2 10 2.1 134.5 2.1 124.4 0 126.6-.1 134.5-2.1 4.4-1.1 10.7-3.5 14-5.2 3.4-1.8 9.2-6.3 13.5-10.7 5.1-5.1 8.7-9.8 11.1-14.5 2-3.9 4.3-10.4 5.2-14.5 1.6-7 1.7-22 1.4-189.6l-.2-182.1c-4-6.1-6.9-9-9.1-10.3l-3.9-2.5c-262.4-.3-331.4 0-333.3.5-1.8.5-5 2.8-7.2 5zm300.5 34.5l3.9 2.5c2.2 1.3 5.1 4.2 6.5 6.4 2.1 3.2 2.6 5.1 2.6 10.6 0 5.4-.5 7.3-2.6 10.5-1.4 2.2-4.3 5.1-10.4 9h-253l-4-2.5c-2.1-1.4-4.9-4.1-6.2-6-1.3-2-2.6-5.6-2.9-8-.4-2.5-.1-6.5.5-8.8.7-2.7 2.6-5.7 5.1-8.2 2.2-2.2 5.4-4.5 7.2-5 1.9-.5 54.9-.8 253.3-.5zm-160 116l3.9 2.5c2.2 1.3 5.1 4.2 9.1 10.3v93.2l-2.5 3.9c-1.4 2.2-4.3 5.1-10.4 9.1h-93.3l-3.9-2.6c-2.2-1.4-5.1-4.3-8.9-10.4l-.4-44c-.2-29.1.1-45.5.8-48.3.7-2.7 2.5-5.7 5.1-8.2 2.2-2.2 5.4-4.5 7.2-5 1.9-.5 22.9-.8 93.3-.5zM156 276.1h40v-40h-40v40zm162.7 7c2.4 0 6 .6 8 1.5 2.6 1 13.8 11.5 34.6 32.2 20.1 20 31.5 32.2 32.8 34.8 1 2.2 1.8 5.8 1.8 8s-.8 5.8-1.8 8c-1.3 2.6-12.7 14.7-32.8 34.7-20.8 20.7-32 31.2-34.6 32.2-2 .9-5.3 1.6-7.2 1.6-2 0-5.2-.7-7.3-1.6-2.5-1-13.7-11.5-34.6-32.2-20-20-31.5-32.1-32.7-34.7-1-2.2-1.9-6-1.9-8.3 0-2.3.8-5.9 1.9-8 1.1-2.1 15.8-17.5 32.8-34.4 16.9-16.9 32.1-31.3 33.8-32.2 1.6-.9 4.9-1.6 7.2-1.6zM291 359.6c21.3 21.3 27.9 27.4 28.5 27.5.5 0 6.9-6 14.2-13.3 7.3-7.3 13.3-13.7 13.3-14.2 0-.6-6.2-7.2-13.8-14.8l-13.8-13.7-28.4 28.5z"/></svg><svg viewBox="0 0 512 512" id="catalog-4" xmlns="http://www.w3.org/2000/svg"><path fill-rule="evenodd" clip-rule="evenodd" d="M124.5 1.446C101.842 6.536 86.138 20.662 78.858 42.5c-2.334 6.999-2.334 7.005-2.655 71.5-.176 35.475-.051 66.351.279 68.613 2.651 18.186 27.1 23.159 36.366 7.398l2.652-4.511.5-66c.532-70.2.356-67.807 5.375-73.345 4.866-5.37 6.245-5.62 34.125-6.155 25.428-.49 26.096-.555 30.348-2.99 12.81-7.333 12.902-26.37.163-33.858L181.5.5 156 .299c-18.401-.145-27.17.174-31.5 1.147zm-77 232.196c-22.894 4.839-41.229 23.427-45.933 46.566-1.938 9.531-1.948 14.329-.051 23.287 1.807 8.53 43.058 115.901 48.729 126.834 4.692 9.047 15.914 21.591 24.288 27.149L80 461.107v16.203c0 17.225.61 21.038 4.206 26.285 7.708 11.249 25.932 10.279 32.798-1.747 2.213-3.877 2.521-5.729 2.839-17.098l.358-12.75H392v10.757c0 11.841.818 15.894 4.206 20.838 7.707 11.249 25.92 10.279 32.805-1.747 2.335-4.079 2.52-5.469 2.989-22.498l.5-18.151 6-4.42c8.977-6.614 18.723-17.712 23.301-26.532 5.287-10.187 46.076-115.868 47.954-124.247.802-3.575 1.86-7.281 2.351-8.236 1.251-2.43 1.158-13.045-.106-12.264-.565.349-1-.472-1-1.889 0-4.756-4.966-18.127-9.035-24.329-5.437-8.287-14.532-16.342-23.3-20.638-14.419-7.064-.421-6.653-223.373-6.562-173.201.07-201.754.284-207.792 1.56zm4 40.248c-7.142 3.296-11.5 10.18-11.5 18.164 0 2.958 5.815 19.236 20.643 57.782 11.354 29.515 21.664 55.994 22.913 58.842 4.276 9.753 14.578 18.576 25.376 21.734C113.781 431.83 129.549 432 256 432c126.451 0 142.219-.17 147.068-1.588 10.798-3.158 21.1-11.981 25.376-21.734 1.249-2.848 11.559-29.327 22.913-58.842 15.593-40.535 20.638-54.725 20.621-58-.026-5.049-2.694-11.398-6.11-14.538-6.144-5.649 7.751-5.3-210.086-5.276-192.58.021-200.436.093-204.282 1.868zM.32 292c0 3.575.182 5.038.403 3.25.222-1.788.222-4.712 0-6.5-.221-1.788-.403-.325-.403 3.25z"/></svg><svg viewBox="0 0 512 512" id="catalog-5" xmlns="http://www.w3.org/2000/svg"><path fill-rule="evenodd" clip-rule="evenodd" d="M85.5.2l340-.2 8 2.8c4.4 1.5 10.7 4.3 13.9 6.2 3.2 1.9 8.6 6.4 11.9 10 3.4 3.6 7.6 9.2 9.4 12.5 1.7 3.3 4.1 9.4 5.2 13.5 2.1 7.5 2.1 8.1 2.1 210.5 0 201.6 0 203.1-2 211-1.2 4.4-3.5 10.7-5.3 14-1.8 3.3-6 8.9-9.4 12.5-3.3 3.6-8.7 8.1-11.9 10-3.2 1.9-9.5 4.7-21.9 9h-339l-8-2.8c-4.4-1.5-10.7-4.3-13.9-6.2-3.2-1.9-8.6-6.4-11.9-10-3.4-3.6-7.6-9.2-9.4-12.5-1.7-3.3-4.1-9.4-5.2-13.5-2.1-7.5-2.1-8.1-2.1-210.5 0-201.6 0-203.1 2-211 1.2-4.4 3.5-10.7 5.3-14 1.8-3.3 6-8.9 9.4-12.5 3.3-3.6 8.7-8.1 11.9-10 3.2-1.9 9.2-4.7 13.4-6.2L85.5.2zM82 46.1c-2.3 2.2-4.5 5.6-5 7.7-.7 2.4-.9 74.2-.8 204.3l.3 200.5c3.8 6.1 6.7 9 8.9 10.4l3.9 2.6h333.3c6.1-4 9-6.9 10.4-9.1l2.5-3.9V53.4c-4-6.1-6.9-9-9.1-10.3l-3.9-2.5c-262.4-.3-331.4 0-333.3.5-1.8.5-5 2.8-7.2 5zm178 30.5c9 .2 18 1.1 24 2.4 5.2 1.1 13.5 3.4 18.5 5.1 4.9 1.8 12.1 4.8 16 6.7 3.8 1.9 10.8 6 15.5 9.1 5.2 3.4 13.2 10.3 20.5 17.6 6.6 6.6 14.3 15.4 17 19.6 2.7 4.1 7.1 11.7 9.8 17 2.6 5.2 6 13.5 7.6 18.5 1.6 4.9 3.7 13 4.7 18 1.3 6.4 1.8 13.6 1.8 25.5 0 11.8-.5 19-1.8 25.5-1 4.9-3.1 13-4.7 18-1.6 4.9-5 13.2-7.6 18.5-2.7 5.2-7.1 12.8-9.8 17-2.7 4.1-10.4 12.9-17 19.5s-15.2 14.1-19 16.6c-3.9 2.6-10.9 6.7-15.5 9.2-4.7 2.5-12.6 5.9-17.5 7.6-5 1.7-13.5 4.1-19 5.2-5.5 1.1-15 2.2-21 2.6-6.4.3-15.5 0-21.5-.7-5.8-.7-14.6-2.3-19.5-3.5-5-1.2-13.1-3.9-18-5.9-5-2-12.6-5.8-17-8.3-4.4-2.6-11.4-7.2-15.5-10.4-4.2-3.1-11.6-9.9-16.5-15.1-5-5.2-11.1-12.6-13.7-16.4-2.6-3.8-6.7-10.8-9.2-15.4-2.4-4.7-5.9-12.6-7.6-17.5-1.7-5-4.1-13.5-5.3-19-1.7-8.1-2.1-13.5-2.1-27.5 0-14.1.4-19.5 2.1-27.5 1.2-5.5 3.6-14.1 5.3-19 1.7-5 5.2-12.9 7.6-17.5 2.5-4.7 6.6-11.7 9.2-15.5 2.6-3.8 8.9-11.4 14.2-16.9 5.2-5.4 12.6-12.2 16.5-15.1 3.8-2.9 11-7.6 16-10.4 4.9-2.9 12.6-6.6 17-8.3 4.4-1.7 12-4.1 17-5.4 4.9-1.2 12.3-2.7 16.5-3.3 4.1-.6 14-.8 22-.6zm-35.3 44.5c-3.4 1.2-9.4 3.7-13.2 5.7-3.9 1.9-9.7 5.3-13 7.6-3.3 2.2-9.2 7.2-13.1 11.1-3.9 3.9-9.6 10.9-12.7 15.6-3.1 4.6-7 11.8-8.7 16-1.7 4.1-4 11.1-5.1 15.5-1.1 4.4-2.3 12.9-2.6 19-.4 7.9-.1 13.6 1.1 20.2.8 5.1 2.5 12.1 3.7 15.5 1.1 3.4 3.6 9.4 5.6 13.3 1.9 3.8 5.3 9.7 7.6 13 2.2 3.3 7.3 9.1 11.1 13 3.9 3.9 10 9 13.6 11.4 3.5 2.5 10.5 6.4 15.5 8.7 4.9 2.3 12.8 5.2 17.5 6.3 4.6 1.2 13.4 2.4 19.5 2.7 7.9.4 13.6.1 20.2-1 5.1-.9 12.1-2.6 15.5-3.7 3.5-1.2 9.4-3.7 13.3-5.7 3.8-1.9 9.7-5.3 13-7.6 3.3-2.2 9.1-7.2 13-11.1 3.9-3.9 9-10 11.5-13.5 2.4-3.6 6.3-10.6 8.6-15.5 2.4-5 5.2-12.9 6.4-17.5 1.1-4.7 2.3-13.5 2.6-19.5.4-8 .1-13.6-1-20.3-.9-5.1-2.6-12.1-3.7-15.5-1.2-3.4-3.7-9.4-5.6-13.2-2-3.9-5.4-9.7-7.6-13-2.3-3.3-7.3-9.2-11.2-13.1-3.9-3.9-10.9-9.6-15.5-12.7-4.7-3-11.9-6.9-16-8.7-4.2-1.8-11.1-4.1-15.5-5.2-5-1.2-12.7-2.1-20.5-2.4-8.5-.3-15 .1-20.3 1.1-4.2.8-10.5 2.4-14 3.5zm117.9 275.5l3.9 2.5c2.2 1.4 5.1 4.4 6.5 6.5 2 3.2 2.5 5.2 2.5 10.5 0 5.2-.5 7.2-2.5 10.4-1.4 2.2-4.3 5.1-10.4 9.1H169.5l-4-2.5c-2.1-1.4-4.9-4.1-6.2-6-1.3-2-2.6-5.6-2.9-8-.4-2.5-.1-6.5.5-8.8.7-2.7 2.6-5.7 5.1-8.2 2.2-2.2 5.4-4.5 7.2-5 1.9-.5 38.9-.8 173.4-.5zM218 196.6c3.5.3 6.8 1.3 9 2.8 1.9 1.2 4.5 3.8 5.7 5.7 1.3 2 2.6 6.5 3.3 11 .6 4.4 2 8.9 3.3 10.9 1.2 1.9 3.9 4.6 6.1 6 3.2 2.1 5.1 2.6 10.6 2.6 5.4 0 7.3-.5 10.5-2.6 2.2-1.4 5-4.1 6.2-6 1.3-2 2.6-6.5 3.3-10.9.6-4.5 2-9 3.3-11 1.2-1.9 3.9-4.6 6.1-6 3.2-2.1 5.1-2.5 10.5-2.5 5.3 0 7.3.4 10.5 2.5 2.2 1.3 5 4 6.3 6 1.5 2.2 2.5 5.6 2.9 9.5.5 4.1.1 8.5-1.1 14-1 4.4-3.4 11.1-5.4 15-2.4 4.8-5.8 9.3-11 14.5-4.4 4.3-10.2 8.9-13.6 10.7-3.3 1.7-9.6 4.1-14 5.2-4.4 1.1-11 2.1-14.5 2.1-3.6 0-10.1-1-14.5-2.1s-10.7-3.5-14-5.2c-3.5-1.8-9.2-6.4-13.6-10.7-4.3-4.3-8.8-10.1-10.7-13.5-1.7-3.3-4.1-9.6-5.2-14-1.1-4.4-2-10.1-2-12.5 0-2.5.4-6.2 1-8.3.5-2.1 2.7-5.5 5-7.7 2.2-2.2 5.4-4.5 7.2-5 1.8-.5 5.7-.8 8.8-.5z"/></svg><svg viewBox="0 0 512 512" id="catalog-6" xmlns="http://www.w3.org/2000/svg"><g clip-path="url(#gclip0_1381_17491)"><path fill-rule="evenodd" clip-rule="evenodd" d="M257.5.3c13.3.2 24.8 1 31.5 2.1 5.8.9 14.8 2.8 20 4.1 5.2 1.3 14.2 4 20 6 5.8 2 16.4 6.4 23.5 9.9 7.1 3.5 17.7 9.5 23.5 13.3 5.8 3.8 14 9.7 18.3 13.1 4.2 3.4 11.9 10.4 16.9 15.5 5.1 5.1 12.2 12.8 15.7 17.2 3.5 4.4 9.6 12.7 13.4 18.5 3.8 5.8 9.8 16.3 13.3 23.5 3.4 7.2 8 18.2 10.2 24.5 2.2 6.3 4.9 15.6 6 20.5 1.2 4.9 3.1 15.1 4.2 22.5 1.4 9.2 2 18.4 2 29 0 10.333-.7 20.167-2.1 29.5-1.1 7.7-3.1 18.3-4.4 23.5-1.3 5.2-4 14.2-6 20-2 5.8-6.5 16.4-10 23.5-3.4 7.1-9.9 18.5-14.4 25.3-5.7 8.6-9.3 13-12.3 14.9-3.5 2.4-5.2 2.8-10.8 2.8-5.4 0-7.4-.5-10.6-2.6-2.1-1.4-5-4.3-6.4-6.5-2-3.1-2.5-5.2-2.5-10.4 0-6.5.1-6.6 7.7-18 4.2-6.3 9.8-15.6 12.3-20.5s5.9-12.6 7.6-17c1.7-4.4 4.2-12.1 5.5-17 1.3-4.9 3.1-13.1 3.9-18 .9-4.9 1.8-15.1 2.2-22.5.3-8 .1-18-.6-24.5-.7-6.1-2.1-15.3-3.3-20.5-1.1-5.2-3.3-13.6-4.9-18.5-1.6-4.9-5.8-14.8-9.3-22-3.5-7.2-9-16.9-12.3-21.7-3.2-4.8-9.4-12.9-13.8-18s-12.1-12.8-17-17.1c-4.9-4.3-13.5-10.8-19-14.4-5.5-3.7-15.4-9.3-22-12.5-6.6-3.1-16.1-7-21-8.7-4.9-1.6-13.3-3.8-18.5-4.9-5.2-1.1-13.9-2.5-19.2-3.1-5.4-.6-13.9-1.1-18.8-1.1s-13.4.5-18.7 1.1c-5.4.6-14.1 2-19.3 3.1-5.2 1.1-13.6 3.4-18.5 5s-14.2 5.4-20.5 8.4c-6.3 3.1-14.4 7.4-18 9.6-3.6 2.3-9.9 6.7-14 9.8-4.1 3.2-10.6 8.6-14.4 12.1-3.8 3.5-10.1 10.2-14 14.9-3.9 4.7-9.8 12.5-13.1 17.5-3.2 5-8.5 14.4-11.6 21-3.2 6.6-7.1 16.1-8.8 21-1.6 4.9-3.8 13.3-4.9 18.5-1.2 5.2-2.6 14.4-3.3 20.5-.7 6.5-.9 16.5-.6 24.5.4 7.4 1.3 17.6 2.2 22.5.8 4.9 2.6 13.1 3.9 18 1.3 4.9 3.8 12.6 5.5 17 1.7 4.4 5.1 12.1 7.6 17s7.9 13.9 12 20c5.4 8 7.6 12.2 8.1 15.5.4 2.8.1 6.2-.7 9-.8 2.5-2.9 6-4.9 8-2 2-5.5 4.1-8 4.9-2.8.8-6.2 1.1-9 .7-2.5-.4-6.2-1.8-8.2-3.1-2.5-1.6-6.6-6.7-11.9-14.8-4.5-6.7-11-18.1-14.4-25.2-3.5-7.1-8-17.7-10-23.5-2-5.8-4.7-14.8-6-20-1.3-5.2-3.3-15.7-4.4-23.3-1.4-9.3-2.1-18.6-2.1-29.2 0-10.3.7-20.2 2.1-29.8 1.1-7.8 3.1-18.5 4.4-23.7 1.3-5.2 4-14.2 6-20 2-5.8 6.5-16.3 10-23.5 3.4-7.2 9.4-17.7 13.2-23.5 3.8-5.8 9.9-14.1 13.4-18.5s10.5-12 15.5-17c4.9-4.9 12.6-11.9 17-15.4 4.3-3.5 12.6-9.6 18.4-13.4 5.8-3.8 16.4-9.8 23.5-13.2 7.2-3.5 17.7-8 23.5-10 5.8-2 14.8-4.7 20-6 5.2-1.3 14.7-3.1 21-4 6.3-1 11.7-1.9 12-2.2.3-.2 9.9-.3 21.5 0zm-2 391.7c165.4 0 167.1 0 175 2 4.4 1.2 10.7 3.5 14 5.3 3.5 1.8 9.2 6.3 13.5 10.7 4.4 4.4 8.9 10 10.7 13.5 1.7 3.3 4.1 9.4 5.2 13.5 1.2 4.3 2.1 10.5 2.1 14.5 0 3.9-.9 10.6-2 15-1.2 4.4-3.5 10.7-5.3 14-1.8 3.3-6 8.9-9.4 12.5-3.3 3.6-8.7 8.1-11.9 10-3.2 1.9-9.5 4.7-21.9 9h-339l-8-2.8c-4.4-1.5-10.7-4.3-13.9-6.2-3.2-1.9-8.6-6.4-11.9-10-3.4-3.6-7.6-9.2-9.4-12.5-1.7-3.3-4.1-9.4-5.2-13.5-1.2-4.3-2.1-10.5-2.1-14.5 0-3.9.9-10.6 2-15 1.2-4.4 3.5-10.7 5.3-14 1.8-3.5 6.3-9.2 10.7-13.5 4.3-4.4 10.1-8.9 13.5-10.7 3.3-1.8 9.4-4.1 13.5-5.2 7.3-1.9 11.1-2 174.5-2.1zM82 438c-2.5 2.5-4.4 5.6-5.1 8.3-.6 2.3-.8 6.2-.5 8.7.4 2.5 1.7 6.1 2.9 8 1.3 1.9 4.1 4.6 6.3 6l3.9 2.5h333c6.1-3.9 9-6.8 10.4-8.9 2.1-3.2 2.6-5.2 2.6-10.6 0-5.4-.5-7.4-2.6-10.6-1.4-2.1-4.3-5-6.5-6.4l-3.9-2.5c-262.4-.3-331.3 0-333.3.6-1.7.5-5 2.7-7.2 4.9zM254 80.4c7.1.1 9.2.6 12.4 2.6 2.2 1.4 5.1 4.3 6.5 6.4 2.1 3.2 2.6 5.2 2.6 10.6 0 5.4-.5 7.4-2.6 10.6-1.4 2.1-4.3 5-6.5 6.3-3.1 2-6 2.6-14.6 3.3-6 .4-14.1 1.5-18 2.4-4 .9-9.5 2.5-12.3 3.6-2.7 1-7.7 3.3-11 5-3.3 1.7-8.7 4.9-12 7.1-3.3 2.3-9.2 7.3-13.1 11.2-3.9 3.8-9.6 10.8-12.7 15.5-3 4.7-7 11.9-8.7 16-1.7 4.1-4 11.1-5 15.5-1.1 4.4-2.4 13.2-3 19.5-.8 9.4-1.4 12.1-3.3 15-1.3 1.9-4.1 4.6-6.3 6-3.1 2-5.2 2.5-10.4 2.5s-7.3-.5-10.4-2.5c-2.2-1.4-5.1-4.3-6.5-6.4-2.5-3.7-2.6-4.7-2.5-16 .1-7.9.9-15.6 2.2-22.1 1.2-5.5 3.5-14 5.2-19 1.8-4.9 5.2-12.8 7.7-17.5 2.4-4.7 6.6-11.6 9.1-15.5 2.6-3.8 9-11.4 14.2-16.8 5.2-5.5 12.7-12.3 16.5-15.2 3.9-2.9 11.1-7.6 16-10.4 5-2.8 12.6-6.5 17-8.2 4.4-1.7 12.1-4.2 17-5.4 5-1.3 12.4-2.8 16.5-3.3 4.1-.6 11.3-1 16-.8z"/></g><defs><clipPath id="gclip0_1381_17491"><path d="M0 0h512v512H0z"/></clipPath></defs></svg><svg viewBox="0 0 512 512" id="catalog-7" xmlns="http://www.w3.org/2000/svg"><path fill-rule="evenodd" clip-rule="evenodd" d="M262.882 1.323c-18.047 6.735-36.219 29.197-41.489 51.285-2.034 8.52-2.285 27.989-.495 38.392.71 4.125 3.714 17.237 6.676 29.137 9.131 36.683 10.184 48.888 5.508 63.863-4.629 14.827-1.865 11.816-116.103 126.5C36.894 390.897 9.745 418.743 7.783 422.5c-12.554 24.026-9.168 51.395 8.699 70.332C28.542 505.615 42.238 511.46 60 511.404c11.833-.037 16.257-1.036 27-6.098 7.337-3.457 9.826-5.852 114.5-110.199 114.667-114.309 111.699-111.583 126.452-116.163 15.058-4.676 26.406-3.759 61.857 4.998 30.418 7.514 36.142 8.462 50.691 8.395 19.599-.091 34.928-5.354 49.5-16.995 8.539-6.821 13.236-12.23 18.1-20.842 2.808-4.972 3.389-7.028 3.389-12 .001-7.051-2.057-11.226-7.832-15.894-3.565-2.882-4.407-3.106-11.657-3.106-7.237 0-8.098.228-11.657 3.089-2.114 1.7-4.908 4.995-6.209 7.325-5.945 10.641-17.885 17.915-30.867 18.805-9.663.662-16.056-.382-41.517-6.782-26.433-6.644-31.775-7.713-44.576-8.921-23.381-2.205-47.917 3.455-64.529 14.884-2.478 1.705-5.105 3.1-5.838 3.1-1.62 0-29.807-28.056-29.807-29.668 0-.628 2.032-4.439 4.516-8.467 9.511-15.427 13.71-31.145 13.72-51.365.007-15.492-1.438-24.333-8.748-53.5-6.829-27.251-7.876-33.505-7.218-43.111.882-12.863 7.592-24.212 17.975-30.4 2.779-1.656 6.448-4.735 8.154-6.843 2.877-3.554 3.101-4.397 3.101-11.646 0-7.25-.224-8.092-3.106-11.657-1.708-2.114-4.477-4.647-6.154-5.63-4.105-2.404-11.869-3.065-16.358-1.39zM358 26.555c-15.706 3.373-31.162 14.544-39.161 28.302-10.94 18.817-10.234 44.708 1.719 63.024 5.461 8.369 67.464 69.888 74.942 74.357 10.872 6.498 17.359 8.193 31.5 8.229 10.521.028 13.559-.333 19.19-2.279 14.584-5.039 27.185-16.057 33.865-29.611 9.09-18.444 9.033-35.753-.179-54.577-4.001-8.175-5.385-9.735-36.268-40.844-17.659-17.79-34.838-34.307-38.175-36.707-7.57-5.444-13.307-7.93-22.869-9.904-9.002-1.86-15.872-1.857-24.564.01zm4.5 40.014c-9.701 5.035-13.939 14.24-11.037 23.976 1.348 4.525 4.275 7.743 33.757 37.105 30.89 30.765 32.49 32.193 37.167 33.158 9.553 1.971 18.984-2.748 23.185-11.601 2.434-5.13 1.573-13.947-1.845-18.879-4.841-6.985-61.015-62.133-64.975-63.787-4.732-1.978-12.413-1.964-16.252.028zM135.781 347.75c-65.252 65.284-93.16 93.851-94.243 96.468-3.049 7.369-1.014 17.329 4.594 22.484 5.833 5.363 15.231 6.761 22.302 3.318 2.739-1.333 34.26-32.18 96.558-94.494l92.493-92.515-13.979-14.005c-7.689-7.703-14.214-14.006-14.5-14.006-.286 0-42.238 41.737-93.225 92.75z"/></svg><svg viewBox="0 0 20 21" id="check-exit" xmlns="http://www.w3.org/2000/svg"><path d="M15.833 10.5H4.167M10 16.333L4.167 10.5 10 4.667"/></svg><svg viewBox="0 0 24 24" id="del-1" xmlns="http://www.w3.org/2000/svg"><path d="M10 17h4V5H2v12h3M20 17h2v-3.34a4 4 0 00-1.17-2.83L19 9h-5M14 17h1"/><path d="M7.5 20a2.5 2.5 0 100-5 2.5 2.5 0 000 5zM17.5 20a2.5 2.5 0 100-5 2.5 2.5 0 000 5z"/></svg><svg viewBox="0 0 24 24" id="del-2" xmlns="http://www.w3.org/2000/svg"><path d="M20 8V5a1 1 0 00-1-1H5a1 1 0 00-1 1v3M4 12v7a1 1 0 001 1h14a1 1 0 001-1v-7"/><path d="M15 20v-3a1 1 0 00-1-1h-3a1 1 0 00-1 1v3M21 11V9a1 1 0 00-1-1H4a1 1 0 00-1 1v2c.167.667 1 2 3 2s2.833-1.333 3-2c.167.667 1 2 3 2s2.833-1.333 3-2c.167.667 1 2 3 2s2.833-1.333 3-2z"/></svg><svg viewBox="0 0 24 24" id="delivery-1" xmlns="http://www.w3.org/2000/svg"><path d="M10 17h4V5H2v12h3M20 17h2v-3.34a4 4 0 00-1.17-2.83L19 9h-5M14 17h1"/><path d="M7.5 20a2.5 2.5 0 100-5 2.5 2.5 0 000 5zM17.5 20a2.5 2.5 0 100-5 2.5 2.5 0 000 5z"/></svg><svg viewBox="0 0 24 24" id="delivery-2" xmlns="http://www.w3.org/2000/svg"><path d="M20 8V5a1 1 0 00-1-1H5a1 1 0 00-1 1v3M4 12v7a1 1 0 001 1h14a1 1 0 001-1v-7"/><path d="M15 20v-3a1 1 0 00-1-1h-3a1 1 0 00-1 1v3M21 11V9a1 1 0 00-1-1H4a1 1 0 00-1 1v2c.167.667 1 2 3 2s2.833-1.333 3-2c.167.667 1 2 3 2s2.833-1.333 3-2c.167.667 1 2 3 2s2.833-1.333 3-2z"/></svg><svg viewBox="0 0 24 24" id="exit" xmlns="http://www.w3.org/2000/svg"><path fill-rule="evenodd" clip-rule="evenodd" d="M5 4a1 1 0 00-1 1v14a1 1 0 001 1h4a1 1 0 110 2H5a3 3 0 01-3-3V5a3 3 0 013-3h4a1 1 0 010 2H5zM15.293 6.293a1 1 0 011.414 0l5 5a1 1 0 010 1.414l-5 5a1 1 0 01-1.414-1.414L19.586 12l-4.293-4.293a1 1 0 010-1.414z"/><path fill-rule="evenodd" clip-rule="evenodd" d="M8 12a1 1 0 011-1h12a1 1 0 110 2H9a1 1 0 01-1-1z"/></svg><svg viewBox="0 0 20 21" id="exit-checkout" xmlns="http://www.w3.org/2000/svg"><path d="M15.833 10.5H4.167M10 16.333L4.167 10.5 10 4.667"/></svg><svg viewBox="0 0 33 32" id="like" xmlns="http://www.w3.org/2000/svg"><path fill-rule="evenodd" clip-rule="evenodd" d="M7.1 3.308a8.533 8.533 0 019.318 1.858l.004.004.078.079.078-.079.004-.004a8.533 8.533 0 0112.088-.001c3.394 3.394 3.47 9.006-.552 13.102l-.008.01-10.667 10.666a1.333 1.333 0 01-1.886 0L4.882 18.267C.86 14.171.936 8.56 4.33 5.165A8.533 8.533 0 017.1 3.308zm3.273 2.014a5.867 5.867 0 00-4.155 1.726l-.002.001c-2.258 2.259-2.53 6.19.565 9.346l9.719 9.72 9.72-9.72c3.094-3.156 2.822-7.087.564-9.346l-.002-.001a5.865 5.865 0 00-8.309-.002l-.002.002-1.022 1.035a1.334 1.334 0 01-1.898 0L14.53 7.048l-.002-.002a5.865 5.865 0 00-4.154-1.724z"/></svg><svg viewBox="0 0 24 24" id="nav-sm-1" xmlns="http://www.w3.org/2000/svg"><path fill-rule="evenodd" clip-rule="evenodd" d="M5 4a1 1 0 00-1 1v14a1 1 0 001 1h4a1 1 0 110 2H5a3 3 0 01-3-3V5a3 3 0 013-3h4a1 1 0 010 2H5zM15.293 6.293a1 1 0 011.414 0l5 5a1 1 0 010 1.414l-5 5a1 1 0 01-1.414-1.414L19.586 12l-4.293-4.293a1 1 0 010-1.414z"/><path fill-rule="evenodd" clip-rule="evenodd" d="M8 12a1 1 0 011-1h12a1 1 0 110 2H9a1 1 0 01-1-1z"/></svg><svg viewBox="0 0 24 24" id="nav-sm-2" xmlns="http://www.w3.org/2000/svg"><path fill-rule="evenodd" clip-rule="evenodd" d="M5.464 15.464A5 5 0 019 14h6a5 5 0 015 5v2a1 1 0 11-2 0v-2a3 3 0 00-3-3H9a3 3 0 00-3 3v2a1 1 0 11-2 0v-2a5 5 0 011.464-3.536zM12 4a3 3 0 100 6 3 3 0 000-6zM7 7a5 5 0 1110 0A5 5 0 017 7z"/></svg><svg viewBox="0 0 24 24" id="nav-sm-3" xmlns="http://www.w3.org/2000/svg"><path fill-rule="evenodd" clip-rule="evenodd" d="M4.95 2.481a6.4 6.4 0 016.988 1.393l.004.003.058.06.058-.06.004-.003a6.4 6.4 0 019.066 0c2.545 2.545 2.601 6.754-.414 9.826l-.007.007-8 8a1 1 0 01-1.414 0l-8.007-8.006C.271 10.628.327 6.419 2.872 3.874A6.4 6.4 0 014.951 2.48zm2.455 1.51a4.4 4.4 0 00-3.117 1.295v.001c-1.695 1.694-1.898 4.642.423 7.01L12 19.585l7.29-7.29c2.32-2.367 2.117-5.315.423-7.009l-.001-.001a4.4 4.4 0 00-6.234 0l-.766.777a1 1 0 01-1.424 0l-.766-.777-.002-.002a4.4 4.4 0 00-3.115-1.292z"/></svg><svg viewBox="0 0 24 24" id="payment" xmlns="http://www.w3.org/2000/svg"><path d="M20 5H4a2 2 0 00-2 2v10a2 2 0 002 2h16a2 2 0 002-2V7a2 2 0 00-2-2zM2 10h20"/></svg><svg viewBox="0 0 20 20" id="payment-1" xmlns="http://www.w3.org/2000/svg"><path d="M10 15.833V4.167M4.167 10L10 4.167 15.833 10"/></svg><svg viewBox="0 0 24 24" id="payment-2" xmlns="http://www.w3.org/2000/svg"><mask id="va"><rect x="1" y="10" width="6" height="11" rx="1"/></mask><rect x="1" y="10" width="6" height="11" rx="1" mask="url(#va)"/><path d="M6 12h3l5 2c.667.333 2 1.4 2 3"/><path d="M11 16.5l2 .5h5c2.4 0 3 1.333 3 2l-7 2-8-2M21.9 2h-8.8c-.607 0-1.1.512-1.1 1.143v5.714c0 .631.492 1.143 1.1 1.143h8.8c.608 0 1.1-.512 1.1-1.143V3.143C23 2.512 22.508 2 21.9 2zM13 5h9"/></svg><svg viewBox="0 0 24 24" id="payment-3" xmlns="http://www.w3.org/2000/svg"><path d="M17 8V6a2 2 0 00-2-2H3a2 2 0 00-2 2v7a2 2 0 002 2h6M8 19v-3.96 3.15M4 19h5"/><path d="M21.9 11h-8.8c-.607 0-1.1.512-1.1 1.143v5.714c0 .631.492 1.143 1.1 1.143h8.8c.608 0 1.1-.512 1.1-1.143v-5.714c0-.631-.492-1.143-1.1-1.143zM13 14h9"/></svg><svg viewBox="0 0 24 24" id="payment-4" xmlns="http://www.w3.org/2000/svg"><path d="M20 5H4a2 2 0 00-2 2v10a2 2 0 002 2h16a2 2 0 002-2V7a2 2 0 00-2-2zM2 10h20"/></svg><svg viewBox="0 0 32 32" id="person" xmlns="http://www.w3.org/2000/svg"><path fill-rule="evenodd" clip-rule="evenodd" d="M7.286 20.62A6.666 6.666 0 0112 18.666h8a6.666 6.666 0 016.667 6.666V28A1.333 1.333 0 1124 28v-2.667a4 4 0 00-4-4h-8a4 4 0 00-4 4V28a1.333 1.333 0 11-2.667 0v-2.667c0-1.768.703-3.463 1.953-4.714zM16 5.333a4 4 0 100 8 4 4 0 000-8zm-6.667 4a6.667 6.667 0 1113.334 0 6.667 6.667 0 01-13.334 0z"/></svg></svg>