<svg width="33" height="32" viewBox="0 0 33 32" fill="none" xmlns="http://www.w3.org/2000/svg">
<path fill-rule="evenodd" clip-rule="evenodd" d="M7.10093 3.30807C8.13817 2.87737 9.25023 2.65567 10.3733 2.65567C11.4964 2.65567 12.6085 2.87737 13.6457 3.30807C14.683 3.73876 15.625 4.36998 16.4178 5.16551L16.4222 5.16996L16.5 5.24878L16.5778 5.16997L16.5822 5.16551C17.375 4.36998 18.317 3.73876 19.3543 3.30807C20.3915 2.87737 21.5036 2.65567 22.6267 2.65567C23.7498 2.65567 24.8618 2.87737 25.8991 3.30807C26.936 3.73862 27.8777 4.36954 28.6703 5.16469C32.0637 8.55894 32.1391 14.1711 28.1182 18.2674L28.1095 18.2762L17.4428 28.9428C17.1928 29.1929 16.8536 29.3333 16.5 29.3333C16.1464 29.3333 15.8072 29.1929 15.5572 28.9428L4.88178 18.2674C0.86085 14.1712 0.936344 8.55894 4.32972 5.16468C5.12232 4.36954 6.06405 3.73861 7.10093 3.30807ZM10.3733 5.32234C9.6012 5.32234 8.83666 5.47476 8.12356 5.77086C7.41045 6.06696 6.76281 6.50092 6.21778 7.04785L6.21614 7.04949C3.95799 9.30764 3.68634 13.239 6.78069 16.3951L16.5 26.1144L26.2193 16.3951C29.3137 13.239 29.042 9.30765 26.7839 7.04949L26.7822 7.04785C26.2372 6.50092 25.5896 6.06696 24.8764 5.77086C24.1633 5.47476 23.3988 5.32234 22.6267 5.32234C21.8545 5.32234 21.09 5.47476 20.3769 5.77086C19.6647 6.06657 19.0179 6.49978 18.4733 7.04569C18.4725 7.04641 18.4718 7.04713 18.4711 7.04785L17.4489 8.08339C17.1983 8.33717 16.8566 8.48001 16.5 8.48001C16.1434 8.48001 15.8017 8.33717 15.5511 8.08339L14.5289 7.04785C14.5282 7.04713 14.5275 7.04641 14.5267 7.04569C13.9822 6.49978 13.3353 6.06657 12.6231 5.77086C11.91 5.47476 11.1455 5.32234 10.3733 5.32234Z" fill="#222222"/>
</svg>
