<svg width="20" height="20" viewBox="0 0 20 20" fill="none" xmlns="http://www.w3.org/2000/svg">
<path fill-rule="evenodd" clip-rule="evenodd" d="M4.12555 2.06742C4.77382 1.79823 5.46886 1.65967 6.1708 1.65967C6.87275 1.65967 7.56778 1.79823 8.21606 2.06742C8.86433 2.3366 9.4531 2.73111 9.94858 3.22832L9.95135 3.2311L9.99997 3.28036L10.0486 3.23111L10.0514 3.22832C10.5468 2.73111 11.1356 2.3366 11.7839 2.06742C12.4322 1.79823 13.1272 1.65967 13.8291 1.65967C14.5311 1.65967 15.2261 1.79823 15.8744 2.06742C16.5224 2.33651 17.111 2.73084 17.6064 3.22781C19.7273 5.34921 19.7744 8.85684 17.2613 11.417L17.2559 11.4225L10.5892 18.0891C10.4329 18.2454 10.221 18.3332 9.99997 18.3332C9.77896 18.3332 9.567 18.2454 9.41072 18.0891L2.73858 11.417C0.225501 8.85686 0.272684 5.34921 2.39354 3.2278C2.88892 2.73084 3.4775 2.33651 4.12555 2.06742ZM6.1708 3.32633C5.68822 3.32633 5.21038 3.4216 4.76469 3.60666C4.319 3.79173 3.91423 4.06295 3.57358 4.40478L3.57256 4.40581C2.16121 5.81715 1.99143 8.27426 3.9254 10.2468L9.99997 16.3214L16.0745 10.2468C18.0085 8.27427 17.8387 5.81715 16.4274 4.40581L16.4264 4.40478C16.0857 4.06295 15.6809 3.79173 15.2353 3.60666C14.7896 3.4216 14.3117 3.32633 13.8291 3.32633C13.3466 3.32633 12.8687 3.4216 12.423 3.60666C11.9779 3.79148 11.5736 4.06224 11.2333 4.40343C11.2328 4.40388 11.2324 4.40433 11.2319 4.40478L10.593 5.05199C10.4364 5.2106 10.2228 5.29988 9.99997 5.29988C9.77709 5.29988 9.5635 5.2106 9.40693 5.05199L8.76803 4.40478C8.76758 4.40433 8.76713 4.40388 8.76668 4.40343C8.42632 4.06224 8.02202 3.79148 7.57692 3.60666C7.13123 3.4216 6.65339 3.32633 6.1708 3.32633Z" fill="#E91E63"/>
</svg>
