<svg width="24" height="24" viewBox="0 0 24 24" fill="none" xmlns="http://www.w3.org/2000/svg">
<path fill-rule="evenodd" clip-rule="evenodd" d="M4.9507 2.48106C5.72863 2.15804 6.56267 1.99176 7.405 1.99176C8.24733 1.99176 9.08138 2.15804 9.85931 2.48106C10.6372 2.80408 11.3438 3.27749 11.9383 3.87414L11.9417 3.87748L12 3.93659L12.0583 3.87749L12.0617 3.87414C12.6563 3.27749 13.3628 2.80408 14.1407 2.48106C14.9186 2.15804 15.7527 1.99176 16.595 1.99176C17.4373 1.99176 18.2714 2.15804 19.0493 2.48106C19.827 2.80397 20.5333 3.27717 21.1277 3.87353C23.6727 6.41922 23.7293 10.6284 20.7136 13.7005L20.7071 13.7072L12.7071 21.7071C12.5196 21.8947 12.2652 22 12 22C11.7348 22 11.4804 21.8947 11.2929 21.7071L3.28634 13.7006C0.270638 10.6284 0.327258 6.41921 2.87229 3.87352C3.46674 3.27716 4.17303 2.80397 4.9507 2.48106ZM7.405 3.99176C6.8259 3.99176 6.25249 4.10608 5.71767 4.32815C5.18284 4.55023 4.69711 4.8757 4.28833 5.2859L4.28711 5.28713C2.59349 6.98074 2.38976 9.92928 4.71052 12.2963L12 19.5858L19.2895 12.2963C21.6102 9.92929 21.4065 6.98074 19.7129 5.28713L19.7117 5.2859C19.3029 4.8757 18.8172 4.55023 18.2823 4.32815C17.7475 4.10608 17.1741 3.99176 16.595 3.99176C16.0159 3.99176 15.4425 4.10608 14.9077 4.32815C14.3735 4.54994 13.8884 4.87484 13.4799 5.28428C13.4794 5.28482 13.4789 5.28536 13.4783 5.2859L12.7117 6.06255C12.5238 6.25288 12.2675 6.36002 12 6.36002C11.7325 6.36002 11.4762 6.25288 11.2883 6.06255L10.5217 5.2859C10.5211 5.28536 10.5206 5.28482 10.5201 5.28428C10.1116 4.87484 9.62646 4.54994 9.09234 4.32815C8.55751 4.10608 7.9841 3.99176 7.405 3.99176Z" fill="#222222"/>
</svg>
