<svg width="18" height="20" viewBox="0 0 18 20" fill="none" xmlns="http://www.w3.org/2000/svg">
<rect x="0.611328" y="3.5" width="16" height="16" rx="1.5" stroke="#555555" stroke-opacity="0.1"/>
<path d="M12.3423 10.7744V12.5176C12.3423 13.3525 12.2593 14.0654 12.0933 14.6562C11.9321 15.2422 11.6978 15.7183 11.3901 16.0845C11.0825 16.4507 10.7139 16.7192 10.2842 16.8901C9.85938 17.061 9.3833 17.1465 8.85596 17.1465C8.43604 17.1465 8.04541 17.0928 7.68408 16.9854C7.32764 16.8779 7.00537 16.7095 6.71729 16.48C6.4292 16.2505 6.18262 15.9551 5.97754 15.5938C5.77734 15.2275 5.62109 14.7905 5.50879 14.2827C5.40137 13.7749 5.34766 13.1865 5.34766 12.5176V10.7744C5.34766 9.93457 5.43066 9.22656 5.59668 8.65039C5.7627 8.06934 5.99951 7.59814 6.30713 7.23682C6.61475 6.87061 6.98096 6.60449 7.40576 6.43848C7.83545 6.27246 8.31396 6.18945 8.84131 6.18945C9.26611 6.18945 9.65674 6.24316 10.0132 6.35059C10.3745 6.45312 10.6968 6.6167 10.98 6.84131C11.2681 7.06592 11.5122 7.35889 11.7124 7.72021C11.9175 8.07666 12.0737 8.50879 12.1812 9.0166C12.2886 9.51953 12.3423 10.1055 12.3423 10.7744ZM10.5771 12.7666V10.5107C10.5771 10.0859 10.5527 9.7124 10.5039 9.39014C10.4551 9.06299 10.3818 8.78711 10.2842 8.5625C10.1914 8.33301 10.0742 8.14746 9.93262 8.00586C9.79102 7.85938 9.62988 7.75439 9.44922 7.69092C9.26855 7.62256 9.06592 7.58838 8.84131 7.58838C8.56787 7.58838 8.32373 7.64209 8.10889 7.74951C7.89404 7.85205 7.71338 8.01807 7.56689 8.24756C7.42041 8.47705 7.30811 8.77979 7.22998 9.15576C7.15674 9.52686 7.12012 9.97852 7.12012 10.5107V12.7666C7.12012 13.1963 7.14453 13.5747 7.19336 13.9019C7.24219 14.229 7.31543 14.5098 7.41309 14.7441C7.51074 14.9736 7.62793 15.1641 7.76465 15.3154C7.90625 15.4619 8.06738 15.5693 8.24805 15.6377C8.43359 15.7061 8.63623 15.7402 8.85596 15.7402C9.13428 15.7402 9.38086 15.6865 9.5957 15.5791C9.81055 15.4717 9.99121 15.3008 10.1377 15.0664C10.2842 14.8271 10.394 14.5171 10.4673 14.1362C10.5405 13.7554 10.5771 13.2988 10.5771 12.7666Z" fill="#555555" fill-opacity="0.2"/>
</svg>
