<svg width="24" height="24" viewBox="0 0 24 24" fill="none" xmlns="http://www.w3.org/2000/svg">
<path d="M14 16.5L11 17.5C11 17.5 3.5 16 2.5 16C1.5 16 1.5 17 2.5 18C3.5 19 7 22 10 22C13 22 15 20.5 17 20.5H22" stroke="#E91E63" stroke-width="2" stroke-linecap="round" stroke-linejoin="round"/>
<path d="M22 14.5C21 13.5 19 12 17 12C15 12 10.25 14 9.5 15C8.75 16 11 17.5 11 17.5" stroke="#E91E63" stroke-width="2" stroke-linecap="round" stroke-linejoin="round"/>
<circle cx="5" cy="5" r="4" transform="matrix(-1 0 0 1 12 2)" stroke="#E91E63" stroke-width="2"/>
</svg>
