<svg width="25" height="24" viewBox="0 0 25 24" fill="none" xmlns="http://www.w3.org/2000/svg">
<path d="M20.334 6H4.33398C3.22941 6 2.33398 6.89543 2.33398 8V16C2.33398 17.1046 3.22941 18 4.33398 18H20.334C21.4386 18 22.334 17.1046 22.334 16V8C22.334 6.89543 21.4386 6 20.334 6Z" stroke="#919191" stroke-width="2" stroke-linecap="round" stroke-linejoin="round"/>
<path d="M12.334 14C13.4386 14 14.334 13.1046 14.334 12C14.334 10.8954 13.4386 10 12.334 10C11.2294 10 10.334 10.8954 10.334 12C10.334 13.1046 11.2294 14 12.334 14Z" stroke="#919191" stroke-width="2" stroke-linecap="round" stroke-linejoin="round"/>
<path d="M6.33398 12H6.34398M18.334 12H18.344" stroke="#919191" stroke-width="2" stroke-linecap="round" stroke-linejoin="round"/>
</svg>
