<svg width="24" height="24" viewBox="0 0 24 24" fill="none" xmlns="http://www.w3.org/2000/svg">
<mask id="path-1-inside-1_1525_2773" fill="white">
<rect x="1.00049" y="10" width="6" height="11" rx="1"/>
</mask>
<rect x="1.00049" y="10" width="6" height="11" rx="1" stroke="#E91E63" stroke-width="4" mask="url(#path-1-inside-1_1525_2773)"/>
<path d="M6 12H9L14 14C14.6667 14.3333 16 15.4 16 17" stroke="#E91E63" stroke-width="2"/>
<path d="M11 16.5L13 17C13.6667 17 15.6 17 18 17C20.4 17 21 18.3333 21 19L14 21L6 19" stroke="#E91E63" stroke-width="2"/>
<path d="M21.9 2H13.1C12.4925 2 12 2.51167 12 3.14286V8.85714C12 9.48833 12.4925 10 13.1 10H21.9C22.5075 10 23 9.48833 23 8.85714V3.14286C23 2.51167 22.5075 2 21.9 2Z" stroke="#E91E63" stroke-width="2" stroke-linecap="round" stroke-linejoin="round"/>
<path d="M13.0005 5L22.0005 5" stroke="#E91E63" stroke-width="2" stroke-linecap="round" stroke-linejoin="round"/>
</svg>
