<svg width="24" height="24" viewBox="0 0 24 24" fill="none" xmlns="http://www.w3.org/2000/svg">
<path d="M19.9995 6H3.99951C2.89494 6 1.99951 6.89543 1.99951 8V16C1.99951 17.1046 2.89494 18 3.99951 18H19.9995C21.1041 18 21.9995 17.1046 21.9995 16V8C21.9995 6.89543 21.1041 6 19.9995 6Z" stroke="#E91E63" stroke-width="2" stroke-linecap="round" stroke-linejoin="round"/>
<path d="M12.0005 14C13.1051 14 14.0005 13.1046 14.0005 12C14.0005 10.8954 13.1051 10 12.0005 10C10.8959 10 10.0005 10.8954 10.0005 12C10.0005 13.1046 10.8959 14 12.0005 14Z" stroke="#E91E63" stroke-width="2" stroke-linecap="round" stroke-linejoin="round"/>
<path d="M6 12H6.01M18 12H18.01" stroke="#E91E63" stroke-width="2" stroke-linecap="round" stroke-linejoin="round"/>
</svg>
