<svg width="24" height="24" viewBox="0 0 24 24" fill="none" xmlns="http://www.w3.org/2000/svg">
<path d="M17.0005 8V6C17.0005 5.46957 16.7898 4.96086 16.4147 4.58579C16.0396 4.21071 15.5309 4 15.0005 4H3.00049C2.47006 4 1.96135 4.21071 1.58627 4.58579C1.2112 4.96086 1.00049 5.46957 1.00049 6V13C1.00049 13.5304 1.2112 14.0391 1.58627 14.4142C1.96135 14.7893 2.47006 15 3.00049 15H9.00049" stroke="#E91E63" stroke-width="2" stroke-linecap="round" stroke-linejoin="round"/>
<path d="M7.99951 19V15.04V18.19" stroke="#E91E63" stroke-width="2" stroke-linecap="round" stroke-linejoin="round"/>
<path d="M4.00049 19H9.00049" stroke="#E91E63" stroke-width="2" stroke-linecap="round" stroke-linejoin="round"/>
<path d="M21.9 11H13.1C12.4925 11 12 11.5117 12 12.1429V17.8571C12 18.4883 12.4925 19 13.1 19H21.9C22.5075 19 23 18.4883 23 17.8571V12.1429C23 11.5117 22.5075 11 21.9 11Z" stroke="#E91E63" stroke-width="2" stroke-linecap="round" stroke-linejoin="round"/>
<path d="M13.0005 14L22.0005 14" stroke="#E91E63" stroke-width="2" stroke-linecap="round" stroke-linejoin="round"/>
</svg>
