<svg width="20" height="20" viewBox="0 0 20 20" fill="none" xmlns="http://www.w3.org/2000/svg">
<path fill-rule="evenodd" clip-rule="evenodd" d="M4.55437 12.8871C5.33577 12.1057 6.39558 11.6667 7.50065 11.6667H12.5007C13.6057 11.6667 14.6655 12.1057 15.4469 12.8871C16.2283 13.6685 16.6673 14.7283 16.6673 15.8334V17.5C16.6673 17.9603 16.2942 18.3334 15.834 18.3334C15.3737 18.3334 15.0007 17.9603 15.0007 17.5V15.8334C15.0007 15.1703 14.7373 14.5344 14.2684 14.0656C13.7996 13.5967 13.1637 13.3334 12.5007 13.3334H7.50065C6.83761 13.3334 6.20173 13.5967 5.73288 14.0656C5.26404 14.5344 5.00065 15.1703 5.00065 15.8334V17.5C5.00065 17.9603 4.62755 18.3334 4.16732 18.3334C3.70708 18.3334 3.33398 17.9603 3.33398 17.5V15.8334C3.33398 14.7283 3.77297 13.6685 4.55437 12.8871Z" fill="#555555"/>
<path fill-rule="evenodd" clip-rule="evenodd" d="M10.0007 3.33335C8.61994 3.33335 7.50065 4.45264 7.50065 5.83335C7.50065 7.21407 8.61994 8.33335 10.0007 8.33335C11.3814 8.33335 12.5007 7.21407 12.5007 5.83335C12.5007 4.45264 11.3814 3.33335 10.0007 3.33335ZM5.83398 5.83335C5.83398 3.53217 7.69946 1.66669 10.0007 1.66669C12.3018 1.66669 14.1673 3.53217 14.1673 5.83335C14.1673 8.13454 12.3018 10 10.0007 10C7.69946 10 5.83398 8.13454 5.83398 5.83335Z" fill="#555555"/>
</svg>
