<svg width="32" height="32" viewBox="0 0 32 32" fill="none" xmlns="http://www.w3.org/2000/svg">
<path fill-rule="evenodd" clip-rule="evenodd" d="M7.286 20.6193C8.53624 19.369 10.2319 18.6667 12 18.6667H20C21.7682 18.6667 23.4638 19.369 24.7141 20.6193C25.9643 21.8695 26.6667 23.5652 26.6667 25.3333V28C26.6667 28.7364 26.0698 29.3333 25.3334 29.3333C24.597 29.3333 24 28.7364 24 28V25.3333C24 24.2725 23.5786 23.255 22.8285 22.5049C22.0783 21.7548 21.0609 21.3333 20 21.3333H12C10.9392 21.3333 9.92176 21.7548 9.17161 22.5049C8.42147 23.255 8.00004 24.2725 8.00004 25.3333V28C8.00004 28.7364 7.40309 29.3333 6.66671 29.3333C5.93033 29.3333 5.33337 28.7364 5.33337 28V25.3333C5.33337 23.5652 6.03575 21.8695 7.286 20.6193Z" fill="#222222"/>
<path fill-rule="evenodd" clip-rule="evenodd" d="M16 5.33332C13.7909 5.33332 12 7.12418 12 9.33332C12 11.5425 13.7909 13.3333 16 13.3333C18.2092 13.3333 20 11.5425 20 9.33332C20 7.12418 18.2092 5.33332 16 5.33332ZM9.33337 9.33332C9.33337 5.65142 12.3181 2.66666 16 2.66666C19.6819 2.66666 22.6667 5.65142 22.6667 9.33332C22.6667 13.0152 19.6819 16 16 16C12.3181 16 9.33337 13.0152 9.33337 9.33332Z" fill="#222222"/>
</svg>
