<svg width="20" height="20" viewBox="0 0 20 20" fill="none" xmlns="http://www.w3.org/2000/svg">
<path fill-rule="evenodd" clip-rule="evenodd" d="M4.12567 2.06754C4.77395 1.79836 5.46898 1.65979 6.17093 1.65979C6.87287 1.65979 7.5679 1.79836 8.21618 2.06754C8.86446 2.33672 9.45322 2.73123 9.9487 3.22844L9.95148 3.23122L10.0001 3.28048L10.0487 3.23123L10.0515 3.22844C10.547 2.73123 11.1357 2.33672 11.784 2.06754C12.4323 1.79836 13.1273 1.65979 13.8293 1.65979C14.5312 1.65979 15.2262 1.79836 15.8745 2.06754C16.5226 2.33663 17.1111 2.73096 17.6065 3.22793C19.7274 5.34934 19.7745 8.85696 17.2615 11.4171L17.256 11.4226L10.5893 18.0893C10.4331 18.2455 10.2211 18.3333 10.0001 18.3333C9.77908 18.3333 9.56712 18.2455 9.41084 18.0893L2.7387 11.4171C0.225623 8.85699 0.272807 5.34933 2.39366 3.22792C2.88904 2.73096 3.47762 2.33663 4.12567 2.06754ZM6.17093 3.32646C5.68834 3.32646 5.2105 3.42172 4.76481 3.60678C4.31912 3.79185 3.91435 4.06307 3.5737 4.4049L3.57268 4.40593C2.16134 5.81727 1.99156 8.27439 3.92552 10.2469L10.0001 16.3215L16.0747 10.2469C18.0086 8.2744 17.8389 5.81728 16.4275 4.40593L16.4265 4.4049C16.0858 4.06307 15.6811 3.79185 15.2354 3.60678C14.7897 3.42172 14.3118 3.32646 13.8293 3.32646C13.3467 3.32646 12.8688 3.42172 12.4231 3.60678C11.978 3.79161 11.5737 4.06236 11.2334 4.40356C11.2329 4.404 11.2325 4.40445 11.232 4.4049L10.5931 5.05211C10.4366 5.21073 10.223 5.30001 10.0001 5.30001C9.77722 5.30001 9.56363 5.21073 9.40705 5.05211L8.76815 4.4049C8.7677 4.40445 8.76725 4.404 8.7668 4.40356C8.42644 4.06236 8.02214 3.79161 7.57704 3.60678C7.13135 3.42172 6.65351 3.32646 6.17093 3.32646Z" fill="#E91E63"/>
</svg>
