<svg width="20" height="20" viewBox="0 0 20 20" fill="none" xmlns="http://www.w3.org/2000/svg">
<path fill-rule="evenodd" clip-rule="evenodd" d="M16.667 6.66667H3.33366V17.5H16.667V6.66667ZM1.66699 5V17.5C1.66699 18.4205 2.41318 19.1667 3.33366 19.1667H16.667C17.5875 19.1667 18.3337 18.4205 18.3337 17.5V5H1.66699Z" fill="white"/>
<path fill-rule="evenodd" clip-rule="evenodd" d="M5 4.72238C5 2.57461 6.49238 0.833496 8.33333 0.833496H11.6667C13.5076 0.833496 15 2.57461 15 4.72238V6.66683H13.3333V4.50016C13.3333 3.39559 12.4379 2.50016 11.3333 2.50016H8.66667C7.5621 2.50016 6.66667 3.39559 6.66667 4.50016V6.66683H5V4.72238Z" fill="white"/>
<path fill-rule="evenodd" clip-rule="evenodd" d="M13.9438 9.38063C14.0144 9.44833 14.0703 9.52876 14.1085 9.61731C14.1467 9.70585 14.1663 9.80078 14.1663 9.89665C14.1663 9.99252 14.1467 10.0874 14.1085 10.176C14.0703 10.2645 14.0144 10.345 13.9438 10.4127L9.39964 14.7857C9.32929 14.8536 9.24571 14.9074 9.1537 14.9442C9.06169 14.9809 8.96305 14.9998 8.86343 14.9998C8.76381 14.9998 8.66517 14.9809 8.57315 14.9442C8.48114 14.9074 8.39757 14.8536 8.32721 14.7857L6.05512 12.5992C5.9847 12.5314 5.92884 12.451 5.89073 12.3624C5.85262 12.2739 5.83301 12.179 5.83301 12.0832C5.83301 11.9873 5.85262 11.8924 5.89073 11.8039C5.92884 11.7154 5.9847 11.6349 6.05512 11.5672C6.19733 11.4303 6.39021 11.3534 6.59133 11.3534C6.69091 11.3534 6.78952 11.3723 6.88153 11.409C6.97353 11.4456 7.05713 11.4994 7.12755 11.5672L8.86343 13.2391L12.8714 9.38063C12.9418 9.31275 13.0253 9.2589 13.1173 9.22216C13.2094 9.18542 13.308 9.1665 13.4076 9.1665C13.5072 9.1665 13.6059 9.18542 13.6979 9.22216C13.7899 9.2589 13.8735 9.31275 13.9438 9.38063Z" fill="white"/>
</svg>
