<svg width="15" height="30" viewBox="0 0 15 30" fill="none" xmlns="http://www.w3.org/2000/svg">
<path d="M13.5968 29.8092L0.130283 15.3562C0.0829074 15.3053 0.0494286 15.2502 0.0298467 15.1908C0.00994888 15.1315 0 15.0679 0 15C0 14.9321 0.00994888 14.8685 0.0298467 14.8092C0.0494286 14.7498 0.0829074 14.6947 0.130283 14.6438L13.5968 0.178117C13.7074 0.0593725 13.8455 0 14.0113 0C14.1772 0 14.3193 0.0636132 14.4377 0.19084C14.5562 0.318066 14.6154 0.466497 14.6154 0.636132C14.6154 0.805768 14.5562 0.954198 14.4377 1.08142L1.48049 15L14.4377 28.9186C14.5483 29.0373 14.6035 29.1835 14.6035 29.3573C14.6035 29.5313 14.5443 29.6819 14.4259 29.8092C14.3074 29.9364 14.1693 30 14.0113 30C13.8534 30 13.7152 29.9364 13.5968 29.8092Z" fill="white"/>
</svg>
