<svg width="15" height="30" viewBox="0 0 15 30" fill="none" xmlns="http://www.w3.org/2000/svg">
<path d="M1.40319 29.8092L14.8697 15.3562C14.9171 15.3053 14.9506 15.2502 14.9702 15.1908C14.9901 15.1315 15 15.0679 15 15C15 14.9321 14.9901 14.8685 14.9702 14.8092C14.9506 14.7498 14.9171 14.6947 14.8697 14.6438L1.40319 0.178117C1.29265 0.0593725 1.15447 0 0.988653 0C0.822839 0 0.680712 0.0636132 0.562273 0.19084C0.443834 0.318066 0.384615 0.466497 0.384615 0.636132C0.384615 0.805768 0.443834 0.954198 0.562273 1.08142L13.5195 15L0.562273 28.9186C0.45173 29.0373 0.396458 29.1835 0.396458 29.3573C0.396458 29.5313 0.455678 29.6819 0.574117 29.8092C0.692555 29.9364 0.830734 30 0.988653 30C1.14657 30 1.28475 29.9364 1.40319 29.8092Z" fill="white"/>
</svg>
