<svg width="20" height="20" viewBox="0 0 20 20" fill="none" xmlns="http://www.w3.org/2000/svg">
<path fill-rule="evenodd" clip-rule="evenodd" d="M1.91058 13.5774C2.23602 13.252 2.76366 13.252 3.08909 13.5774L5.83317 16.3215L8.57725 13.5774C8.90268 13.252 9.43032 13.252 9.75576 13.5774C10.0812 13.9028 10.0812 14.4305 9.75576 14.7559L6.42243 18.0893C6.09699 18.4147 5.56935 18.4147 5.24391 18.0893L1.91058 14.7559C1.58514 14.4305 1.58514 13.9028 1.91058 13.5774Z" fill="#222222"/>
<path fill-rule="evenodd" clip-rule="evenodd" d="M5.83333 6.66667C6.29357 6.66667 6.66667 7.03976 6.66667 7.5V17.5C6.66667 17.9602 6.29357 18.3333 5.83333 18.3333C5.3731 18.3333 5 17.9602 5 17.5V7.5C5 7.03976 5.3731 6.66667 5.83333 6.66667Z" fill="#222222"/>
<path fill-rule="evenodd" clip-rule="evenodd" d="M13.5774 1.91074C13.9028 1.58531 14.4305 1.58531 14.7559 1.91074L18.0893 5.24408C18.4147 5.56952 18.4147 6.09715 18.0893 6.42259C17.7638 6.74803 17.2362 6.74803 16.9107 6.42259L14.1667 3.67851L11.4226 6.42259C11.0972 6.74803 10.5695 6.74803 10.2441 6.42259C9.91864 6.09715 9.91864 5.56952 10.2441 5.24408L13.5774 1.91074Z" fill="#222222"/>
<path fill-rule="evenodd" clip-rule="evenodd" d="M14.1668 1.66667C14.6271 1.66667 15.0002 2.03976 15.0002 2.5V12.5C15.0002 12.9602 14.6271 13.3333 14.1668 13.3333C13.7066 13.3333 13.3335 12.9602 13.3335 12.5V2.5C13.3335 2.03976 13.7066 1.66667 14.1668 1.66667Z" fill="#222222"/>
</svg>
