<svg width="16" height="16" viewBox="0 0 16 16" fill="none" xmlns="http://www.w3.org/2000/svg">
<path fill-rule="evenodd" clip-rule="evenodd" d="M8.00035 0.666687C8.25409 0.666687 8.48584 0.810735 8.59815 1.03827L10.5032 4.89766L14.7634 5.52036C15.0145 5.55706 15.2229 5.73306 15.3012 5.9744C15.3794 6.21574 15.3139 6.48057 15.1322 6.65759L12.05 9.6596L12.7774 13.9007C12.8203 14.1508 12.7175 14.4036 12.5122 14.5527C12.3068 14.7019 12.0347 14.7215 11.81 14.6034L8.00035 12.5999L4.19065 14.6034C3.96604 14.7215 3.69384 14.7019 3.48852 14.5527C3.2832 14.4036 3.18037 14.1508 3.22327 13.9007L3.95066 9.6596L0.868523 6.65759C0.686778 6.48057 0.621262 6.21574 0.699514 5.9744C0.777766 5.73306 0.986219 5.55706 1.23726 5.52036L5.4975 4.89766L7.40254 1.03827C7.51485 0.810735 7.7466 0.666687 8.00035 0.666687Z" fill="#E91E63"/>
</svg>
