<svg width="16" height="15" viewBox="0 0 16 15" fill="none" xmlns="http://www.w3.org/2000/svg">
<path fill-rule="evenodd" clip-rule="evenodd" d="M7.99998 0.166687C8.25373 0.166687 8.48547 0.310735 8.59778 0.538271L10.5028 4.39766L14.7631 5.02036C15.0141 5.05706 15.2226 5.23306 15.3008 5.4744C15.3791 5.71574 15.3135 5.98057 15.1318 6.15759L12.0497 9.1596L12.7771 13.4007C12.82 13.6508 12.7171 13.9036 12.5118 14.0527C12.3065 14.2019 12.0343 14.2215 11.8097 14.1034L7.99998 12.0999L4.19028 14.1034C3.96567 14.2215 3.69347 14.2019 3.48816 14.0527C3.28284 13.9036 3.18001 13.6508 3.22291 13.4007L3.9503 9.1596L0.868157 6.15759C0.686411 5.98057 0.620896 5.71574 0.699148 5.4744C0.7774 5.23306 0.985853 5.05706 1.23689 5.02036L5.49714 4.39766L7.40217 0.538271C7.51449 0.310735 7.74623 0.166687 7.99998 0.166687Z" fill="#E91E63"/>
</svg>
