<svg width="24" height="24" viewBox="0 0 24 24" fill="none" xmlns="http://www.w3.org/2000/svg">
<path fill-rule="evenodd" clip-rule="evenodd" d="M20 8H4V21H20V8ZM2 6V21C2 22.1046 2.89543 23 4 23H20C21.1046 23 22 22.1046 22 21V6H2Z" fill="#E91E63"/>
<path fill-rule="evenodd" clip-rule="evenodd" d="M6 5.66667C6 3.08934 7.79086 1 10 1H14C16.2091 1 18 3.08934 18 5.66667V8H16V5C16 3.89543 15.1046 3 14 3H10C8.89543 3 8 3.89543 8 5V8H6V5.66667Z" fill="#E91E63"/>
<path fill-rule="evenodd" clip-rule="evenodd" d="M16.733 11.2569C16.8176 11.3382 16.8848 11.4347 16.9306 11.541C16.9764 11.6472 17 11.7611 17 11.8762C17 11.9912 16.9764 12.1051 16.9306 12.2114C16.8848 12.3176 16.8176 12.4142 16.733 12.4954L11.28 17.7431C11.1955 17.8245 11.0952 17.8891 10.9848 17.9332C10.8744 17.9773 10.756 18 10.6365 18C10.517 18 10.3986 17.9773 10.2882 17.9332C10.1778 17.8891 10.0775 17.8245 9.99305 17.7431L7.26653 15.1192C7.18203 15.0379 7.115 14.9414 7.06927 14.8351C7.02354 14.7289 7 14.615 7 14.5C7 14.385 7.02354 14.2711 7.06927 14.1649C7.115 14.0586 7.18203 13.9621 7.26653 13.8808C7.43718 13.7165 7.66864 13.6243 7.90999 13.6243C8.02949 13.6243 8.14782 13.6469 8.25822 13.6909C8.36863 13.735 8.46895 13.7995 8.55345 13.8808L10.6365 15.8871L15.4461 11.2569C15.5305 11.1755 15.6308 11.1109 15.7412 11.0668C15.8516 11.0227 15.97 11 16.0895 11C16.2091 11 16.3274 11.0227 16.4379 11.0668C16.5483 11.1109 16.6486 11.1755 16.733 11.2569Z" fill="#E91E63"/>
</svg>
