<svg width="360" height="240" viewBox="0 0 360 240" fill="none" xmlns="http://www.w3.org/2000/svg">
<path d="M-36.8003 240.207H364.487V-18.1283H-36.8003V240.207Z" fill="white"/>
<path d="M364.486 56.33C347.877 51.1492 330.891 48.8517 313.668 51.8949C280.74 57.7137 253.581 82.1156 229.368 106.496C205.043 130.99 180.151 157.537 148.467 168.637C119.685 178.72 89.6492 174.487 60.6169 173.132C31.8579 171.789 0.569561 174.325 -23.154 194.399C-26.852 197.529 -30.259 200.998 -33.4958 204.674L-36.8003 240.207H364.486V56.33Z" fill="#E2F3F1"/>
<path d="M-7 -3V87C10.839 71.2349 32.2263 59.6154 55.1426 53.7551C80.1269 47.3656 106.903 47.4238 130.333 36.5203C147.323 28.6129 161.891 14.3864 169 -3H-7Z" fill="#E2F3F1"/>
<path d="M364.486 67.7361C348.071 62.2123 331.18 59.4884 314.011 62.0343C281.011 66.9272 254.147 90.3787 230.368 113.778C206.589 137.176 182.435 162.432 150.705 172.737C121.77 182.134 90.4716 177.791 60.0902 176.201C29.7094 174.611 -3.305 176.78 -26.7508 196.166C-30.4 199.183 -33.7026 202.531 -36.8003 206.077V240.207H364.486V67.7361Z" fill="#FF82AE"/>
<path d="M-7 -3V72C11.6497 58.8623 34.0091 49.1799 57.9673 44.2956C84.088 38.9713 112.081 39.0203 136.575 29.9338C154.338 23.3436 169.568 11.4887 177 -3H-7Z" fill="#FF82AE"/>
<path d="M177.603 229.987C112.653 229.987 60 218.632 60 209.831C60 207.253 64.5197 205.18 72.5434 203.537V206.55C72.5434 208.501 74.1248 210.083 76.0762 210.083H122.145C122.387 217.441 128.428 223.331 135.844 223.331H165.591H192.253H222.001C229.417 223.331 235.457 217.441 235.699 210.083H276.282H279.562C281.513 210.083 283.095 208.501 283.095 206.55V203.627C290.849 205.255 295.205 207.299 295.205 209.831C295.205 218.632 242.553 229.987 177.603 229.987Z" fill="#EF81A7"/>
<path d="M279.562 137.949H76.0761C74.1248 137.949 72.5433 139.531 72.5433 141.482V206.55C72.5433 208.501 74.1248 210.083 76.0761 210.083H177.819H279.562C281.513 210.083 283.095 208.501 283.095 206.55V141.482C283.095 139.531 281.513 137.949 279.562 137.949Z" fill="#7C1937"/>
<path d="M164.335 183.979L145.172 124.642C145.172 124.642 231.644 90.9334 285.887 85.7859L296.524 146.03C296.524 146.03 239.167 157.15 164.335 183.979Z" fill="#3798A9"/>
<path d="M289.275 135.335L282.713 98.1656C278.979 98.723 275.473 96.2085 274.827 92.4894C234.038 98.7019 180.675 117.192 158.018 125.472C159.171 129.032 157.302 132.86 153.789 134.147L165.498 170.404C169.185 169.124 173.197 171.128 174.403 174.839C223.986 157.719 264.895 147.642 283.963 143.332C283.313 139.675 285.653 136.157 289.275 135.335Z" fill="#54C3CE"/>
<path d="M238.673 127.919C241.419 138.084 237.096 148.092 229.017 150.275C220.937 152.457 212.162 145.987 209.417 135.822C206.671 125.659 210.994 115.649 219.074 113.467C227.153 111.285 235.928 117.755 238.673 127.919Z" fill="#3798A9"/>
<path d="M199.283 138.719C200.522 143.307 198.571 147.825 194.923 148.81C191.277 149.796 187.316 146.875 186.077 142.287C184.838 137.699 186.789 133.181 190.436 132.196C194.083 131.211 198.044 134.131 199.283 138.719Z" fill="#3798A9"/>
<path d="M263.974 122.703C265.215 127.29 263.263 131.808 259.616 132.794C255.969 133.779 252.008 130.858 250.769 126.27C249.53 121.682 251.481 117.164 255.128 116.179C258.774 115.194 262.735 118.115 263.974 122.703Z" fill="#3798A9"/>
<path d="M176.035 147.118C176.693 149.554 175.657 151.954 173.72 152.477C171.783 153.001 169.679 151.449 169.021 149.012C168.364 146.576 169.4 144.177 171.336 143.653C173.273 143.13 175.377 144.681 176.035 147.118Z" fill="#3798A9"/>
<path d="M280.109 119.004C280.767 121.441 279.73 123.84 277.794 124.363C275.857 124.886 273.753 123.335 273.095 120.899C272.437 118.462 273.474 116.063 275.41 115.54C277.347 115.016 279.451 116.568 280.109 119.004Z" fill="#3798A9"/>
<path d="M242.163 168.976L228.53 122.697L233.453 121.247L247.086 167.526L242.163 168.976ZM242.369 163.137C239.612 163.949 236.863 164.366 234.123 164.388C231.374 164.378 229.054 164.009 227.163 163.282L228.101 156.478C229.888 157.093 231.883 157.45 234.089 157.55C236.317 157.607 238.465 157.331 240.533 156.722C242.108 156.258 243.328 155.738 244.193 155.162C245.081 154.544 245.672 153.888 245.968 153.195C246.263 152.501 246.304 151.794 246.091 151.072C245.821 150.153 245.247 149.537 244.37 149.224C243.484 148.879 242.401 148.716 241.123 148.736C239.835 148.723 238.426 148.782 236.894 148.912C235.386 148.999 233.843 149.026 232.263 148.992C230.716 148.948 229.246 148.739 227.852 148.365C226.457 147.991 225.209 147.324 224.106 146.365C223.036 145.396 222.23 143.993 221.688 142.155C221.108 140.186 221.107 138.242 221.683 136.324C222.283 134.364 223.509 132.594 225.362 131.014C227.238 129.391 229.801 128.101 233.05 127.144C235.217 126.506 237.427 126.14 239.683 126.047C241.928 125.92 244.005 126.129 245.913 126.673L245.235 133.453C243.356 133.008 241.55 132.809 239.816 132.856C238.072 132.87 236.429 133.104 234.887 133.559C233.344 134.013 232.133 134.566 231.255 135.217C230.377 135.868 229.811 136.552 229.559 137.268C229.296 137.952 229.276 138.671 229.499 139.426C229.76 140.312 230.334 140.928 231.22 141.273C232.097 141.586 233.174 141.732 234.453 141.712C235.731 141.693 237.124 141.639 238.632 141.551C240.173 141.454 241.712 141.411 243.249 141.422C244.819 141.423 246.301 141.611 247.695 141.985C249.089 142.359 250.321 143.031 251.392 143.999C252.494 144.959 253.312 146.341 253.844 148.146C254.414 150.083 254.395 152.014 253.785 153.942C253.176 155.869 251.933 157.644 250.057 159.267C248.214 160.88 245.651 162.17 242.369 163.137Z" fill="#71D0DF"/>
<path d="M278.667 149.958V149.957C279.501 149.762 280.31 149.573 281.091 149.393C280.31 149.573 279.502 149.762 278.667 149.958Z" fill="#6C162F"/>
<path d="M278.667 149.957C277.72 148.104 276.239 146.568 274.427 145.552C275.989 145.178 277.471 144.829 278.874 144.502C279.948 145.898 280.721 147.567 281.091 149.393C280.31 149.573 279.501 149.762 278.667 149.957ZM284.334 107.347L283.139 100.577C284.598 99.6306 285.366 99.1474 285.366 99.1474L277.835 86.7218C278.773 86.5945 279.702 86.4742 280.625 86.3609L288.539 100.806L289.153 104.28L289.188 104.476C288.218 105.04 286.579 106.001 284.334 107.347Z" fill="#318697"/>
<path d="M274.427 145.552C272.907 144.698 271.152 144.212 269.284 144.212H236.807C238.948 140.713 239.912 136.13 239.334 131.315C239.382 131.28 239.429 131.244 239.478 131.209C243.309 128.357 246.956 125.682 250.401 123.188C250.37 124.185 250.486 125.226 250.769 126.27C250.949 126.938 251.188 127.571 251.474 128.162C249.238 129.642 246.923 131.188 244.538 132.795L244.362 139.845L270.743 140.311C274.037 140.37 276.943 141.993 278.874 144.502C277.471 144.829 275.989 145.178 274.427 145.552ZM263.137 120.548C262.239 118.825 260.924 117.487 259.44 116.718C271.064 108.499 279.386 103.009 283.139 100.578L284.334 107.347C279.679 110.138 272.42 114.58 263.137 120.548Z" fill="#4DADB8"/>
<path d="M236.807 144.212H235.706V134.028C236.932 133.107 238.143 132.202 239.334 131.315C239.912 136.13 238.948 140.712 236.807 144.212Z" fill="#318697"/>
<path d="M251.474 128.161C251.188 127.57 250.949 126.938 250.769 126.27C250.486 125.225 250.37 124.184 250.401 123.188C253.595 120.874 256.617 118.714 259.44 116.718C260.924 117.487 262.239 118.824 263.137 120.548C259.541 122.859 255.644 125.398 251.474 128.161Z" fill="#318697"/>
<path d="M175.856 182.344L136.526 133.959C136.526 133.959 204.948 71.2518 253.656 46.8313L285.366 99.1474C285.366 99.1474 235.915 130.264 175.856 182.344Z" fill="#54C3CE"/>
<path d="M274.739 91.7994L255.175 59.521C251.896 61.3911 247.718 60.3153 245.771 57.082C209.992 77.6285 166.93 114.169 148.802 130.085C151.164 132.987 150.808 137.232 147.998 139.702L172.03 169.268C175.003 166.741 179.47 167.158 181.936 170.182C221.967 136.285 256.461 112.092 272.679 101.177C270.75 98.0023 271.659 93.8762 274.739 91.7994Z" fill="#71D0DF"/>
<path d="M224.881 103.19C231.117 111.673 230.708 122.568 223.965 127.525C217.222 132.482 206.701 129.624 200.465 121.142C194.228 112.659 194.638 101.764 201.38 96.807C208.123 91.8502 218.644 94.7078 224.881 103.19Z" fill="#54C3CE"/>
<path d="M192.065 127.509C194.88 131.338 194.695 136.255 191.652 138.493C188.608 140.731 183.859 139.44 181.044 135.612C178.229 131.782 178.414 126.865 181.457 124.627C184.5 122.39 189.25 123.679 192.065 127.509Z" fill="#54C3CE"/>
<path d="M246.582 89.1742C249.397 93.0033 249.212 97.9211 246.169 100.158C243.125 102.396 238.376 101.106 235.561 97.2772C232.745 93.4481 232.93 88.5303 235.974 86.2929C239.017 84.0555 243.767 85.3451 246.582 89.1742Z" fill="#54C3CE"/>
<path d="M173.429 143.748C174.925 145.782 174.826 148.394 173.21 149.582C171.594 150.769 169.071 150.085 167.576 148.051C166.081 146.018 166.18 143.406 167.796 142.218C169.412 141.029 171.935 141.714 173.429 143.748Z" fill="#54C3CE"/>
<path d="M260.286 79.8901C261.78 81.924 261.682 84.5358 260.066 85.7243C258.449 86.9128 255.928 86.2273 254.432 84.1941C252.937 82.1601 253.035 79.5483 254.652 78.3598C256.268 77.1713 258.79 77.8568 260.286 79.8901Z" fill="#54C3CE"/>
<path d="M242.945 140.186L213.495 101.973L217.561 98.8396L247.011 137.053L242.945 140.186ZM241.025 134.668C238.749 136.422 236.337 137.805 233.791 138.817C231.224 139.802 228.927 140.298 226.902 140.304L225.315 133.621C227.203 133.548 229.193 133.159 231.285 132.455C233.383 131.702 235.286 130.667 236.993 129.351C238.294 128.349 239.243 127.423 239.841 126.573C240.445 125.676 240.76 124.85 240.784 124.097C240.808 123.344 240.591 122.669 240.131 122.073C239.547 121.314 238.789 120.948 237.859 120.974C236.907 120.972 235.839 121.212 234.655 121.693C233.449 122.147 232.156 122.711 230.776 123.386C229.402 124.013 227.972 124.597 226.487 125.136C225.03 125.655 223.583 125.992 222.148 126.148C220.713 126.304 219.308 126.134 217.932 125.638C216.584 125.122 215.325 124.105 214.156 122.588C212.903 120.962 212.198 119.15 212.042 117.154C211.892 115.11 212.395 113.016 213.55 110.872C214.713 108.681 216.635 106.551 219.318 104.483C221.107 103.105 223.036 101.964 225.104 101.061C227.152 100.131 229.164 99.5739 231.139 99.3906L232.96 105.957C231.047 106.222 229.291 106.69 227.692 107.361C226.071 108.005 224.624 108.818 223.35 109.799C222.077 110.781 221.148 111.734 220.565 112.659C219.982 113.584 219.702 114.426 219.725 115.185C219.728 115.917 219.97 116.595 220.45 117.218C221.014 117.95 221.772 118.317 222.723 118.318C223.653 118.292 224.711 118.039 225.895 117.558C227.08 117.077 228.359 116.523 229.733 115.896C231.135 115.248 232.554 114.651 233.991 114.105C235.455 113.538 236.904 113.177 238.339 113.022C239.775 112.866 241.166 113.046 242.514 113.562C243.89 114.058 245.152 115.05 246.3 116.541C247.533 118.14 248.213 119.948 248.342 121.965C248.472 123.983 247.955 126.087 246.793 128.279C245.658 130.449 243.735 132.579 241.025 134.668Z" fill="#93DCEA"/>
<path d="M239.334 131.315C239.382 131.28 239.43 131.244 239.478 131.209C239.429 131.244 239.382 131.28 239.334 131.315Z" fill="#4498A5"/>
<path d="M235.706 134.028V134.028C236.933 133.107 238.142 132.202 239.334 131.315C238.143 132.202 236.932 133.107 235.706 134.028Z" fill="#2B7687"/>
<path d="M235.706 134.028V127.458C237.038 126.465 238.352 125.491 239.641 124.54L239.478 131.209C239.43 131.244 239.382 131.28 239.334 131.316C238.142 132.203 236.933 133.107 235.706 134.028ZM235.706 63.1497V56.9302C237.611 55.7584 239.501 54.6243 241.377 53.528L241.225 59.7539C239.397 60.8521 237.56 61.983 235.706 63.1497Z" fill="#4DADB8"/>
<path d="M235.706 127.458V97.4716C236.957 99.0972 238.561 100.24 240.221 100.82L239.641 124.54C238.352 125.491 237.038 126.465 235.706 127.458ZM235.706 86.5026V63.1497C237.56 61.983 239.397 60.8521 241.225 59.7538L240.6 85.2918C240.212 85.2278 239.825 85.1951 239.444 85.1951C238.187 85.1951 236.986 85.549 235.974 86.2934C235.882 86.3606 235.793 86.431 235.706 86.5026Z" fill="#61CAD3"/>
<path d="M240.221 100.82C238.561 100.24 236.957 99.0969 235.706 97.4713V86.5024C235.793 86.4307 235.882 86.3603 235.974 86.2931C236.986 85.5488 238.187 85.1949 239.444 85.1949C239.825 85.1949 240.212 85.2275 240.6 85.2915L240.221 100.82Z" fill="#4DADB8"/>
<path d="M143.399 164.86L69.6607 128.562C66.3859 126.95 65.0252 122.951 66.6374 119.676L85.831 80.6861C87.4425 77.4112 91.4418 76.0506 94.7167 77.6628L168.454 113.961C171.729 115.573 173.09 119.572 171.478 122.847L152.285 161.836C150.673 165.112 146.674 166.473 143.399 164.86Z" fill="#54C3CE"/>
<path d="M153.093 160.194L67.4463 118.033L71.6492 109.495L157.297 151.656L153.093 160.194Z" fill="#2B7888"/>
<path d="M153.767 158.825L68.1202 116.665L70.9753 110.864L156.623 153.026L153.767 158.825Z" fill="#3798A9"/>
<path d="M101.209 104.641C103.525 99.9346 109.218 97.998 113.924 100.315C118.63 102.631 120.567 108.324 118.25 113.03C115.934 117.736 110.241 119.673 105.535 117.355C100.829 115.039 98.8921 109.346 101.209 104.641Z" fill="#3798A9"/>
<path d="M89.1391 112.412C91.8354 113.739 94.78 113.985 97.4872 113.323C96.3039 110.094 96.389 106.405 98.028 103.075C99.6671 99.7455 102.538 97.4286 105.819 96.3963C104.693 93.8478 102.702 91.6635 100.006 90.3368C93.9103 87.3358 86.5356 89.8453 83.5352 95.9413C80.5343 102.037 83.0431 109.411 89.1391 112.412Z" fill="#93DCEA"/>
<path d="M162.098 122.695L134.467 109.093C133.812 108.771 133.54 107.973 133.862 107.319C134.184 106.664 134.982 106.393 135.637 106.715L163.268 120.316C163.922 120.638 164.194 121.437 163.872 122.091C163.55 122.745 162.751 123.016 162.098 122.695Z" fill="#3798A9"/>
<path d="M155.869 135.048L133.608 124.09C132.954 123.768 132.682 122.969 133.004 122.315C133.326 121.662 134.125 121.39 134.778 121.712L157.039 132.67C157.693 132.992 157.965 133.79 157.643 134.445C157.322 135.099 156.523 135.37 155.869 135.048Z" fill="#3798A9"/>
<path d="M152.755 141.674L135.863 133.359C135.21 133.037 134.938 132.239 135.26 131.585C135.582 130.931 136.38 130.659 137.034 130.682L153.925 138.997C154.579 139.618 154.851 140.417 154.529 141.07C154.207 141.725 153.409 141.996 152.755 141.674Z" fill="#3798A9"/>
<path d="M158.983 129.021L129.14 114.331C128.486 114.009 128.215 113.21 128.537 112.556C128.859 111.903 129.657 111.631 130.312 111.953L160.153 126.643C160.808 126.965 161.08 127.763 160.758 128.418C160.436 129.071 159.637 129.343 158.983 129.021Z" fill="#3798A9"/>
<path d="M114.101 126.584L113.869 117.383C115.709 116.494 117.277 115.006 118.25 113.03C120.567 108.324 118.63 102.631 113.924 100.315C113.761 100.234 113.598 100.16 113.433 100.09L113.096 86.7106L122.138 91.1611V124.486L114.101 126.584Z" fill="#4DADB8"/>
<path d="M113.869 117.383L113.433 100.089C113.598 100.159 113.761 100.234 113.924 100.315C118.63 102.631 120.567 108.324 118.25 113.03C117.277 115.006 115.709 116.493 113.869 117.383Z" fill="#318697"/>
<path d="M177.819 144.212H72.5433V206.55C72.5433 208.501 74.1248 210.083 76.0761 210.083H177.819V144.212Z" fill="#B82852"/>
<path d="M79.5135 204.975C78.2757 204.466 77.3343 203.311 77.2018 201.966L76.5874 195.707V144.212H80.9714L79.5813 148.742H79.5135V204.975Z" fill="#992044"/>
<path d="M269.284 144.212H177.819V210.083H276.282C278.233 210.083 279.814 208.501 279.814 206.55V154.742C279.814 148.927 275.099 144.212 269.284 144.212Z" fill="#B82852"/>
<path d="M269.355 146.698L203.059 144.212H177.819V210.083H276.083C276.472 210.083 276.789 209.766 276.789 209.376V154.131C276.789 150.026 273.46 146.698 269.355 146.698Z" fill="#A42349"/>
<path d="M221.037 153.98H283.095V206.55C283.095 208.501 281.513 210.083 279.562 210.083H196.225V178.792C196.225 165.089 207.334 153.98 221.037 153.98Z" fill="#F1447D"/>
<path d="M221.812 156.807H283.095V206.55C283.095 208.501 281.513 210.083 279.562 210.083H200.603V178.017C200.603 166.303 210.098 156.807 221.812 156.807Z" fill="#DB3668"/>
<path d="M243.907 145.744L235.706 145.436V144.212H244.029L243.907 145.744Z" fill="#992044"/>
<path d="M243.25 153.98H235.706V145.436L243.907 145.744L243.25 153.98Z" fill="#861D3B"/>
<path d="M243.025 156.807H235.706V153.98H243.25L243.025 156.807Z" fill="#CD3E6B"/>
<path d="M239.161 205.254H235.706V156.807H243.025L239.161 205.254Z" fill="#B62F58"/>
<path d="M79.5135 210.083H170.849V148.742H79.5135V210.083Z" fill="#B82852"/>
<path d="M79.5135 204.975V148.742H79.5814L79.5475 148.853L79.5135 148.742V148.964V204.975ZM85.4489 163.639L83.966 163.252L79.5814 148.964H80.8588L83.966 159.09L84.1766 159.145C84.2047 159.371 84.238 159.598 84.2764 159.824C84.2771 159.827 84.2771 159.829 84.2777 159.831C84.279 159.838 84.2796 159.843 84.2809 159.849C84.2815 159.854 84.2822 159.858 84.2828 159.863C84.2848 159.871 84.286 159.88 84.2873 159.888C84.2924 159.915 84.2969 159.943 84.302 159.97C84.5343 161.266 84.9247 162.494 85.4489 163.639Z" fill="#A42249"/>
<path d="M79.5135 148.964H170.849L166.396 134.453L125.181 123.691L83.966 134.453L79.5135 148.964Z" fill="#B82852"/>
<path d="M114.389 154.649C115.835 162.961 110.27 170.872 101.958 172.319C93.6453 173.766 85.7343 168.201 84.2872 159.889C82.8402 151.576 88.4056 143.665 96.7179 142.218C105.03 140.771 112.941 146.337 114.389 154.649Z" fill="#E8A930"/>
<path d="M112.957 154.898L112.799 154.925C112.938 155.718 113.004 156.507 113.004 157.285C113.004 163.803 108.323 169.574 101.681 170.73C100.888 170.868 100.1 170.934 99.3216 170.934C92.8038 170.934 87.0323 166.253 85.8765 159.612C85.7382 158.819 85.6717 158.03 85.6717 157.252C85.6717 150.735 90.3526 144.963 96.9946 143.807C97.7875 143.669 98.5766 143.603 99.3542 143.603C105.872 143.603 111.644 148.284 112.799 154.925L112.957 154.898L113.115 154.87C111.931 148.073 106.026 143.283 99.3542 143.283C98.5581 143.283 97.751 143.35 96.9402 143.492C90.1427 144.675 85.3517 150.58 85.3517 157.252C85.3517 158.049 85.4202 158.856 85.561 159.667C86.745 166.464 92.6502 171.254 99.3216 171.254C100.118 171.255 100.925 171.187 101.736 171.045C108.534 169.862 113.324 163.957 113.324 157.285C113.324 156.489 113.256 155.681 113.115 154.87L112.957 154.898Z" fill="#C48D21"/>
<path d="M111.224 155.199C112.367 161.764 107.972 168.012 101.407 169.155C94.8429 170.298 88.5946 165.903 87.4515 159.338C86.3091 152.773 90.704 146.526 97.2691 145.382C103.834 144.239 110.081 148.635 111.224 155.199Z" fill="#C48D21"/>
<path d="M109.565 155.489C110.549 161.137 106.767 166.513 101.119 167.496C95.4701 168.479 90.0941 164.698 89.1111 159.049C88.1274 153.401 91.9092 148.024 97.5578 147.041C103.206 146.058 108.582 149.84 109.565 155.489Z" fill="#E8A930"/>
<path d="M109.323 184.934L103.3 150.333L105.14 150.013L111.164 184.614L109.323 184.934ZM109.365 180.604C107.451 180.937 105.557 180.95 103.684 180.644C101.83 180.31 100.34 179.735 99.2116 178.92L99.9139 176.636C100.976 177.361 102.321 177.898 103.949 178.247C105.598 178.567 107.269 178.579 108.962 178.284C110.581 178.003 111.86 177.578 112.798 177.01C113.756 176.413 114.408 175.731 114.755 174.963C115.126 174.19 115.239 173.387 115.094 172.552C114.919 171.546 114.483 170.787 113.788 170.276C113.116 169.761 112.285 169.413 111.292 169.232C110.296 169.026 109.209 168.886 108.034 168.813C106.858 168.74 105.68 168.654 104.5 168.556C103.315 168.433 102.2 168.198 101.153 167.849C100.131 167.496 99.2524 166.954 98.5182 166.222C97.8042 165.461 97.3276 164.394 97.0884 163.019C96.8663 161.743 96.9947 160.52 97.4735 159.349C97.9727 158.15 98.8662 157.11 100.154 156.228C101.437 155.322 103.171 154.679 105.355 154.299C106.803 154.047 108.275 154.005 109.771 154.175C111.263 154.319 112.586 154.658 113.74 155.19L113.198 157.522C111.966 156.978 110.694 156.643 109.382 156.518C108.096 156.388 106.876 156.423 105.722 156.624C104.176 156.893 102.936 157.324 102.003 157.916C101.069 158.509 100.419 159.203 100.052 160C99.7054 160.769 99.609 161.595 99.7628 162.478C99.9379 163.484 100.361 164.245 101.032 164.76C101.728 165.271 102.572 165.617 103.564 165.798C104.581 165.975 105.678 166.101 106.854 166.174C108.029 166.247 109.197 166.347 110.357 166.474C111.542 166.597 112.645 166.835 113.667 167.188C114.71 167.512 115.586 168.042 116.295 168.778C117.03 169.51 117.514 170.551 117.749 171.9C117.967 173.152 117.826 174.377 117.327 175.577C116.824 176.752 115.918 177.794 114.61 178.704C113.322 179.586 111.574 180.219 109.365 180.604Z" fill="#C48D21"/>
<path d="M84.2778 159.831C84.2771 159.829 84.2771 159.827 84.2765 159.824C84.2771 159.826 84.2778 159.83 84.2778 159.831Z" fill="#8F1E40"/>
<path d="M106.948 169.254L106.669 169.181C106.774 169.117 106.878 169.051 106.98 168.984C106.969 169.074 106.958 169.164 106.948 169.254ZM106.235 169.068L103.874 168.451C105.311 167.87 106.596 167.026 107.679 165.987C107.389 166.834 107.177 167.695 107.041 168.558C106.779 168.737 106.511 168.907 106.235 169.068ZM89.9135 164.806L87.5519 164.189C86.8332 162.965 86.2956 161.61 85.982 160.154L87.7452 160.615C88.1945 162.179 88.942 163.593 89.9135 164.806ZM87.1186 164.076L85.4489 163.64C84.9247 162.495 84.5343 161.267 84.302 159.97C84.2969 159.943 84.2924 159.916 84.2873 159.889C84.286 159.88 84.2847 159.871 84.2828 159.863C84.2821 159.859 84.2815 159.854 84.2809 159.849C84.2796 159.843 84.2789 159.837 84.2777 159.832C84.2777 159.83 84.277 159.827 84.2764 159.825C84.1689 159.19 84.1068 158.559 84.0786 157.932L84.6546 159.808L85.6364 160.064C85.9295 161.505 86.4364 162.852 87.1186 164.076Z" fill="#CC982E"/>
<path d="M106.669 169.182L106.235 169.068C106.511 168.907 106.779 168.737 107.041 168.558C107.019 168.7 106.999 168.842 106.98 168.984C106.878 169.051 106.774 169.117 106.669 169.182ZM87.5519 164.189L87.1186 164.076C86.4363 162.852 85.9295 161.505 85.6364 160.064L85.9819 160.154C86.2955 161.61 86.8331 162.965 87.5519 164.189Z" fill="#AD7C1E"/>
<path d="M103.874 168.451L100.538 167.58C100.731 167.558 100.925 167.53 101.119 167.496C102.922 167.182 104.534 166.421 105.862 165.346L107.733 165.834C107.715 165.885 107.697 165.937 107.679 165.987C106.596 167.026 105.311 167.87 103.874 168.451ZM93.2492 165.677L89.9136 164.806C88.942 163.593 88.1945 162.179 87.7452 160.615L89.6972 161.124C90.4384 162.983 91.6876 164.547 93.2492 165.677Z" fill="#AD7C1E"/>
<path d="M100.538 167.58L96.3576 166.489L104.686 165.039L105.862 165.346C104.534 166.421 102.921 167.182 101.119 167.496C100.925 167.53 100.731 167.558 100.538 167.58ZM95.9954 166.394L93.2491 165.677C91.6875 164.546 90.4383 162.983 89.6971 161.124L95.3343 162.596L95.9954 166.394Z" fill="#CC982E"/>
<mask id="mask0_897_5959" style="mask-type:luminance" maskUnits="userSpaceOnUse" x="95" y="162" width="10" height="5">
<path d="M96.3577 166.489L95.9955 166.395L95.3344 162.597L104.686 165.039L96.3577 166.489Z" fill="white"/>
</mask>
<g mask="url(#mask0_897_5959)">
<path d="M95.3344 166.489H104.686V162.597H95.3344V166.489Z" fill="#CC982E"/>
<path d="M109.323 184.935L103.3 150.333L105.14 150.013L111.164 184.615L109.323 184.935ZM109.365 180.604C107.451 180.937 105.557 180.951 103.684 180.645C101.83 180.31 100.34 179.735 99.2116 178.92L99.9139 176.636C100.976 177.362 102.321 177.899 103.949 178.247C105.598 178.567 107.269 178.58 108.962 178.285C110.581 178.003 111.86 177.578 112.798 177.01C113.756 176.414 114.408 175.731 114.755 174.963C115.126 174.19 115.239 173.387 115.094 172.553C114.919 171.546 114.483 170.788 113.788 170.277C113.116 169.762 112.285 169.413 111.292 169.232C110.296 169.026 109.209 168.887 108.034 168.813C106.858 168.74 105.68 168.654 104.5 168.556C103.315 168.434 102.2 168.198 101.153 167.849C100.131 167.496 99.2524 166.954 98.5182 166.222C97.8042 165.462 97.3276 164.394 97.0884 163.02C96.8663 161.744 96.9947 160.52 97.4735 159.35C97.9727 158.151 98.8662 157.11 100.154 156.229C101.437 155.322 103.171 154.679 105.355 154.299C106.803 154.047 108.275 154.006 109.771 154.175C111.263 154.32 112.586 154.659 113.74 155.191L113.198 157.523C111.966 156.979 110.694 156.644 109.382 156.518C108.096 156.388 106.876 156.424 105.722 156.625C104.176 156.894 102.936 157.324 102.003 157.917C101.069 158.509 100.419 159.204 100.052 160.001C99.7054 160.769 99.609 161.595 99.7628 162.478C99.9379 163.485 100.361 164.245 101.032 164.761C101.728 165.272 102.572 165.618 103.564 165.799C104.581 165.976 105.678 166.101 106.854 166.174C108.029 166.248 109.197 166.348 110.357 166.475C111.542 166.597 112.645 166.835 113.667 167.188C114.71 167.512 115.586 168.042 116.295 168.778C117.03 169.51 117.514 170.551 117.749 171.901C117.967 173.152 117.826 174.378 117.327 175.577C116.824 176.752 115.918 177.795 114.61 178.705C113.322 179.587 111.574 180.22 109.365 180.604Z" fill="#AD7C1E"/>
</g>
<path d="M135.691 177.977C131.799 185.463 122.575 188.375 115.089 184.483C107.604 180.59 104.691 171.367 108.583 163.881C112.475 156.395 121.7 153.483 129.185 157.376C136.671 161.268 139.584 170.492 135.691 177.977Z" fill="#FBC64B"/>
<path d="M122.149 157.102C117.156 157.102 112.335 159.815 109.873 164.551C106.35 171.325 108.986 179.672 115.759 183.194C117.798 184.253 119.978 184.756 122.125 184.756C127.119 184.756 131.939 182.042 134.402 177.306C137.924 170.532 135.289 162.186 128.515 158.664C126.477 157.604 124.297 157.102 122.149 157.102ZM122.149 157.422C124.298 157.422 126.447 157.949 128.367 158.948C134.974 162.383 137.553 170.553 134.118 177.159C131.784 181.647 127.189 184.436 122.125 184.436C119.978 184.436 117.827 183.908 115.908 182.909C109.301 179.475 106.721 171.305 110.156 164.699C112.49 160.21 117.086 157.422 122.149 157.422Z" fill="#E8A930"/>
<path d="M132.842 176.495C129.768 182.407 122.483 184.707 116.571 181.633C110.659 178.558 108.359 171.275 111.433 165.362C114.507 159.451 121.792 157.15 127.704 160.224C133.616 163.298 135.915 170.583 132.842 176.495Z" fill="#E8A930"/>
<path d="M131.348 175.719C128.703 180.805 122.435 182.784 117.348 180.139C112.261 177.494 110.282 171.226 112.927 166.14C115.572 161.053 121.84 159.073 126.927 161.719C132.013 164.364 133.992 170.632 131.348 175.719Z" fill="#FBC64B"/>
<path d="M113.313 199.01L129.516 167.849L131.174 168.711L114.97 199.872L113.313 199.01ZM115.974 195.593C114.25 194.697 112.737 193.558 111.433 192.179C110.162 190.788 109.326 189.427 108.924 188.094L110.868 186.705C111.272 187.926 112.015 189.169 113.098 190.434C114.215 191.688 115.535 192.712 117.06 193.505C118.519 194.263 119.793 194.701 120.883 194.819C122.007 194.926 122.939 194.779 123.681 194.378C124.445 193.989 125.022 193.419 125.413 192.668C125.884 191.762 125.998 190.895 125.755 190.066C125.534 189.249 125.084 188.468 124.405 187.722C123.737 186.954 122.959 186.184 122.068 185.412C121.178 184.64 120.294 183.857 119.415 183.064C118.548 182.248 117.804 181.384 117.183 180.471C116.585 179.57 116.216 178.606 116.076 177.579C115.97 176.541 116.239 175.404 116.882 174.166C117.48 173.017 118.324 172.122 119.415 171.482C120.539 170.832 121.881 170.547 123.439 170.627C125.009 170.685 126.778 171.226 128.745 172.249C130.049 172.927 131.244 173.787 132.33 174.829C133.428 175.849 134.275 176.921 134.87 178.045L133.024 179.57C132.374 178.389 131.566 177.352 130.6 176.456C129.656 175.572 128.664 174.86 127.626 174.32C126.233 173.596 124.986 173.186 123.885 173.091C122.783 172.995 121.845 173.153 121.07 173.564C120.328 173.965 119.75 174.563 119.337 175.358C118.866 176.264 118.741 177.126 118.962 177.943C119.205 178.771 119.666 179.558 120.345 180.304C121.046 181.062 121.841 181.826 122.731 182.598C123.622 183.37 124.489 184.158 125.334 184.962C126.202 185.778 126.934 186.637 127.533 187.538C128.165 188.428 128.54 189.381 128.657 190.396C128.797 191.424 128.551 192.545 127.919 193.76C127.333 194.888 126.478 195.776 125.353 196.427C124.24 197.056 122.888 197.335 121.295 197.265C119.737 197.185 117.963 196.627 115.974 195.593Z" fill="#E8A930"/>
<path d="M110.099 170.078L108.689 169.709C108.737 169.172 108.817 168.635 108.931 168.101L110.324 168.465C110.212 169.001 110.137 169.539 110.099 170.078ZM108.371 169.626L106.952 169.255C107.011 168.72 107.098 168.185 107.215 167.653L108.62 168.019C108.504 168.553 108.422 169.09 108.371 169.626Z" fill="#EFB53F"/>
<path d="M108.689 169.709L108.371 169.626C108.422 169.09 108.504 168.553 108.619 168.019L108.931 168.101C108.817 168.635 108.737 169.172 108.689 169.709Z" fill="#CC982E"/>
<path d="M111.762 170.511L110.099 170.077C110.137 169.538 110.212 169 110.324 168.465L111.956 168.891C111.848 169.429 111.784 169.971 111.762 170.511Z" fill="#CC982E"/>
<path d="M116.3 171.697L111.762 170.511C111.784 169.971 111.848 169.429 111.956 168.891L117.065 170.225L116.3 171.697Z" fill="#EFB53F"/>
<mask id="mask1_897_5959" style="mask-type:luminance" maskUnits="userSpaceOnUse" x="116" y="170" width="2" height="3">
<path d="M117.501 172.01L116.3 171.697L117.065 170.225L117.432 170.321L117.501 172.01Z" fill="white"/>
</mask>
<g mask="url(#mask1_897_5959)">
<path d="M116.3 172.01H117.501V170.225H116.3V172.01Z" fill="#EFB53F"/>
<path d="M113.313 199.01L129.516 167.849L131.174 168.711L114.97 199.872L113.313 199.01ZM115.974 195.593C114.25 194.697 112.736 193.558 111.432 192.179C110.162 190.788 109.326 189.427 108.924 188.094L110.868 186.705C111.272 187.926 112.015 189.169 113.098 190.434C114.214 191.688 115.535 192.712 117.06 193.505C118.519 194.263 119.793 194.701 120.883 194.819C122.007 194.926 122.939 194.779 123.681 194.378C124.445 193.989 125.022 193.419 125.413 192.668C125.884 191.762 125.998 190.895 125.755 190.066C125.534 189.249 125.084 188.468 124.405 187.722C123.737 186.954 122.959 186.184 122.068 185.412C121.178 184.64 120.294 183.857 119.415 183.064C118.548 182.248 117.804 181.384 117.183 180.471C116.585 179.57 116.216 178.606 116.076 177.579C115.97 176.541 116.239 175.404 116.882 174.166C117.48 173.017 118.324 172.122 119.415 171.482C120.539 170.832 121.881 170.547 123.439 170.627C125.009 170.685 126.778 171.226 128.745 172.249C130.049 172.927 131.244 173.787 132.33 174.829C133.428 175.849 134.275 176.921 134.87 178.045L133.024 179.57C132.374 178.389 131.566 177.352 130.6 176.456C129.656 175.572 128.664 174.86 127.626 174.32C126.233 173.596 124.986 173.186 123.885 173.091C122.783 172.995 121.845 173.153 121.07 173.564C120.328 173.965 119.75 174.563 119.337 175.358C118.865 176.264 118.74 177.126 118.961 177.943C119.205 178.771 119.666 179.558 120.344 180.304C121.045 181.062 121.841 181.826 122.731 182.598C123.621 183.37 124.489 184.158 125.334 184.962C126.201 185.778 126.934 186.637 127.533 187.538C128.165 188.428 128.54 189.381 128.657 190.396C128.797 191.424 128.551 192.545 127.919 193.76C127.333 194.888 126.477 195.776 125.353 196.427C124.24 197.056 122.887 197.335 121.295 197.265C119.737 197.185 117.963 196.627 115.974 195.593Z" fill="#CC982E"/>
</g>
<path d="M166.396 163.252L125.181 174.016L83.966 163.252L79.5135 148.742V210.083H170.849V148.742L166.396 163.252Z" fill="#DB3668"/>
<path d="M116.872 156.588L116.562 148.964H122.138V155.649C120.334 155.65 118.551 155.972 116.872 156.588Z" fill="#992044"/>
<path d="M122.138 148.964H116.562L115.633 126.184L122.138 124.486V148.964Z" fill="#992044"/>
<path d="M117.012 160.006L116.948 158.455C118.563 157.784 120.32 157.423 122.138 157.422V158.862C120.361 158.863 118.609 159.258 117.012 160.006ZM116.935 158.121L116.872 156.588C118.551 155.973 120.334 155.651 122.138 155.649V157.102C120.348 157.103 118.58 157.454 116.935 158.121Z" fill="#DFAA3D"/>
<path d="M116.948 158.455L116.935 158.121C118.58 157.454 120.347 157.104 122.137 157.102V157.422C120.32 157.424 118.562 157.785 116.948 158.455Z" fill="#C18F2C"/>
<path d="M117.087 161.857L117.012 160.006C118.609 159.258 120.361 158.863 122.137 158.862V160.545C120.367 160.547 118.626 161.002 117.087 161.857Z" fill="#C18F2C"/>
<path d="M117.402 169.578L117.087 161.857C118.626 161.002 120.367 160.547 122.138 160.545V161.609L121.672 161.366L117.402 169.578Z" fill="#DFAA3D"/>
<mask id="mask2_897_5959" style="mask-type:luminance" maskUnits="userSpaceOnUse" x="117" y="161" width="6" height="11">
<path d="M122.138 171.55L117.432 170.321L117.402 169.578L121.672 161.367L122.138 161.609V171.55Z" fill="white"/>
</mask>
<g mask="url(#mask2_897_5959)">
<path d="M117.402 171.55H122.138V161.367H117.402V171.55Z" fill="#DFAA3D"/>
<path d="M113.313 199.011L129.516 167.85L131.174 168.712L114.97 199.872L113.313 199.011ZM115.974 195.593C114.25 194.697 112.737 193.559 111.433 192.179C110.162 190.788 109.326 189.427 108.924 188.095L110.868 186.705C111.272 187.926 112.015 189.169 113.098 190.434C114.215 191.688 115.535 192.712 117.06 193.505C118.519 194.263 119.793 194.702 120.883 194.819C122.007 194.926 122.939 194.779 123.681 194.379C124.445 193.99 125.022 193.42 125.413 192.668C125.884 191.762 125.998 190.895 125.755 190.067C125.534 189.25 125.084 188.468 124.405 187.722C123.737 186.954 122.959 186.184 122.068 185.412C121.178 184.641 120.294 183.858 119.415 183.064C118.548 182.248 117.804 181.384 117.183 180.472C116.585 179.571 116.216 178.607 116.076 177.58C115.97 176.542 116.239 175.404 116.882 174.167C117.48 173.017 118.324 172.123 119.415 171.483C120.539 170.832 121.881 170.547 123.439 170.628C125.009 170.686 126.778 171.226 128.745 172.249C130.049 172.927 131.244 173.787 132.33 174.83C133.428 175.85 134.275 176.922 134.87 178.045L133.024 179.57C132.374 178.39 131.566 177.352 130.6 176.457C129.656 175.573 128.664 174.861 127.626 174.32C126.233 173.596 124.986 173.187 123.885 173.091C122.783 172.996 121.845 173.154 121.07 173.565C120.328 173.965 119.75 174.563 119.337 175.359C118.866 176.265 118.741 177.126 118.962 177.943C119.205 178.771 119.666 179.559 120.345 180.305C121.046 181.062 121.841 181.827 122.731 182.599C123.622 183.37 124.489 184.159 125.334 184.963C126.202 185.779 126.934 186.637 127.533 187.538C128.165 188.428 128.54 189.381 128.657 190.397C128.797 191.424 128.551 192.545 127.919 193.761C127.333 194.888 126.478 195.777 125.353 196.428C124.24 197.056 122.888 197.335 121.295 197.266C119.737 197.185 117.963 196.628 115.974 195.593Z" fill="#C18F2C"/>
</g>
<mask id="mask3_897_5959" style="mask-type:luminance" maskUnits="userSpaceOnUse" x="117" y="170" width="6" height="4">
<path d="M122.138 173.221L117.501 172.01L117.432 170.321L122.138 171.55V173.221Z" fill="white"/>
</mask>
<g mask="url(#mask3_897_5959)">
<path d="M117.432 173.221H122.138V170.321H117.432V173.221Z" fill="#C59939"/>
<path d="M113.313 199.011L129.516 167.85L131.174 168.712L114.97 199.872L113.313 199.011ZM115.974 195.593C114.25 194.697 112.737 193.559 111.433 192.179C110.162 190.788 109.326 189.427 108.924 188.095L110.868 186.705C111.272 187.926 112.015 189.169 113.098 190.434C114.215 191.688 115.535 192.712 117.06 193.505C118.519 194.263 119.793 194.702 120.883 194.819C122.007 194.926 122.939 194.779 123.681 194.379C124.445 193.99 125.022 193.42 125.413 192.668C125.884 191.762 125.998 190.895 125.755 190.067C125.534 189.25 125.084 188.468 124.405 187.722C123.737 186.954 122.959 186.184 122.068 185.412C121.178 184.641 120.294 183.858 119.415 183.064C118.548 182.248 117.804 181.384 117.183 180.472C116.585 179.571 116.216 178.607 116.076 177.58C115.97 176.542 116.239 175.404 116.882 174.167C117.48 173.017 118.324 172.123 119.415 171.483C120.539 170.832 121.881 170.547 123.439 170.628C125.009 170.686 126.778 171.226 128.745 172.249C130.049 172.927 131.244 173.787 132.33 174.83C133.428 175.85 134.275 176.922 134.87 178.045L133.024 179.57C132.374 178.39 131.566 177.352 130.6 176.457C129.656 175.573 128.664 174.861 127.626 174.32C126.233 173.596 124.986 173.187 123.885 173.091C122.783 172.996 121.845 173.154 121.07 173.565C120.328 173.965 119.75 174.563 119.337 175.359C118.866 176.265 118.741 177.126 118.962 177.943C119.205 178.771 119.666 179.559 120.345 180.305C121.046 181.062 121.841 181.827 122.731 182.599C123.622 183.37 124.489 184.159 125.334 184.963C126.202 185.779 126.934 186.637 127.533 187.538C128.165 188.428 128.54 189.381 128.657 190.397C128.797 191.424 128.551 192.545 127.919 193.761C127.333 194.888 126.478 195.777 125.353 196.428C124.24 197.056 122.888 197.335 121.295 197.266C119.737 197.185 117.963 196.628 115.974 195.593Z" fill="#A87E28"/>
</g>
<path d="M122.138 205.254H118.856L117.501 172.01L122.138 173.221V205.254Z" fill="#B62F58"/>
<path d="M279.562 210.083H238.776L239.161 205.254H274.803C276.653 205.254 278.303 203.793 278.49 201.983L283.095 157.302V206.55C283.095 208.501 281.513 210.083 279.562 210.083Z" fill="#C2325E"/>
<path d="M238.776 210.083H235.698C235.704 209.93 235.706 209.778 235.706 209.624V205.254H239.161L238.776 210.083Z" fill="#A2294E"/>
<path d="M76.5875 210.083H76.0761C74.1248 210.083 72.5433 208.501 72.5433 206.55V154.54L76.5875 195.708V210.083Z" fill="#A42249"/>
<path d="M79.5135 210.083H76.5874V195.708L77.2018 201.966C77.3343 203.311 78.2757 204.466 79.5135 204.975V210.083Z" fill="#861C3B"/>
<path d="M119.053 210.083H79.5135V204.975C79.9494 205.155 80.4217 205.254 80.9081 205.254H118.856L119.053 210.083Z" fill="#C2325E"/>
<path d="M122.145 210.083H119.053L118.856 205.254H122.137V209.624C122.137 209.778 122.14 209.93 122.145 210.083Z" fill="#A2294E"/>
<path d="M222 223.331H135.844C128.274 223.331 122.137 217.194 122.137 209.624V30.6913C122.137 23.1214 128.274 16.985 135.844 16.985H222C229.57 16.985 235.706 23.1214 235.706 30.6913V209.624C235.706 217.194 229.57 223.331 222 223.331Z" fill="#2F4165"/>
<path d="M222.449 214.766H135.395C128.073 214.766 122.137 208.831 122.137 201.509V34.9697C122.137 27.6481 128.073 21.7127 135.395 21.7127H222.449C229.771 21.7127 235.706 27.6481 235.706 34.9697V201.509C235.706 208.831 229.771 214.766 222.449 214.766Z" fill="#CCF3FA"/>
<path d="M122.137 167.273V201.509C122.137 208.831 128.073 214.766 135.395 214.766H222.449C229.771 214.766 235.706 208.831 235.706 201.509V167.273H122.137Z" fill="#9EE4F1"/>
<path d="M122.137 138.2H235.706V37.8675H122.137V138.2Z" fill="#AAE5F0"/>
<path d="M158.753 16.985V20.0749C158.753 24.0243 160.955 27.2563 165.316 27.2563H192.527C196.889 27.2563 199.091 24.0243 199.091 20.0749V16.985H158.753Z" fill="#2F4165"/>
<path d="M187.233 202.201H170.612C167.729 202.201 165.591 204.337 165.591 206.948V223.331H192.253V206.948C192.253 204.337 190.115 202.201 187.233 202.201Z" fill="#2F4165"/>
<path d="M189.73 23.3643H168.115C167.43 23.3643 166.871 22.8049 166.871 22.1207C166.871 21.4366 167.43 20.8766 168.115 20.8766H189.73C190.414 20.8766 190.974 21.4366 190.974 22.1207C190.974 22.8049 190.414 23.3643 189.73 23.3643Z" fill="white"/>
<path d="M196.531 16.9851V22.349C196.531 25.5874 199.181 28.2363 202.419 28.2363C205.657 28.2363 208.307 25.5874 208.307 22.349V16.9851H196.531Z" fill="#2F4165"/>
<path d="M205.035 22.6106C205.035 24.0557 203.864 25.2275 202.418 25.2275C200.974 25.2275 199.802 24.0557 199.802 22.6106C199.802 21.1655 200.974 19.9943 202.418 19.9943C203.864 19.9943 205.035 21.1655 205.035 22.6106Z" fill="#93DCEA"/>
<path d="M203.578 22.6105C203.578 23.2505 203.059 23.7695 202.419 23.7695C201.779 23.7695 201.26 23.2505 201.26 22.6105C201.26 21.9705 201.779 21.4515 202.419 21.4515C203.059 21.4515 203.578 21.9705 203.578 22.6105Z" fill="white"/>
<path d="M154.232 16.985V22.3949C154.232 24.8359 156.229 26.834 158.67 26.834C161.112 26.834 163.109 24.8359 163.109 22.3949V16.985H154.232Z" fill="#2F4165"/>
<path d="M160.643 22.5918C160.643 23.6817 159.759 24.5649 158.67 24.5649C157.581 24.5649 156.697 23.6817 156.697 22.5918C156.697 21.5019 157.581 20.6187 158.67 20.6187C159.759 20.6187 160.643 21.5019 160.643 22.5918Z" fill="#93DCEA"/>
<path d="M159.544 22.5922C159.544 23.0748 159.153 23.4658 158.67 23.4658C158.188 23.4658 157.797 23.0748 157.797 22.5922C157.797 22.1097 158.188 21.7186 158.67 21.7186C159.153 21.7186 159.544 22.1097 159.544 22.5922Z" fill="white"/>
<path d="M184.455 216.583C184.455 217.438 183.755 218.139 182.899 218.139H174.945C174.089 218.139 173.389 217.438 173.389 216.583V208.948C173.389 208.093 174.089 207.393 174.945 207.393H182.899C183.755 207.393 184.455 208.093 184.455 208.948V216.583ZM183.142 206.031H174.703C173.32 206.031 172.188 207.163 172.188 208.546V216.985C172.188 218.368 173.32 219.5 174.703 219.5H183.142C184.524 219.5 185.656 218.368 185.656 216.985V208.546C185.656 207.163 184.524 206.031 183.142 206.031Z" fill="#93DCEA"/>
<path d="M181.88 216.761H175.965C175.329 216.761 174.808 216.24 174.808 215.604V209.928C174.808 209.292 175.329 208.771 175.965 208.771H181.88C182.516 208.771 183.035 209.292 183.035 209.928V215.604C183.035 216.24 182.516 216.761 181.88 216.761Z" fill="#435274"/>
<path d="M159.315 146.745H130.696C130.1 146.745 129.613 146.258 129.613 145.663C129.613 145.067 130.1 144.58 130.696 144.58H159.315C159.911 144.58 160.398 145.067 160.398 145.663C160.398 146.258 159.911 146.745 159.315 146.745Z" fill="#ADE4EF"/>
<path d="M159.315 153.333H130.696C130.1 153.333 129.613 152.847 129.613 152.251C129.613 151.655 130.1 151.168 130.696 151.168H159.315C159.911 151.168 160.398 151.655 160.398 152.251C160.398 152.847 159.911 153.333 159.315 153.333Z" fill="#ADE4EF"/>
<path d="M159.315 159.922H130.696C130.1 159.922 129.613 159.435 129.613 158.839C129.613 158.243 130.1 157.756 130.696 157.756H159.315C159.911 157.756 160.398 158.243 160.398 158.839C160.398 159.435 159.911 159.922 159.315 159.922Z" fill="#ADE4EF"/>
<path d="M227.737 177.286H130.693C130.099 177.286 129.613 176.8 129.613 176.207V176.2C129.613 175.606 130.099 175.12 130.693 175.12H227.737C228.331 175.12 228.817 175.606 228.817 176.2V176.207C228.817 176.8 228.331 177.286 227.737 177.286Z" fill="#71D0DF"/>
<path d="M227.737 185.477H130.693C130.099 185.477 129.613 184.991 129.613 184.397V184.392C129.613 183.798 130.099 183.311 130.693 183.311H227.737C228.331 183.311 228.817 183.798 228.817 184.392V184.397C228.817 184.991 228.331 185.477 227.737 185.477Z" fill="#71D0DF"/>
<path d="M227.737 193.668H130.693C130.099 193.668 129.613 193.183 129.613 192.589V192.582C129.613 191.989 130.099 191.503 130.693 191.503H227.737C228.331 191.503 228.817 191.989 228.817 192.582V192.589C228.817 193.183 228.331 193.668 227.737 193.668Z" fill="#71D0DF"/>
<path d="M223.728 157.536H179.764C176.965 157.536 174.675 155.246 174.675 152.447C174.675 149.649 176.965 147.358 179.764 147.358H223.728C226.527 147.358 228.817 149.649 228.817 152.447C228.817 155.246 226.527 157.536 223.728 157.536Z" fill="#F14087"/>
<path d="M222.006 89.7288C222.006 113.523 202.717 132.813 178.922 132.813C155.128 132.813 135.838 113.523 135.838 89.7288C135.838 65.9343 155.128 46.6453 178.922 46.6453C202.717 46.6453 222.006 65.9343 222.006 89.7288Z" fill="white"/>
<path d="M141.092 110.341C148.401 123.726 162.596 132.813 178.922 132.813C195.247 132.813 209.444 123.726 216.753 110.341H141.092Z" fill="#DFFAFE"/>
<path d="M178.922 123.126C168.051 123.126 159.24 120.538 159.24 117.345C159.24 116.04 160.71 114.837 163.19 113.869L164.081 119.909H176.716H181.128H193.763L194.655 113.869C197.135 114.837 198.605 116.04 198.605 117.345C198.605 120.538 189.793 123.126 178.922 123.126Z" fill="#C3EBEC"/>
<path d="M193.763 119.909H164.081L159.24 87.1002H198.605L193.763 119.909Z" fill="#F0336E"/>
<path d="M181.128 119.909H176.716L175.996 87.1002H181.848L181.128 119.909Z" fill="#51C6D7"/>
<path d="M197.275 96.1108C192.463 95.1982 187.211 94.6305 181.686 94.4872L181.848 87.1003H198.605L197.275 96.1108Z" fill="#CB2E5E"/>
<path d="M160.569 96.1108L159.24 87.1003H175.996L176.159 94.4872C170.634 94.6299 165.381 95.1982 160.569 96.1108Z" fill="#CB2E5E"/>
<path d="M181.686 94.4873C180.772 94.4636 179.85 94.4515 178.922 94.4515C177.994 94.4515 177.073 94.4636 176.159 94.4873L175.996 87.1004H181.848L181.686 94.4873Z" fill="#42ACBC"/>
<path d="M203.146 91.1592H154.698L154.188 81.1829H203.656L203.146 91.1592Z" fill="#F14087"/>
<path d="M183.414 91.1592H174.43L174.336 81.1829H183.509L183.414 91.1592Z" fill="#71D0DF"/>
<path d="M193.317 75.9698H164.527L154.188 81.1826H203.656L193.317 75.9698Z" fill="#F576AF"/>
<path d="M181.592 75.9698H176.253L174.336 81.1826H183.509L181.592 75.9698Z" fill="#D1F0F5"/>
<path d="M161.481 61.05C161.481 61.05 168.084 57.1537 178.922 71.7905C178.922 71.7905 150.18 71.6856 161.481 61.05Z" fill="#349BAF"/>
<path d="M178.922 71.7908C178.922 71.7908 154.587 69.1297 161.481 61.0503C161.481 61.0503 154.605 63.1418 154.789 71.7908C154.973 80.4404 166.563 80.8206 178.922 76.3534V71.7908Z" fill="#51C6D7"/>
<path d="M196.364 61.05C196.364 61.05 189.76 57.1537 178.922 71.7905C178.922 71.7905 207.663 71.6856 196.364 61.05Z" fill="#349BAF"/>
<path d="M178.922 71.7908C178.922 71.7908 203.257 69.1297 196.364 61.0503C196.364 61.0503 203.24 63.1418 203.056 71.7908C202.872 80.4404 191.281 80.8206 178.922 76.3534V71.7908Z" fill="#51C6D7"/>
<path d="M184.715 73.3242C184.715 76.5242 182.122 79.1182 178.922 79.1182C175.723 79.1182 173.128 76.5242 173.128 73.3242C173.128 70.1249 175.723 67.531 178.922 67.531C182.122 67.531 184.715 70.1249 184.715 73.3242Z" fill="#71D0DF"/>
</svg>
