<svg width="34" height="34" viewBox="0 0 34 34" fill="none" xmlns="http://www.w3.org/2000/svg">
<path d="M25 22.3668C25 24.0002 23.6667 25.3335 22.0333 25.3335C20.4 25.3335 19.0833 24.0002 19.0833 22.3668C19.0833 20.7335 20.4 19.4168 22.0333 19.4168C23.6667 19.4168 25 20.7335 25 22.3668ZM11.3833 14.6668C13.0167 14.6668 14.3333 13.3502 14.3333 11.7168C14.3333 10.0668 13.0167 8.75016 11.3833 8.75016C9.73333 8.75016 8.41667 10.0668 8.41667 11.7168C8.41667 13.3502 9.73333 14.6668 11.3833 14.6668ZM8.33333 22.8835L10.8333 25.3835L25.05 11.1668L22.55 8.66683L8.33333 22.8835ZM33.3333 17.0002C33.3333 26.1668 25.8333 33.6668 16.6667 33.6668C7.5 33.6668 0 26.1668 0 17.0002C0 7.8335 7.5 0.333496 16.6667 0.333496C25.8333 0.333496 33.3333 7.8335 33.3333 17.0002ZM30 17.0002C30 9.65016 24.0167 3.66683 16.6667 3.66683C9.31667 3.66683 3.33333 9.65016 3.33333 17.0002C3.33333 24.3502 9.31667 30.3335 16.6667 30.3335C24.0167 30.3335 30 24.3502 30 17.0002Z" fill="#E91E63"/>
</svg>
