<svg width="40" height="40" viewBox="0 0 40 40" fill="none" xmlns="http://www.w3.org/2000/svg">
<path fill-rule="evenodd" clip-rule="evenodd" d="M24.5118 0.488155C25.1627 1.13903 25.1627 2.1943 24.5118 2.84518L20.6904 6.66667H30C32.2101 6.66667 34.3298 7.54464 35.8926 9.10744C37.4554 10.6702 38.3333 12.7899 38.3333 15C38.3333 17.2101 37.4554 19.3298 35.8926 20.8926C34.3298 22.4554 32.2101 23.3333 30 23.3333H28.3333C27.4129 23.3333 26.6667 22.5871 26.6667 21.6667C26.6667 20.7462 27.4129 20 28.3333 20H30C31.3261 20 32.5978 19.4732 33.5355 18.5355C34.4732 17.5979 35 16.3261 35 15C35 13.6739 34.4732 12.4021 33.5355 11.4645C32.5978 10.5268 31.3261 10 30 10H20.6904L24.5118 13.8215C25.1627 14.4724 25.1627 15.5276 24.5118 16.1785C23.861 16.8294 22.8057 16.8294 22.1548 16.1785L15.4882 9.51184C14.8373 8.86097 14.8373 7.8057 15.4882 7.15482L22.1548 0.488155C22.8057 -0.162719 23.861 -0.162719 24.5118 0.488155Z" fill="#E91E63"/>
<path d="M6.66669 16.6665C5.74481 16.6665 5.00002 17.4113 5.00002 18.3332V28.3332H3.33335C2.41148 28.3332 1.66669 29.078 1.66669 29.9998C1.66669 30.9217 2.41148 31.6665 3.33335 31.6665H5.00002V33.3332H3.33335C2.41148 33.3332 1.66669 34.078 1.66669 34.9998C1.66669 35.9217 2.41148 36.6665 3.33335 36.6665H5.00002V38.3332C5.00002 39.255 5.74481 39.9998 6.66669 39.9998C7.58856 39.9998 8.33335 39.255 8.33335 38.3332V36.6665H15C15.9219 36.6665 16.6667 35.9217 16.6667 34.9998C16.6667 34.078 15.9219 33.3332 15 33.3332H8.33335V31.6665H14.1667C18.3073 31.6665 21.6667 28.3071 21.6667 24.1665C21.6667 20.0259 18.3073 16.6665 14.1667 16.6665H6.66669ZM14.1667 28.3332H8.33335V19.9998H14.1667C16.4688 19.9998 18.3334 21.8644 18.3334 24.1665C18.3334 26.4686 16.4688 28.3332 14.1667 28.3332Z" fill="#E91E63"/>
</svg>
