<svg width="41" height="40" viewBox="0 0 41 40" fill="none" xmlns="http://www.w3.org/2000/svg">
<path fill-rule="evenodd" clip-rule="evenodd" d="M6.99988 20.0002C6.99988 19.0797 7.74607 18.3335 8.66654 18.3335H31.9999C32.9204 18.3335 33.6665 19.0797 33.6665 20.0002C33.6665 20.9206 32.9204 21.6668 31.9999 21.6668H8.66654C7.74607 21.6668 6.99988 20.9206 6.99988 20.0002Z" fill="white"/>
<path fill-rule="evenodd" clip-rule="evenodd" d="M19.1548 7.15466C19.8057 6.50379 20.8609 6.50379 21.5118 7.15466L33.1785 18.8213C33.8293 19.4722 33.8293 20.5275 33.1785 21.1783L21.5118 32.845C20.8609 33.4959 19.8057 33.4959 19.1548 32.845C18.5039 32.1941 18.5039 31.1389 19.1548 30.488L29.6429 19.9998L19.1548 9.51168C18.5039 8.86081 18.5039 7.80553 19.1548 7.15466Z" fill="white"/>
</svg>
