<svg width="25" height="24" viewBox="0 0 25 24" fill="none" xmlns="http://www.w3.org/2000/svg">
<path fill-rule="evenodd" clip-rule="evenodd" d="M5.71447 15.4645C6.65215 14.5268 7.92392 14 9.25 14H15.25C16.5761 14 17.8479 14.5268 18.7855 15.4645C19.7232 16.4021 20.25 17.6739 20.25 19V21C20.25 21.5523 19.8023 22 19.25 22C18.6977 22 18.25 21.5523 18.25 21V19C18.25 18.2044 17.9339 17.4413 17.3713 16.8787C16.8087 16.3161 16.0456 16 15.25 16H9.25C8.45435 16 7.69129 16.3161 7.12868 16.8787C6.56607 17.4413 6.25 18.2044 6.25 19V21C6.25 21.5523 5.80228 22 5.25 22C4.69772 22 4.25 21.5523 4.25 21V19C4.25 17.6739 4.77678 16.4021 5.71447 15.4645Z" fill="#E91E63"/>
<path fill-rule="evenodd" clip-rule="evenodd" d="M12.25 4C10.5931 4 9.25 5.34315 9.25 7C9.25 8.65685 10.5931 10 12.25 10C13.9069 10 15.25 8.65685 15.25 7C15.25 5.34315 13.9069 4 12.25 4ZM7.25 7C7.25 4.23858 9.48858 2 12.25 2C15.0114 2 17.25 4.23858 17.25 7C17.25 9.76142 15.0114 12 12.25 12C9.48858 12 7.25 9.76142 7.25 7Z" fill="#E91E63"/>
</svg>
