<svg width="25" height="24" viewBox="0 0 25 24" fill="none" xmlns="http://www.w3.org/2000/svg">
<path fill-rule="evenodd" clip-rule="evenodd" d="M6.5 21C6.5 19.8954 7.39543 19 8.5 19C9.60457 19 10.5 19.8954 10.5 21C10.5 22.1046 9.60457 23 8.5 23C7.39543 23 6.5 22.1046 6.5 21Z" fill="#222222"/>
<path fill-rule="evenodd" clip-rule="evenodd" d="M17.5 21C17.5 19.8954 18.3954 19 19.5 19C20.6046 19 21.5 19.8954 21.5 21C21.5 22.1046 20.6046 23 19.5 23C18.3954 23 17.5 22.1046 17.5 21Z" fill="#222222"/>
<path fill-rule="evenodd" clip-rule="evenodd" d="M1.54999 2.0498C1.54999 1.49752 1.9977 1.0498 2.54999 1.0498H4.54999C5.02157 1.0498 5.42905 1.37926 5.52781 1.84038L6.42935 6.0498H22.59C22.8933 6.0498 23.1802 6.18745 23.37 6.42402C23.5598 6.66059 23.632 6.97051 23.5662 7.2666L21.9166 14.6948C21.9165 14.6951 21.9167 14.6945 21.9166 14.6948C21.7697 15.3613 21.3997 15.9585 20.8681 16.3866C20.3363 16.8147 19.6744 17.0487 18.9916 17.0498L9.22001 17.0498C8.52664 17.0624 7.85017 16.8344 7.3058 16.4043C6.75824 15.9718 6.3786 15.3618 6.23223 14.6796L4.65271 7.30449C4.64505 7.27533 4.63868 7.24565 4.63365 7.21551L3.74148 3.0498H2.54999C1.9977 3.0498 1.54999 2.60209 1.54999 2.0498ZM6.85769 8.0498L8.18774 14.2601C8.18772 14.2599 8.18777 14.2602 8.18774 14.2601C8.23658 14.4873 8.36317 14.6909 8.5456 14.835C8.72812 14.9792 8.95519 15.0552 9.18774 15.0501L9.20999 15.0498L18.9884 15.0498C18.9882 15.0498 18.9885 15.0498 18.9884 15.0498C19.2158 15.0493 19.4367 14.9713 19.6139 14.8287C19.7912 14.686 19.9144 14.4871 19.9634 14.2648L21.3436 8.0498H6.85769Z" fill="#222222"/>
</svg>
