<svg width="25" height="24" viewBox="0 0 25 24" fill="none" xmlns="http://www.w3.org/2000/svg">
<path fill-rule="evenodd" clip-rule="evenodd" d="M15.3741 0.292893C15.7646 0.683417 15.7646 1.31658 15.3741 1.70711L13.0812 4H18.667C19.9931 4 21.2648 4.52678 22.2025 5.46447C23.1402 6.40215 23.667 7.67392 23.667 9C23.667 10.3261 23.1402 11.5979 22.2025 12.5355C21.2648 13.4732 19.9931 14 18.667 14H17.667C17.1147 14 16.667 13.5523 16.667 13C16.667 12.4477 17.1147 12 17.667 12H18.667C19.4626 12 20.2257 11.6839 20.7883 11.1213C21.3509 10.5587 21.667 9.79565 21.667 9C21.667 8.20435 21.3509 7.44129 20.7883 6.87868C20.2257 6.31607 19.4626 6 18.667 6H13.0812L15.3741 8.29289C15.7646 8.68342 15.7646 9.31658 15.3741 9.70711C14.9836 10.0976 14.3504 10.0976 13.9599 9.70711L9.95989 5.70711C9.56936 5.31658 9.56936 4.68342 9.95989 4.29289L13.9599 0.292893C14.3504 -0.0976311 14.9836 -0.0976311 15.3741 0.292893Z" fill="#E91E63"/>
<path d="M4.66699 10C4.11387 10 3.66699 10.4469 3.66699 11V17H2.66699C2.11387 17 1.66699 17.4469 1.66699 18C1.66699 18.5531 2.11387 19 2.66699 19H3.66699V20H2.66699C2.11387 20 1.66699 20.4469 1.66699 21C1.66699 21.5531 2.11387 22 2.66699 22H3.66699V23C3.66699 23.5531 4.11387 24 4.66699 24C5.22012 24 5.66699 23.5531 5.66699 23V22H9.66699C10.2201 22 10.667 21.5531 10.667 21C10.667 20.4469 10.2201 20 9.66699 20H5.66699V19H9.16699C11.6514 19 13.667 16.9844 13.667 14.5C13.667 12.0156 11.6514 10 9.16699 10H4.66699ZM9.16699 17H5.66699V12H9.16699C10.5482 12 11.667 13.1188 11.667 14.5C11.667 15.8812 10.5482 17 9.16699 17Z" fill="#E91E63"/>
</svg>
