<svg width="24" height="24" viewBox="0 0 24 24" fill="none" xmlns="http://www.w3.org/2000/svg">
<g clip-path="url(#clip0_1097_9285)">
<path d="M12.0003 2C13.6577 2 15.2743 2.51481 16.6265 3.47328C17.9787 4.43175 18.9999 5.78655 19.5488 7.35047C20.0977 8.91439 20.1474 10.6102 19.6908 12.2035C19.2343 13.7969 18.2941 15.2091 17.0003 16.245V20.855C17.0003 21.0327 16.9572 21.2078 16.8748 21.3652C16.7923 21.5227 16.673 21.6578 16.5269 21.759C16.3809 21.8602 16.2124 21.9246 16.0361 21.9465C15.8597 21.9685 15.6807 21.9474 15.5143 21.885L12.0003 20.569L8.48628 21.887C8.31978 21.9494 8.14065 21.9705 7.96422 21.9485C7.78778 21.9265 7.61931 21.8621 7.47323 21.7607C7.32715 21.6594 7.20781 21.5241 7.12544 21.3666C7.04307 21.209 7.00012 21.0338 7.00028 20.856V16.246C5.70603 15.2102 4.76551 13.7979 4.30873 12.2044C3.85195 10.6109 3.90147 8.91479 4.45046 7.35064C4.99944 5.78648 6.02076 4.43148 7.37325 3.47297C8.72573 2.51445 10.3426 1.99974 12.0003 2ZM12.0003 4C10.409 4 8.88285 4.63214 7.75764 5.75736C6.63242 6.88258 6.00028 8.4087 6.00028 10C6.00028 11.5913 6.63242 13.1174 7.75764 14.2426C8.88285 15.3679 10.409 16 12.0003 16C13.5916 16 15.1177 15.3679 16.2429 14.2426C17.3681 13.1174 18.0003 11.5913 18.0003 10C18.0003 8.4087 17.3681 6.88258 16.2429 5.75736C15.1177 4.63214 13.5916 4 12.0003 4ZM12.0003 6C13.0611 6 14.0786 6.42143 14.8287 7.17157C15.5788 7.92172 16.0003 8.93913 16.0003 10C16.0003 11.0609 15.5788 12.0783 14.8287 12.8284C14.0786 13.5786 13.0611 14 12.0003 14C10.9394 14 9.92199 13.5786 9.17185 12.8284C8.4217 12.0783 8.00028 11.0609 8.00028 10C8.00028 8.93913 8.4217 7.92172 9.17185 7.17157C9.92199 6.42143 10.9394 6 12.0003 6Z" fill="#E91E63"/>
</g>
<defs>
<clipPath id="clip0_1097_9285">
<rect width="24" height="24" fill="white"/>
</clipPath>
</defs>
</svg>
