<svg width="25" height="24" viewBox="0 0 25 24" fill="none" xmlns="http://www.w3.org/2000/svg">
<path d="M8.83301 2C6.33301 2 4.33301 4 4.33301 6.5V7C3.22301 7 2.33301 7.89 2.33301 9V18C2.33301 19.11 3.22301 20 4.33301 20H9.05301C10.513 21.29 12.393 22 14.333 22C16.4547 22 18.4896 21.1571 19.9899 19.6569C21.4902 18.1566 22.333 16.1217 22.333 14C22.333 11.8783 21.4902 9.84344 19.9899 8.34315C18.4896 6.84285 16.4547 6 14.333 6C13.993 6 13.653 6.03 13.333 6.08C13.093 3.77 11.153 2 8.83301 2ZM8.83301 4C9.49605 4 10.1319 4.26339 10.6008 4.73223C11.0696 5.20107 11.333 5.83696 11.333 6.5V7H6.33301V6.5C6.33301 5.83696 6.5964 5.20107 7.06524 4.73223C7.53408 4.26339 8.16997 4 8.83301 4ZM14.333 8C15.9243 8 17.4504 8.63214 18.5756 9.75736C19.7009 10.8826 20.333 12.4087 20.333 14C20.333 15.5913 19.7009 17.1174 18.5756 18.2426C17.4504 19.3679 15.9243 20 14.333 20C12.7417 20 11.2156 19.3679 10.0904 18.2426C8.96515 17.1174 8.33301 15.5913 8.33301 14C8.33301 12.4087 8.96515 10.8826 10.0904 9.75736C11.2156 8.63214 12.7417 8 14.333 8ZM13.333 10V15L16.973 17.19L17.753 15.9L14.833 14.15V10H13.333Z" fill="#E91E63"/>
</svg>
