<svg width="24" height="24" viewBox="0 0 24 24" fill="none" xmlns="http://www.w3.org/2000/svg">
<path fill-rule="evenodd" clip-rule="evenodd" d="M6 21C6 19.8954 6.89543 19 8 19C9.10457 19 10 19.8954 10 21C10 22.1046 9.10457 23 8 23C6.89543 23 6 22.1046 6 21Z" fill="#E91E63"/>
<path fill-rule="evenodd" clip-rule="evenodd" d="M17 21C17 19.8954 17.8954 19 19 19C20.1046 19 21 19.8954 21 21C21 22.1046 20.1046 23 19 23C17.8954 23 17 22.1046 17 21Z" fill="#E91E63"/>
<path fill-rule="evenodd" clip-rule="evenodd" d="M1.0498 2.04999C1.0498 1.4977 1.49752 1.04999 2.0498 1.04999H4.0498C4.52138 1.04999 4.92887 1.37944 5.02763 1.84057L5.92916 6.04999H22.0898C22.3931 6.04999 22.68 6.18764 22.8698 6.4242C23.0596 6.66077 23.1318 6.9707 23.066 7.26678L21.4164 14.695C21.4164 14.6953 21.4165 14.6947 21.4164 14.695C21.2695 15.3615 20.8996 15.9587 20.368 16.3867C19.8361 16.8149 19.1742 17.0489 18.4914 17.05L8.71983 17.05C8.02646 17.0626 7.34998 16.8346 6.80562 16.4045C6.25806 15.972 5.87842 15.362 5.73205 14.6797L4.15253 7.30467C4.14487 7.27551 4.1385 7.24583 4.13347 7.2157L3.2413 3.04999H2.0498C1.49752 3.04999 1.0498 2.60227 1.0498 2.04999ZM6.35751 8.04999L7.68756 14.2602C7.68754 14.2601 7.68758 14.2603 7.68756 14.2602C7.7364 14.4875 7.86298 14.691 8.04541 14.8352C8.22793 14.9794 8.45501 15.0554 8.68756 15.0502L8.7098 15.05L18.4882 15.05C18.488 15.05 18.4884 15.05 18.4882 15.05C18.7156 15.0495 18.9366 14.9715 19.1137 14.8289C19.291 14.6862 19.4143 14.4873 19.4632 14.265L20.8434 8.04999H6.35751Z" fill="#E91E63"/>
</svg>
