<svg width="36" height="36" viewBox="0 0 36 36" fill="none" xmlns="http://www.w3.org/2000/svg">
<path fill-rule="evenodd" clip-rule="evenodd" d="M22.0607 0.43934C22.6464 1.02513 22.6464 1.97487 22.0607 2.56066L18.6213 6H27C28.9891 6 30.8968 6.79018 32.3033 8.1967C33.7098 9.60322 34.5 11.5109 34.5 13.5C34.5 15.4891 33.7098 17.3968 32.3033 18.8033C30.8968 20.2098 28.9891 21 27 21H25.5C24.6716 21 24 20.3284 24 19.5C24 18.6716 24.6716 18 25.5 18H27C28.1935 18 29.3381 17.5259 30.182 16.682C31.0259 15.8381 31.5 14.6935 31.5 13.5C31.5 12.3065 31.0259 11.1619 30.182 10.318C29.3381 9.4741 28.1935 9 27 9H18.6213L22.0607 12.4393C22.6464 13.0251 22.6464 13.9749 22.0607 14.5607C21.4749 15.1464 20.5251 15.1464 19.9393 14.5607L13.9393 8.56066C13.3536 7.97487 13.3536 7.02513 13.9393 6.43934L19.9393 0.43934C20.5251 -0.146447 21.4749 -0.146447 22.0607 0.43934Z" fill="white"/>
<path d="M6 15C5.17031 15 4.5 15.6703 4.5 16.5V25.5H3C2.17031 25.5 1.5 26.1703 1.5 27C1.5 27.8297 2.17031 28.5 3 28.5H4.5V30H3C2.17031 30 1.5 30.6703 1.5 31.5C1.5 32.3297 2.17031 33 3 33H4.5V34.5C4.5 35.3297 5.17031 36 6 36C6.82969 36 7.5 35.3297 7.5 34.5V33H13.5C14.3297 33 15 32.3297 15 31.5C15 30.6703 14.3297 30 13.5 30H7.5V28.5H12.75C16.4766 28.5 19.5 25.4766 19.5 21.75C19.5 18.0234 16.4766 15 12.75 15H6ZM12.75 25.5H7.5V18H12.75C14.8219 18 16.5 19.6781 16.5 21.75C16.5 23.8219 14.8219 25.5 12.75 25.5Z" fill="white"/>
</svg>
