<svg width="25" height="30" viewBox="0 0 25 30" fill="none" xmlns="http://www.w3.org/2000/svg">
<path d="M12.9999 1.47007e-07C15.4861 -6.29927e-07 17.9109 0.77221 19.9393 2.20991C21.9676 3.64762 23.4993 5.67983 24.3227 8.02571C25.1461 10.3716 25.2205 12.9153 24.5357 15.3053C23.8509 17.6953 22.4407 19.8136 20.4999 21.3675V28.2825C20.4999 28.5491 20.4353 28.8117 20.3117 29.0478C20.188 29.284 20.009 29.4867 19.7899 29.6385C19.5708 29.7904 19.3182 29.8869 19.0536 29.9198C18.7891 29.9527 18.5205 29.921 18.2709 29.8275L12.9999 27.8535L7.72893 29.8305C7.47919 29.9241 7.21048 29.9557 6.94584 29.9228C6.68119 29.8898 6.42848 29.7931 6.20935 29.6411C5.99023 29.4891 5.81123 29.2862 5.68767 29.0498C5.56412 28.8135 5.4997 28.5507 5.49993 28.284V21.369C3.55855 19.8153 2.14777 17.6969 1.4626 15.3066C0.777436 12.9163 0.851724 10.3722 1.6752 8.02595C2.49867 5.67972 4.03066 3.64723 6.05938 2.20945C8.08811 0.771669 10.5134 -0.000388961 12.9999 1.47007e-07ZM12.9999 3C10.613 3 8.32379 3.94821 6.63596 5.63604C4.94814 7.32387 3.99993 9.61305 3.99993 12C3.99993 14.3869 4.94814 16.6761 6.63596 18.364C8.32379 20.0518 10.613 21 12.9999 21C15.3869 21 17.6761 20.0518 19.3639 18.364C21.0517 16.6761 21.9999 14.3869 21.9999 12C21.9999 9.61305 21.0517 7.32387 19.3639 5.63604C17.6761 3.94821 15.3869 3 12.9999 3ZM12.9999 6C14.5912 6 16.1173 6.63214 17.2426 7.75736C18.3678 8.88258 18.9999 10.4087 18.9999 12C18.9999 13.5913 18.3678 15.1174 17.2426 16.2426C16.1173 17.3679 14.5912 18 12.9999 18C11.4086 18 9.8825 17.3679 8.75729 16.2426C7.63207 15.1174 6.99993 13.5913 6.99993 12C6.99993 10.4087 7.63207 8.88258 8.75729 7.75736C9.8825 6.63214 11.4086 6 12.9999 6Z" fill="white"/>
</svg>
