<svg width="24" height="24" viewBox="0 0 24 24" fill="none" xmlns="http://www.w3.org/2000/svg">
<path fill-rule="evenodd" clip-rule="evenodd" d="M14.7071 0.292893C15.0976 0.683417 15.0976 1.31658 14.7071 1.70711L12.4142 4H18C19.3261 4 20.5979 4.52678 21.5355 5.46447C22.4732 6.40215 23 7.67392 23 9C23 10.3261 22.4732 11.5979 21.5355 12.5355C20.5979 13.4732 19.3261 14 18 14H17C16.4477 14 16 13.5523 16 13C16 12.4477 16.4477 12 17 12H18C18.7956 12 19.5587 11.6839 20.1213 11.1213C20.6839 10.5587 21 9.79565 21 9C21 8.20435 20.6839 7.44129 20.1213 6.87868C19.5587 6.31607 18.7956 6 18 6H12.4142L14.7071 8.29289C15.0976 8.68342 15.0976 9.31658 14.7071 9.70711C14.3166 10.0976 13.6834 10.0976 13.2929 9.70711L9.29289 5.70711C8.90237 5.31658 8.90237 4.68342 9.29289 4.29289L13.2929 0.292893C13.6834 -0.0976311 14.3166 -0.0976311 14.7071 0.292893Z" fill="#E91E63"/>
<path d="M4 10C3.44688 10 3 10.4469 3 11V17H2C1.44687 17 1 17.4469 1 18C1 18.5531 1.44687 19 2 19H3V20H2C1.44687 20 1 20.4469 1 21C1 21.5531 1.44687 22 2 22H3V23C3 23.5531 3.44688 24 4 24C4.55312 24 5 23.5531 5 23V22H9C9.55313 22 10 21.5531 10 21C10 20.4469 9.55313 20 9 20H5V19H8.5C10.9844 19 13 16.9844 13 14.5C13 12.0156 10.9844 10 8.5 10H4ZM8.5 17H5V12H8.5C9.88125 12 11 13.1188 11 14.5C11 15.8812 9.88125 17 8.5 17Z" fill="#E91E63"/>
</svg>
