<svg width="30" height="30" viewBox="0 0 30 30" fill="none" xmlns="http://www.w3.org/2000/svg">
<path d="M9.75 0C6 0 3 3 3 6.75V7.5C1.335 7.5 0 8.835 0 10.5V24C0 25.665 1.335 27 3 27H10.08C12.27 28.935 15.09 30 18 30C21.1826 30 24.2348 28.7357 26.4853 26.4853C28.7357 24.2348 30 21.1826 30 18C30 14.8174 28.7357 11.7652 26.4853 9.51472C24.2348 7.26428 21.1826 6 18 6C17.49 6 16.98 6.045 16.5 6.12C16.14 2.655 13.23 0 9.75 0ZM9.75 3C10.7446 3 11.6984 3.39509 12.4017 4.09835C13.1049 4.80161 13.5 5.75544 13.5 6.75V7.5H6V6.75C6 5.75544 6.39509 4.80161 7.09835 4.09835C7.80161 3.39509 8.75544 3 9.75 3ZM18 9C20.3869 9 22.6761 9.94821 24.364 11.636C26.0518 13.3239 27 15.6131 27 18C27 20.3869 26.0518 22.6761 24.364 24.364C22.6761 26.0518 20.3869 27 18 27C15.6131 27 13.3239 26.0518 11.636 24.364C9.94821 22.6761 9 20.3869 9 18C9 15.6131 9.94821 13.3239 11.636 11.636C13.3239 9.94821 15.6131 9 18 9ZM16.5 12V19.5L21.96 22.785L23.13 20.85L18.75 18.225V12H16.5Z" fill="white"/>
</svg>
