<svg width="120" height="120" viewBox="0 0 120 120" fill="none" xmlns="http://www.w3.org/2000/svg">
<g clip-path="url(#clip0_812_6328)">
<path d="M0.849487 72.1307C1.00197 71.6951 1.15444 71.2813 1.37227 70.8675C6.51295 60.4791 28.4915 56.1887 59.9891 60L66.3278 36.6969C33.9154 32.5807 10.2595 37.2196 6.3169 51.9637L0.849487 72.1307Z" fill="#0095FF"/>
<path d="M119.129 47.8694C118.998 48.2178 118.867 48.5663 118.715 48.9148C113.792 59.4556 91.7263 63.8113 59.9891 59.9783L53.6504 83.2814C86.0628 87.3975 109.719 82.7587 113.661 68.0146L119.129 47.8694Z" fill="#0000C9"/>
<path d="M21.5865 23.3031C69.421 26.7441 118.279 50.3956 113.661 68.0581L117.952 52.2904C119.325 47.3249 120 44.755 120 42.686C120 24.6969 72.8409 2.7441 27.9253 0L21.5865 23.3031Z" fill="#0095FF"/>
<path d="M98.3917 96.6751C50.5573 93.2559 1.69904 69.6043 6.33872 51.9419L2.04756 67.7096C0.675259 72.6751 0 75.245 0 77.3139C0 95.3031 47.1592 117.256 92.0748 120L98.3917 96.6751Z" fill="#0000C9"/>
</g>
<defs>
<clipPath id="clip0_812_6328">
<rect width="120" height="120" fill="white"/>
</clipPath>
</defs>
</svg>
