<svg width="120" height="120" viewBox="0 0 120 120" fill="none" xmlns="http://www.w3.org/2000/svg">
<g clip-path="url(#clip0_812_6286)">
<path d="M56.6842 17.8422H63.6316C64.4211 17.8422 65.0526 17.2106 65.0526 16.4211C65.0526 15.6316 64.4211 15.0001 63.6316 15.0001H56.6842V17.8422ZM56.6842 24.4737H63.7895C64.7369 24.4737 65.3684 23.8422 65.3684 22.8948C65.3684 21.9474 64.7369 21.3158 63.7895 21.3158H56.6842V24.4737ZM67.8947 19.4211C68.8421 20.3685 69.4737 21.6316 69.4737 23.0527C69.4737 25.8948 67.2632 28.1053 64.4211 28.1053H52.8947V11.5264H64.2632C66.9474 11.5264 69.1579 13.7369 69.1579 16.4211C69 17.5264 68.5263 18.6316 67.8947 19.4211ZM70.579 47.8422H66.3158L65.0526 45.0001H55.7369L54.4737 47.8422H50.2105L58.4211 31.2632H62.2105L70.579 47.8422ZM60.3158 35.5264L57.4737 41.5264H63.1579L60.3158 35.5264ZM66 51.4737H70.7368L62.3684 62.2106V68.0527H58.4211V62.2106L50.0526 51.4737H54.7895L60.4737 59.0527L66 51.4737ZM87.9474 51.4737V55.1053H76.8947V57.9474H87.6316V61.579H76.8947V64.7369H87.9474V68.3685H72.9474V51.4737H87.9474ZM100.105 61.7369H97.1053V68.0527H93.1579V51.4737H103.263C106.105 51.4737 108.316 53.8422 108.316 56.6843C108.316 59.0527 106.737 60.9474 104.684 61.579L109.579 68.0527H104.842L100.105 61.7369ZM102.947 54.9474H97.2632V58.1053H102.947C103.895 58.1053 104.526 57.3158 104.526 56.5264C104.526 55.7369 103.737 54.9474 102.947 54.9474ZM51.7895 68.0527H47.5263L46.2632 65.2106H36.9474L35.6842 68.0527H31.4211L39.7895 51.4737H43.579L51.7895 68.0527ZM41.5263 55.7369L38.6842 61.7369H44.5263L41.5263 55.7369ZM16.4211 57.7895H23.3684C24.1579 57.7895 24.7895 57.158 24.7895 56.3685C24.7895 55.579 24.1579 54.9474 23.3684 54.9474H16.4211V57.7895ZM16.4211 64.4211H23.5263C24.4737 64.4211 25.1053 63.7895 25.1053 62.8422C25.1053 61.8948 24.4737 61.2632 23.5263 61.2632H16.4211V64.4211ZM27.6316 59.3685C28.579 60.3158 29.2105 61.579 29.2105 63.0001C29.2105 65.8422 27 68.0527 24.1579 68.0527H12.4737V51.4737H23.8421C26.5263 51.4737 28.7369 53.6843 28.7369 56.3685C28.7369 57.4737 28.2632 58.579 27.6316 59.3685ZM67.8947 71.5264V75.1579H56.8421V78.0001H67.579V81.6316H56.8421V84.7895H67.8947V88.4211H52.8947V71.5264H67.8947ZM65.0526 97.2632C65.0526 96.3158 64.4211 95.6843 63.4737 95.6843H56.6842V98.8422H63.4737C64.4211 98.8422 65.0526 98.2106 65.0526 97.2632ZM52.7369 108.79V92.2106H63.7895C66.6316 92.2106 68.8421 94.579 68.8421 97.4211C68.8421 99.6316 67.5789 101.368 65.6842 102.158L70.7368 108.79H66L61.2632 102.474H56.6842V108.79H52.7369Z" fill="#10384F"/>
<path d="M120.158 56.2105C118.263 24.9474 92.2105 0 60.3158 0C28.4211 0 2.36843 24.9474 0.473694 56.2105C0.473694 57.4737 0.631589 58.7368 0.789483 60C2.05264 70.4211 6.00001 80.0526 12 88.1053C22.8947 102.947 40.4211 112.579 60.3158 112.579C32.5263 112.579 9.78948 90.9474 7.89475 63.7895C7.73685 62.5263 7.73685 61.2632 7.73685 60C7.73685 58.7368 7.73685 57.4737 7.89475 56.2105C9.78948 29.0526 32.5263 7.42105 60.3158 7.42105C80.2105 7.42105 97.7368 17.0526 108.632 31.8947C114.632 39.9474 118.579 49.5789 119.842 60C120 61.2632 120.158 62.5263 120.158 63.6316C120.158 62.3684 120.316 61.1053 120.316 59.8421C120.316 58.7368 120.316 57.4737 120.158 56.2105Z" fill="#89D329"/>
<path d="M0.473691 63.7894C2.36843 95.0526 28.4211 120 60.3158 120C92.2105 120 118.263 95.0526 120.158 63.7894C120.158 62.5263 120 61.2631 119.842 60C118.579 49.5789 114.632 39.9473 108.632 31.8947C97.7369 17.0526 80.2105 7.42102 60.3158 7.42102C88.1053 7.42102 110.842 29.0526 112.737 56.2105C112.895 57.4736 112.895 58.7368 112.895 60C112.895 61.2631 112.895 62.5263 112.737 63.7894C110.842 91.1052 88.1053 112.579 60.3158 112.579C40.4211 112.579 22.8947 102.947 12 88.1052C6.00001 80.0526 2.05264 70.421 0.78948 60C0.631585 58.7368 0.473691 57.4737 0.473691 56.3684C0.473691 57.6315 0.315796 58.8947 0.315796 60.1579C0.315796 61.2631 0.315796 62.5263 0.473691 63.7894Z" fill="#00BCFF"/>
</g>
<defs>
<clipPath id="clip0_812_6286">
<rect width="120" height="120" fill="white"/>
</clipPath>
</defs>
</svg>
