<svg width="120" height="120" viewBox="0 0 120 120" fill="none" xmlns="http://www.w3.org/2000/svg">
<path d="M80.4856 53.7521L80.1873 54.5454C85.1592 56.7273 96.2964 65.3554 96.2964 82.8099C96.2964 99.2727 82.375 115.736 60.5978 115.736C33.4508 115.736 24.1036 99.8678 24.1036 85.3884C24.1036 66.7438 37.1301 54.3471 37.1301 37.3884C37.0307 24.9917 28.28 14.3801 16.1484 11.8016L15.6512 12.595C19.9271 16.7603 22.4131 22.5124 22.3136 28.4628C22.5125 46.8099 7 59.8016 7 80.9256C7 100.264 20.6232 120 59.9017 120C94.9043 120 113.4 102.843 113.4 84.6942C113.4 69.0248 102.163 55.8347 80.4856 53.7521Z" fill="url(#paint0_linear_812_6300)"/>
<path d="M60.3989 93.719L70.3428 0H49.6594L59.6033 93.719H60.3989Z" fill="#0460A9"/>
<defs>
<linearGradient id="paint0_linear_812_6300" x1="7" y1="65.9045" x2="113.441" y2="65.9045" gradientUnits="userSpaceOnUse">
<stop offset="0.3" stop-color="#E74A21"/>
<stop offset="0.7" stop-color="#EC9A1E"/>
</linearGradient>
</defs>
</svg>
