<svg width="120" height="120" viewBox="0 0 120 120" fill="none" xmlns="http://www.w3.org/2000/svg">
<g clip-path="url(#clip0_812_6305)">
<path d="M93.2283 92.3482H27.096L0.106201 60.1044L27.096 27.6H93.2656L120.143 60.1789L93.2283 92.3482ZM28.5498 89.0717H91.7744L115.894 60.1789L91.7744 30.9137H28.5498L4.31869 60.1044L28.5498 89.0717Z" fill="#00006C"/>
<path d="M28.5125 70.9392V59.6203H31.1966C31.9049 59.6203 32.4641 59.8065 32.8369 60.2161C33.2096 60.5884 33.4333 61.2586 33.5079 62.1522L34.4398 70.9764H38.0931L37.0866 61.8171C36.9748 60.7373 36.7138 59.881 36.3411 59.2852C35.9683 58.6895 35.4464 58.28 34.8126 58.0566C35.8564 57.5353 36.6393 56.8279 37.2357 55.9343C37.8322 55.0407 38.1304 53.7748 38.1304 52.1737C38.1304 50.1259 37.5712 48.4877 36.4529 47.2962C35.3345 46.1048 33.8061 45.509 31.8676 45.509H24.7847V70.9019H28.5125V70.9392ZM28.5125 56.2694V48.86H31.5694C32.4641 48.86 33.1724 49.1579 33.6943 49.7536C34.1789 50.3493 34.4398 51.2801 34.4398 52.5461C34.4398 53.812 34.1789 54.7428 33.6943 55.3385C33.2096 55.9343 32.5014 56.2321 31.5694 56.2321H28.5125V56.2694ZM46.7791 71.386C48.0465 71.386 49.2022 71.0881 50.2087 70.4551C51.2152 69.8222 51.9608 68.9286 52.52 67.7744C53.0792 66.6201 53.3401 65.2425 53.3401 63.716V60.2161C53.3401 58.6523 53.0792 57.3119 52.52 56.1577C51.9608 55.0034 51.2152 54.1099 50.2087 53.4769C49.2022 52.8439 48.0838 52.5461 46.7791 52.5461C45.5116 52.5461 44.356 52.8439 43.3494 53.4769C42.3429 54.1099 41.5973 55.0034 41.0382 56.1577C40.479 57.3119 40.218 58.6895 40.218 60.2161V63.716C40.218 65.2798 40.479 66.6201 41.0382 67.7744C41.5973 68.9286 42.3429 69.8222 43.3494 70.4551C44.356 71.0509 45.5116 71.386 46.7791 71.386ZM46.7791 68.0722C45.8471 68.0722 45.1015 67.6999 44.5424 66.9552C43.9832 66.2106 43.6849 65.1681 43.6849 63.8277V60.0299C43.6849 58.6895 43.9459 57.647 44.5424 56.9396C45.1015 56.1949 45.8471 55.8226 46.7791 55.8226C47.711 55.8226 48.4566 56.1949 49.0158 56.9396C49.575 57.6842 49.8732 58.7268 49.8732 60.0299V63.8277C49.8732 65.1681 49.6123 66.2106 49.0158 66.9552C48.4566 67.6999 47.711 68.0722 46.7791 68.0722ZM62.7343 71.386C64.5237 71.386 65.903 70.8647 66.9468 69.8594C67.9906 68.8169 68.6616 67.402 68.9972 65.5032L65.8285 64.7585C65.6421 65.8383 65.2693 66.6574 64.7847 67.2159C64.2628 67.8116 63.5918 68.0722 62.7716 68.0722C61.8397 68.0722 61.0941 67.6999 60.4976 66.9925C59.9384 66.2851 59.6402 65.2425 59.6402 63.8649V60.0299C59.6402 58.6895 59.9384 57.647 60.4976 56.9396C61.0568 56.1949 61.8397 55.8226 62.7716 55.8226C64.4492 55.8226 65.493 56.9396 65.903 59.1735L69.0717 58.3917C68.8108 56.53 68.177 55.0779 67.0959 54.0726C66.0521 53.0301 64.5983 52.5461 62.7716 52.5461C60.7959 52.5461 59.1929 53.2535 58 54.6311C56.807 56.0087 56.2106 57.9076 56.2106 60.2905V63.6787C56.2106 66.0617 56.807 67.9233 58 69.3382C59.1556 70.6785 60.7586 71.386 62.7343 71.386ZM75.1109 70.9392V58.9501C75.1109 57.9449 75.3718 57.163 75.931 56.6045C76.4529 56.0087 77.1612 55.7481 77.944 55.7481C78.7642 55.7481 79.4352 56.046 79.9571 56.6045C80.479 57.2002 80.7772 57.9821 80.7772 58.9501V70.9764H84.1323V58.3172C84.1323 56.4928 83.6849 55.0779 82.753 54.0726C81.8583 53.0673 80.5908 52.5461 79.0251 52.5461C78.1677 52.5461 77.3849 52.7322 76.6393 53.1046C75.931 53.4769 75.3718 53.9237 75.0736 54.4822V45.5463H71.7185V70.9392H75.1109ZM99.4165 60.1044C99.4165 57.7215 98.8574 55.8598 97.7017 54.5194C96.5834 53.179 95.0549 52.5088 93.1164 52.5088C91.8862 52.5088 90.7679 52.8067 89.7986 53.4397C88.8294 54.0726 88.0838 54.9662 87.5246 56.1204C86.9655 57.2747 86.7045 58.6523 86.7045 60.2161V63.6043C86.7045 65.9872 87.301 67.8488 88.4566 69.2637C89.6123 70.6785 91.178 71.386 93.1537 71.386C94.8685 71.386 96.2106 70.9019 97.2171 69.8967C98.2236 68.8914 98.8946 67.5882 99.1929 65.95L96.0987 65.2425C95.9123 66.2106 95.5768 66.9552 95.0922 67.5137C94.6076 68.0722 93.9739 68.3329 93.1537 68.3329C92.2963 68.3329 91.588 67.9605 91.0288 67.2159C90.4697 66.4712 90.1714 65.4287 90.1714 64.0883V62.599H99.3793V60.1044H99.4165ZM93.1537 55.5247C94.0857 55.5247 94.8313 55.897 95.3532 56.6417C95.8751 57.3864 96.1733 58.3544 96.1733 59.6203V60.1788H90.2087V59.7693C90.2087 58.4661 90.4697 57.4236 90.9916 56.6789C91.5135 55.897 92.2218 55.5247 93.1537 55.5247Z" fill="#00006C"/>
</g>
<defs>
<clipPath id="clip0_812_6305">
<rect width="120" height="120" fill="white"/>
</clipPath>
</defs>
</svg>
