<svg width="28" height="28" viewBox="0 0 28 28" fill="none" xmlns="http://www.w3.org/2000/svg">
<path d="M14 0.666504C6.63996 0.666504 0.666626 6.63984 0.666626 13.9998C0.666626 21.3598 6.63996 27.3332 14 27.3332C21.36 27.3332 27.3333 21.3598 27.3333 13.9998C27.3333 6.63984 21.36 0.666504 14 0.666504ZM20.1866 9.73317C19.9866 11.8398 19.12 16.9598 18.68 19.3198C18.4933 20.3198 18.12 20.6532 17.7733 20.6932C17 20.7598 16.4133 20.1865 15.6666 19.6932C14.4933 18.9198 13.8266 18.4398 12.6933 17.6932C11.3733 16.8265 12.2266 16.3465 12.9866 15.5732C13.1866 15.3732 16.6 12.2665 16.6666 11.9865C16.6759 11.9441 16.6747 11.9001 16.663 11.8582C16.6514 11.8164 16.6298 11.7781 16.6 11.7465C16.52 11.6798 16.4133 11.7065 16.32 11.7198C16.2 11.7465 14.3333 12.9865 10.6933 15.4398C10.16 15.7998 9.67996 15.9865 9.25329 15.9732C8.77329 15.9598 7.86663 15.7065 7.18663 15.4798C6.34663 15.2132 5.69329 15.0665 5.74663 14.5998C5.77329 14.3598 6.10663 14.1198 6.73329 13.8665C10.6266 12.1732 13.2133 11.0532 14.5066 10.5198C18.2133 8.97317 18.9733 8.7065 19.48 8.7065C19.5866 8.7065 19.84 8.73317 20 8.8665C20.1333 8.97317 20.1733 9.11984 20.1866 9.2265C20.1733 9.3065 20.2 9.5465 20.1866 9.73317Z" fill="#E91E63"/>
</svg>
