<svg width="28" height="28" viewBox="0 0 28 28" fill="none" xmlns="http://www.w3.org/2000/svg">
<path d="M14.0003 0.666748C6.64033 0.666748 0.666992 6.64008 0.666992 14.0001C0.666992 21.3601 6.64033 27.3334 14.0003 27.3334C21.3603 27.3334 27.3337 21.3601 27.3337 14.0001C27.3337 6.64008 21.3603 0.666748 14.0003 0.666748ZM20.187 9.73341C19.987 11.8401 19.1203 16.9601 18.6803 19.3201C18.4937 20.3201 18.1203 20.6534 17.7737 20.6934C17.0003 20.7601 16.4137 20.1867 15.667 19.6934C14.4937 18.9201 13.827 18.4401 12.6937 17.6934C11.3737 16.8267 12.227 16.3467 12.987 15.5734C13.187 15.3734 16.6003 12.2667 16.667 11.9867C16.6763 11.9443 16.675 11.9003 16.6634 11.8585C16.6518 11.8167 16.6301 11.7783 16.6003 11.7467C16.5203 11.6801 16.4137 11.7067 16.3203 11.7201C16.2003 11.7467 14.3337 12.9867 10.6937 15.4401C10.1603 15.8001 9.68032 15.9867 9.25366 15.9734C8.77366 15.9601 7.86699 15.7067 7.18699 15.4801C6.34699 15.2134 5.69366 15.0667 5.74699 14.6001C5.77366 14.3601 6.10699 14.1201 6.73366 13.8667C10.627 12.1734 13.2137 11.0534 14.507 10.5201C18.2137 8.97341 18.9737 8.70675 19.4803 8.70675C19.587 8.70675 19.8403 8.73341 20.0003 8.86675C20.1337 8.97341 20.1737 9.12008 20.187 9.22675C20.1737 9.30675 20.2003 9.54675 20.187 9.73341Z" fill="#222222"/>
</svg>
