<svg width="28" height="28" viewBox="0 0 28 28" fill="none" xmlns="http://www.w3.org/2000/svg">
<path d="M11.2108 0.670082L12.0208 0.666748H15.981L16.7921 0.670082L17.8077 0.681193L18.2888 0.688971L18.7533 0.701194L19.2011 0.71675L19.6322 0.734529L20.0478 0.757863L20.4478 0.785642L20.8312 0.818977L21.2012 0.855645C23.1346 1.07343 24.4602 1.54012 25.4602 2.54016C26.4603 3.5402 26.927 4.8647 27.1448 6.79923L27.1825 7.16924L27.2148 7.5537L27.2425 7.95372L27.2648 8.36818L27.2925 9.02154L27.3059 9.47711L27.3203 10.1927L27.3303 11.2094L27.3348 12.2983L27.3337 15.9796L27.3303 16.7908L27.3192 17.8063L27.3114 18.2875L27.2992 18.7519L27.2837 19.1997L27.2659 19.6309L27.2425 20.0464L27.2148 20.4465L27.1814 20.8298L27.1448 21.1998C26.927 23.1332 26.4603 24.4588 25.4602 25.4589C24.4602 26.4589 23.1357 26.9256 21.2012 27.1434L20.8312 27.1812L20.4467 27.2134L20.0467 27.2412L19.6322 27.2634L18.9789 27.2912L18.5233 27.3045L17.8077 27.319L16.791 27.329L15.7021 27.3334L12.0208 27.3323L11.2097 27.329L10.1941 27.3179L9.71292 27.3101L9.24846 27.2979L8.80066 27.2823L8.36954 27.2645L7.95396 27.2412L7.55395 27.2134L7.1706 27.1801L6.80058 27.1434C4.86717 26.9256 3.54156 26.4589 2.54151 25.4589C1.54147 24.4588 1.07479 23.1343 0.857 21.1998L0.819221 20.8298L0.786997 20.4453L0.759218 20.0453L0.736995 19.6309L0.709216 18.9775L0.695882 18.5219L0.681437 17.8063L0.671437 16.7896L0.666992 15.7007L0.668103 12.0194L0.671437 11.2083L0.682548 10.1927L0.690326 9.71157L0.702549 9.2471L0.718105 8.79931L0.735884 8.36818L0.759218 7.95261L0.786997 7.55259L0.820332 7.16924L0.857 6.79923C1.07479 4.86581 1.54147 3.5402 2.54151 2.54016C3.54156 1.54012 4.86606 1.07343 6.80058 0.855645L7.1706 0.817865L7.55506 0.785642L7.95507 0.757863L8.36954 0.73564L9.0229 0.707861L9.47847 0.694527L10.1941 0.680082L11.2108 0.670082ZM8.21175 8.77709H5.16718C5.31163 15.7107 8.77844 19.8775 14.8565 19.8775H15.2009V15.9107C17.4344 16.1329 19.1233 17.7663 19.8011 19.8775H22.9568C22.0901 16.7219 19.8122 14.9773 18.39 14.3106C19.8122 13.4884 21.8123 11.4883 22.2901 8.77709H19.4233C18.8011 10.9772 16.9566 12.9773 15.2009 13.1662V8.77709H12.3341V16.4663C10.5563 16.0218 8.31176 13.8662 8.21175 8.77709Z" fill="#222222"/>
</svg>
