<svg width="28" height="28" viewBox="0 0 28 28" fill="none" xmlns="http://www.w3.org/2000/svg">
<path d="M11.2104 0.669837L12.0204 0.666504H15.9806L16.7917 0.669837L17.8073 0.680949L18.2885 0.688727L18.7529 0.70095L19.2007 0.716506L19.6319 0.734285L20.0474 0.757619L20.4475 0.785398L20.8308 0.818732L21.2008 0.855401C23.1342 1.07319 24.4598 1.53987 25.4599 2.53992C26.4599 3.53996 26.9266 4.86446 27.1444 6.79898L27.1822 7.169L27.2144 7.55346L27.2422 7.95347L27.2644 8.36794L27.2922 9.0213L27.3055 9.47687L27.32 10.1925L27.33 11.2092L27.3344 12.2981L27.3333 15.9794L27.33 16.7905L27.3188 17.8061L27.3111 18.2872L27.2988 18.7517L27.2833 19.1995L27.2655 19.6306L27.2422 20.0462L27.2144 20.4462L27.1811 20.8296L27.1444 21.1996C26.9266 23.133 26.4599 24.4586 25.4599 25.4586C24.4598 26.4587 23.1353 26.9254 21.2008 27.1432L20.8308 27.1809L20.4463 27.2132L20.0463 27.2409L19.6319 27.2632L18.9785 27.2909L18.5229 27.3043L17.8073 27.3187L16.7906 27.3287L15.7017 27.3332L12.0204 27.3321L11.2093 27.3287L10.1937 27.3176L9.71256 27.3098L9.24809 27.2976L8.8003 27.2821L8.36917 27.2643L7.9536 27.2409L7.55358 27.2132L7.17023 27.1798L6.80021 27.1432C4.8668 26.9254 3.54119 26.4587 2.54115 25.4586C1.54111 24.4586 1.07442 23.1341 0.856634 21.1996L0.818855 20.8296L0.786631 20.4451L0.758852 20.0451L0.736629 19.6306L0.70885 18.9773L0.695516 18.5217L0.681071 17.8061L0.671071 16.7894L0.666626 15.7005L0.667737 12.0192L0.671071 11.2081L0.682182 10.1925L0.68996 9.71132L0.702183 9.24686L0.717739 8.79906L0.735518 8.36794L0.758852 7.95236L0.786631 7.55235L0.819966 7.169L0.856634 6.79898C1.07442 4.86557 1.54111 3.53996 2.54115 2.53992C3.54119 1.53987 4.86569 1.07319 6.80021 0.855401L7.17023 0.817621L7.55469 0.785398L7.95471 0.757619L8.36917 0.735396L9.02253 0.707617L9.4781 0.694283L10.1937 0.679838L11.2104 0.669837ZM8.21138 8.77684H5.16681C5.31126 15.7105 8.77808 19.8773 14.8561 19.8773H15.2006V15.9105C17.434 16.1327 19.1229 17.7661 19.8008 19.8773H22.9564C22.0897 16.7216 19.8119 14.9771 18.3896 14.3104C19.8119 13.4881 21.812 11.4881 22.2897 8.77684H19.423C18.8007 10.9769 16.9562 12.977 15.2006 13.1659V8.77684H12.3338V16.466C10.5559 16.0216 8.31139 13.8659 8.21138 8.77684Z" fill="#E91E63"/>
</svg>
