<svg width="79" height="100" viewBox="0 0 79 100" fill="none" xmlns="http://www.w3.org/2000/svg">
<path d="M68.7122 68.9613C69.3199 69.0886 69.8839 69.3521 70.3734 69.7445C70.8629 70.1368 71.2409 70.6293 71.4977 71.1941C71.7492 71.7498 71.8817 72.371 71.8817 73.0314V98.5562C71.8817 99.8039 71.4148 101.037 70.6498 102.033C69.8839 103.031 68.8131 103.801 67.6068 104.123L42.8569 110.733C42.3622 110.864 41.8057 110.963 41.2191 111.029C40.6144 111.096 39.9818 111.13 39.3576 111.13C38.7243 111.13 38.0827 111.095 37.4697 111.026C36.8711 110.958 36.3063 110.856 35.8093 110.723L11.3938 104.13C10.1882 103.806 9.11813 103.033 8.35305 102.034C7.58797 101.036 7.12109 99.8024 7.12109 98.5562V74.0548C7.12109 73.6294 7.29429 73.243 7.57517 72.9607L7.57818 72.9576C7.86057 72.6768 8.24763 72.5036 8.67234 72.5036C9.0978 72.5036 9.48486 72.6775 9.76724 72.9592L9.76875 72.9576C10.0496 73.2385 10.2228 73.6256 10.2228 74.0548V98.5562C10.2228 99.0991 10.4525 99.6707 10.8192 100.149C11.1852 100.626 11.6762 100.997 12.198 101.138L36.6143 107.73C37.347 107.928 38.3395 108.027 39.3365 108.029C40.3358 108.031 41.3298 107.934 42.0602 107.739L66.8085 101.129C67.3304 100.99 67.8214 100.621 68.1858 100.146C68.5518 99.6691 68.7815 99.0984 68.7815 98.5569V73.0322C68.7815 72.8274 68.7468 72.6444 68.6806 72.4915L68.6828 72.4908C68.6264 72.3597 68.542 72.2475 68.4351 72.1609L68.4366 72.1594C68.3334 72.0774 68.2047 72.0209 68.0586 71.993C67.8922 71.9606 67.7069 71.9659 67.5111 72.0096L43.1634 77.4246C42.1852 77.6415 40.9163 77.7401 39.6573 77.7236C38.3937 77.707 37.1263 77.5767 36.1587 77.335L11.6536 71.2197C11.0459 71.0683 9.21075 70.6097 9.19193 69.0072L8.89297 68.9327L9.19419 68.8694C9.23862 68.0306 9.7823 67.514 10.4066 67.1917C10.9201 66.9259 11.4676 66.8114 11.7379 66.7549L36.0194 61.687C36.9938 61.4845 38.2544 61.3828 39.5014 61.3828C40.7492 61.3828 42.0098 61.4845 42.9842 61.687L63.5231 65.9755C63.9433 66.0629 64.2874 66.3114 64.5043 66.642C64.7196 66.9703 64.8108 67.3822 64.7249 67.8001L64.7272 67.8009L64.7242 67.8077C64.6353 68.2279 64.3861 68.5728 64.0547 68.7889C63.7249 69.0042 63.313 69.0954 62.8973 69.0095V69.011L62.8905 69.008L42.3516 64.721C41.5948 64.5629 40.5541 64.4838 39.5014 64.4838C38.4487 64.4838 37.408 64.5629 36.6497 64.721L15.8246 69.0667L36.9057 74.3267C37.655 74.5142 38.6708 74.6158 39.6919 74.6286C40.7206 74.6422 41.7417 74.5669 42.4917 74.4005L66.8387 68.9877C67.4848 68.8438 68.1196 68.8371 68.713 68.9613H68.7122ZM11.8471 68.3152L36.3342 63.2051C36.7423 63.1201 37.2114 63.0545 37.7114 63.0094C37.2069 63.0538 36.7378 63.1186 36.3334 63.2029L12.0519 68.2708L11.8471 68.316V68.3152ZM41.2944 63.0094C41.7929 63.0545 42.2605 63.1201 42.6671 63.2051L63.1993 67.4906L42.6687 63.2021C42.265 63.1186 41.7974 63.0538 41.2944 63.0094ZM70.2838 99.1345C70.1693 99.8295 69.8568 100.51 69.4155 101.085C68.8749 101.789 68.1324 102.348 67.3146 102.595C68.1399 102.347 68.8786 101.799 69.4193 101.094C69.8636 100.516 70.1723 99.8356 70.2838 99.1345ZM49.7607 107.285L42.4563 109.235C41.6031 109.462 40.466 109.575 39.335 109.574C38.2017 109.572 37.0638 109.456 36.2129 109.226L21.9001 105.362L36.2092 109.226C36.6346 109.34 37.1218 109.427 37.6392 109.486C38.1813 109.547 38.7649 109.578 39.3576 109.578C39.9412 109.578 40.5165 109.548 41.0496 109.489C41.5632 109.431 42.0429 109.346 42.4601 109.236L49.7607 107.285ZM11.6092 102.579C10.8222 102.318 10.1099 101.77 9.58802 101.089C9.14825 100.514 8.8365 99.8356 8.72053 99.1428C8.83348 99.8408 9.14072 100.519 9.5835 101.096C10.1084 101.781 10.817 102.319 11.6099 102.58L11.6092 102.579ZM8.67158 74.0548C8.67158 74.0533 8.67309 74.051 8.67158 74.0526V74.0548Z" fill="#D26289"/>
<path d="M40.9438 70.8484C40.6087 70.8484 40.2894 70.7377 40.0273 70.5457C39.7773 70.3627 39.58 70.1022 39.4746 69.7889C39.4558 69.7355 39.4437 69.6978 39.4362 69.67V69.6609L39.4174 69.5818C39.3933 69.4621 39.1553 68.2256 38.8082 66.1789C38.6229 65.084 38.4128 63.8001 38.2012 62.413C37.824 60.9657 37.3285 59.3911 36.6794 57.7954C36.0257 56.1892 35.2215 54.577 34.2343 53.0769C33.3163 51.6831 32.3803 50.5151 31.5354 49.5738C30.4119 48.3215 29.4525 47.4759 28.9141 47.0346C27.4879 47.5896 24.1384 48.689 20.0653 48.6499C15.4718 48.6054 9.95883 47.1265 5.22001 41.8357C3.23803 39.6225 1.93228 37.1164 1.12277 34.4989C0.320791 31.904 0.00677727 29.1976 0.00301212 26.5627H0V26.5062H0.00301212C0.00376515 23.5009 0.406637 20.5965 0.942794 18.0595C1.9639 13.2281 3.47825 9.69182 3.62885 9.34769C3.74407 9.08563 3.92404 8.86725 4.14543 8.70837C4.37059 8.54571 4.63641 8.44405 4.91729 8.4192V8.42146C5.19892 8.3951 5.47529 8.44706 5.71927 8.56303C5.96777 8.68126 6.18615 8.8665 6.34504 9.10295L6.35407 9.115C6.37892 9.15341 8.05517 11.6286 10.3775 13.8169C11.5259 14.899 12.8234 15.9013 14.1314 16.4736C14.5177 16.6423 14.9431 16.814 15.3942 16.9879C15.8814 17.1762 16.3588 17.3554 16.8498 17.5384C19.3085 18.4563 22.2212 19.5452 24.8944 21.1831C27.6264 22.8571 30.0949 25.0928 31.5693 28.2789C32.7237 30.7699 33.0204 33.4793 32.8894 36.0163C32.7004 39.6587 31.6235 42.9494 30.9518 44.6844C31.5919 45.2115 32.6311 46.137 33.8261 47.4684C34.7486 48.4955 35.7742 49.7771 36.7968 51.3239C36.5852 49.1702 36.409 46.9555 36.2946 44.7612C36.1123 41.2799 36.0867 37.8702 36.3232 34.8634C36.8217 28.5304 37.5423 22.1349 39.5017 16.5083C41.4867 10.8071 44.7338 5.9229 50.2776 2.73231C53.5608 0.842961 56.4216 0.422017 58.7499 0.670517C61.0979 0.921276 62.8999 1.85428 64.0588 2.65626C65.8721 3.91382 67.2976 5.65709 68.1877 7.56978C69.0868 9.4998 69.4467 11.6136 69.1207 13.5903C68.8202 15.4058 68.0521 17.0625 66.9361 18.4127C65.8179 19.7666 64.3487 20.8163 62.6514 21.415C61.1423 21.9474 59.5941 22.0709 58.1377 21.8088C56.6738 21.5453 55.3056 20.8924 54.1647 19.8728C52.9049 18.7478 52.1654 17.5994 51.752 16.5361C51.1443 14.9713 51.2415 13.5955 51.4297 12.7183C51.6421 11.7265 52.0849 10.8101 52.6715 10.0766C53.2799 9.31681 54.0458 8.74828 54.8794 8.48396L54.8824 8.48321C55.292 8.35444 55.7137 8.40339 56.0661 8.58637C56.4155 8.76785 56.6972 9.08639 56.8282 9.49679H56.8312L56.838 9.52314C56.9577 9.92376 56.908 10.3372 56.7288 10.6828C56.5443 11.0382 56.2258 11.3229 55.8169 11.4517L55.7785 11.4614C55.5511 11.5473 55.2837 11.7672 55.0382 12.0955C54.7898 12.4276 54.5804 12.8583 54.4712 13.3659C54.3854 13.7702 54.3379 14.3727 54.5413 15.0783C54.7536 15.8155 55.2393 16.6709 56.2318 17.558L56.2333 17.5565C56.9412 18.1875 57.7943 18.5911 58.71 18.7515C59.6385 18.9142 60.6348 18.8298 61.6152 18.4835C62.7756 18.0746 63.7802 17.3547 64.5453 16.4254C65.3141 15.4917 65.8442 14.3456 66.0521 13.088C66.275 11.7378 65.9949 10.2355 65.3329 8.83864C64.6627 7.42294 63.6062 6.12773 62.2884 5.2143C61.2831 4.517 59.6152 3.69243 57.3847 3.72707C55.8094 3.75192 53.9464 4.20524 51.8243 5.4259C46.9853 8.21061 44.1306 12.5978 42.367 17.7621C40.5748 23.0099 39.8993 29.0793 39.4234 35.1051C39.1538 38.5382 39.2404 42.53 39.5138 46.5414C39.8843 51.9858 40.6004 57.4784 41.236 61.6705L41.2585 61.7594L41.4174 61.3859C41.7939 60.5244 42.239 59.6667 42.7616 58.8594C43.9295 57.0559 45.4017 55.6109 46.7376 54.531C47.8174 53.6583 48.8099 53.0227 49.4786 52.6304C49.4718 51.6846 49.5283 49.8713 49.9508 47.8351C50.4696 45.3297 51.5412 42.4795 53.7212 40.4207C57.6219 36.7347 63.1401 36.8589 67.1681 36.9493L67.2178 36.95C67.9934 36.9666 68.7268 36.9824 69.3338 36.9621C70.3489 36.9297 71.4859 36.6036 72.5507 36.1834C74.7277 35.3242 76.5297 34.1043 76.5576 34.0847L76.5636 34.0787C76.7978 33.9191 77.0674 33.8295 77.3408 33.8121C77.6096 33.7948 77.8867 33.849 78.1405 33.9763H78.1465C78.398 34.1043 78.6066 34.2986 78.7549 34.5328C78.8995 34.7617 78.9839 35.0305 78.9929 35.3152C79.0087 35.7723 79.1834 43.036 76.2684 49.439C74.7375 52.8013 72.3602 55.9324 68.6719 57.76C64.2508 59.9513 60.265 59.7277 57.1129 58.7149C54.3492 57.827 52.2355 56.3255 51.0374 55.324C50.3213 55.7479 49.148 56.5115 47.9462 57.5898C47.0411 58.4016 46.1194 59.3926 45.3708 60.5492C44.59 61.7548 44.0094 63.1419 43.5824 64.456C42.7729 66.9477 42.5244 69.1413 42.4965 69.4124C42.4709 69.7566 42.3301 70.0773 42.1072 70.3273C41.8888 70.5728 41.5906 70.7513 41.2442 70.8191H41.2322C41.1682 70.8311 41.1185 70.8379 41.0831 70.8409C41.0326 70.8454 40.986 70.8477 40.9438 70.8477V70.8484ZM40.9423 69.2972L40.9506 69.2964L40.9551 69.2769C40.9754 69.0705 41.2352 66.6691 42.1095 63.9778C42.5711 62.5576 43.2066 61.047 44.0734 59.7074C44.9025 58.4265 45.9183 57.3331 46.9153 56.4385C48.5547 54.9678 50.1481 54.037 50.7588 53.7042L51.237 53.4436L51.7806 53.9271L51.0419 53.2561L51.051 53.5242L50.6345 53.7547C50.057 54.0739 48.9455 54.7374 47.7082 55.7374C46.477 56.7321 45.1239 58.059 44.0598 59.7021C43.5869 60.4325 43.1818 61.2142 42.8361 62.0041C42.4235 62.9476 42.0967 63.8987 41.8399 64.7881L40.9453 67.8785L40.3361 64.718C40.2517 64.2805 40.1614 63.84 40.065 63.4093V63.4062C39.9656 62.9627 39.8526 62.4936 39.7239 62.0011L39.7088 61.9446L39.7058 61.922C39.0657 57.7066 38.3436 52.1665 37.9678 46.6438C37.6899 42.5609 37.6018 38.4922 37.8774 34.9831C38.3609 28.8565 39.0514 22.6756 40.8993 17.2643C42.7759 11.7694 45.837 7.08784 51.054 4.08551C53.432 2.7165 55.5503 2.20896 57.3598 2.18034C60.003 2.13817 61.9774 3.11485 63.1672 3.93942C64.7147 5.01174 65.9519 6.52533 66.7328 8.17597C67.5235 9.84544 67.8541 11.6685 67.5792 13.3342C67.3262 14.8659 66.6786 16.2643 65.7388 17.4051C64.7945 18.5512 63.5573 19.4383 62.1295 19.9413C60.8916 20.3781 59.6272 20.4835 58.4427 20.2764C57.2454 20.0663 56.1294 19.5385 55.2017 18.7116V18.7086C53.9592 17.5986 53.3379 16.4827 53.0555 15.5007C52.7633 14.4879 52.8311 13.6234 52.9546 13.0428C53.1135 12.3041 53.426 11.6663 53.8003 11.1663C54.2559 10.5586 54.8236 10.1406 55.3485 9.97346L55.3493 9.97044C55.3515 9.96969 55.3508 9.97346 55.3515 9.97195C55.3523 9.96593 55.353 9.95915 55.3447 9.96216C54.8033 10.1339 54.2935 10.5187 53.8771 11.039C53.4396 11.5864 53.1067 12.2792 52.9441 13.0383C52.7995 13.7123 52.7257 14.771 53.1933 15.9766C53.5277 16.8373 54.1384 17.7771 55.1934 18.7199C56.1166 19.5445 57.2235 20.0731 58.4088 20.2862C59.6016 20.5008 60.8788 20.3954 62.1348 19.9526C63.5611 19.4496 64.7968 18.5655 65.7403 17.4232C66.6861 16.2786 67.3375 14.8757 67.5913 13.3403C67.8654 11.6798 67.5521 9.88159 66.7795 8.22341C65.9986 6.54717 64.7546 5.02303 63.1778 3.92888C62.174 3.23383 60.6144 2.42658 58.5843 2.20971C56.5345 1.99058 53.9968 2.37237 51.0457 4.0712C45.8746 7.04718 42.8324 11.6407 40.9611 17.0166C39.0635 22.467 38.3579 28.7495 37.8676 34.9831C37.6357 37.932 37.6606 41.2724 37.839 44.6806C38.0175 48.0904 38.3526 51.5912 38.7374 54.8473L39.2743 59.3851L37.2697 55.278C37.0039 54.7336 36.7276 54.2057 36.4407 53.7012C36.1507 53.1914 35.8495 52.6966 35.5355 52.2207C34.5634 50.7448 33.5709 49.5061 32.6725 48.5053C31.2003 46.8659 30.0037 45.8945 29.5482 45.5481L29.076 45.1882L29.3027 44.6385C29.8938 43.2039 31.1431 39.7701 31.3419 35.9372C31.4616 33.6224 31.1966 31.1622 30.1611 28.928C28.8366 26.0657 26.585 24.0363 24.0857 22.5054C21.5276 20.9383 18.697 19.8803 16.3076 18.988C15.7843 18.7922 15.2752 18.6024 14.8339 18.4307C14.3558 18.2455 13.9085 18.0663 13.5101 17.8923C12.0154 17.2379 10.5725 16.1302 9.31423 14.945C6.94068 12.7092 5.18838 10.1595 5.05585 9.96367L5.04832 9.96517C5.0453 9.96517 5.04756 9.96216 5.04606 9.96367L5.02799 10.0051L5.87213 11.1151C6.71101 12.2182 8.11767 13.9223 9.80747 15.4186C10.9415 16.4232 12.2036 17.3351 13.5018 17.9036C13.9085 18.0806 14.349 18.2583 14.8114 18.4375C15.3114 18.631 15.7963 18.8125 16.2956 18.9993L16.2963 18.9978L16.3031 19.0023C21.0224 20.7666 27.4856 23.1839 30.1498 28.9348C31.1777 31.1539 31.4383 33.6111 31.3125 35.9357C31.1152 39.5871 29.9616 42.9208 29.3614 44.4344L29.0098 45.3222L28.2161 44.7951C27.0097 43.9946 24.5511 42.3312 21.9523 40.3876C19.3544 38.444 16.639 36.2316 14.9492 34.3475C12.9054 32.0681 11.5741 30.224 10.6501 28.6637C9.71409 27.0846 9.19149 25.7991 8.77055 24.6508L8.76829 24.6485C8.76151 24.6485 8.76151 24.647 8.76 24.6538C9.18095 25.8044 9.70129 27.0861 10.62 28.6396C11.5507 30.2134 12.8881 32.0696 14.9394 34.3581C16.5313 36.1337 19.0298 38.1985 21.4802 40.0548C23.9592 41.9321 26.3621 43.5752 27.762 44.5097L28.9932 45.332L29.1543 45.2642L29.5105 45.5361C29.9066 45.8388 31.1559 46.8418 32.6853 48.5459C33.5724 49.5347 34.5566 50.7629 35.5235 52.2313C36.5807 53.8375 37.4309 55.5371 38.1146 57.2163C38.7939 58.8843 39.3142 60.5485 39.7126 62.0854L39.7276 62.1427L39.7306 62.1637C39.9558 63.6389 40.1614 64.901 40.3353 65.9274C40.6697 67.9026 40.9129 69.1639 40.9378 69.2874L40.9415 69.2995L40.9423 69.2972ZM6.37139 40.8048C7.75094 42.3455 9.20128 43.536 10.6727 44.4457C9.20956 43.5293 7.7645 42.3342 6.38419 40.7927C3.20414 37.2437 1.92926 32.791 1.66721 28.3753C1.24401 21.226 3.48277 14.1716 4.53174 11.3154L4.90449 10.3018C4.4858 11.3184 3.30279 14.3787 2.45864 18.3728C1.93981 20.8291 1.54974 23.6289 1.54898 26.5047H1.552V26.5612H1.54898C1.552 29.05 1.84718 31.602 2.60247 34.0433C3.35023 36.4621 4.55207 38.7724 6.37214 40.8048H6.37139ZM51.0397 53.1861L51.0412 53.229L51.7392 52.6756C52.5947 51.9971 54.2039 50.7779 56.2145 49.5249C57.5413 48.6981 59.0466 47.8532 60.631 47.1348C65.717 44.8275 69.5522 44.3109 69.6907 44.2921L69.7073 44.2876L69.7058 44.283C69.7058 44.28 69.7088 44.2815 69.7073 44.2808C69.7043 44.28 69.6915 44.28 69.6915 44.2778C69.4091 44.3147 65.717 44.8147 60.6235 47.1257C58.8433 47.9315 57.1836 48.881 55.7642 49.7869C54.3409 50.6951 53.1474 51.5663 52.313 52.2079L51.0404 53.1869L51.0397 53.1861ZM51.4666 48.1446C51.0954 49.936 51.0269 51.5362 51.0254 52.4496L51.0668 51.5618C51.1345 50.1002 51.3793 47.872 52.1685 45.7251C52.7264 44.2055 53.5585 42.7205 54.792 41.5548C58.2273 38.3123 63.3698 38.4252 67.1274 38.5088L67.1982 38.5103C67.9926 38.5284 68.7396 38.5457 69.3835 38.5239C70.5981 38.4839 71.9129 38.1127 73.1193 37.639C74.3505 37.1556 75.4619 36.5675 76.2519 36.1096L77.4484 35.4169L77.4469 35.3596L77.4356 35.3581C77.3046 35.4462 75.3738 36.7384 73.1208 37.6278C71.9204 38.1014 70.6102 38.4704 69.3827 38.5095C68.7442 38.5306 67.9881 38.5141 67.1876 38.4975L67.1349 38.4967C63.3751 38.4124 58.2251 38.2972 54.7822 41.5503C52.8808 43.3463 51.9335 45.8938 51.4666 48.1461V48.1446ZM74.8618 48.7975C77.3136 43.411 77.4612 37.3627 77.453 35.7542L77.4123 36.8062C77.3174 39.2799 76.8445 44.5489 74.6449 49.1627C73.2398 52.11 71.1335 54.7968 67.9783 56.3601C66.2162 57.2337 64.5347 57.687 62.9631 57.8451C64.5385 57.6953 66.223 57.2465 67.9874 56.3722C71.3052 54.7276 73.4619 51.8728 74.8625 48.7975H74.8618ZM53.4486 53.3096C54.7566 54.3518 57.0029 55.7841 59.8742 56.2284C62.0249 56.5604 64.5385 56.3368 67.2931 54.9723C70.0861 53.5882 71.9716 51.1665 73.2443 48.4962C74.9823 44.8501 75.5824 40.7521 75.7865 38.1255C75.1555 38.4486 74.4408 38.7829 73.6825 39.0811C72.3399 39.6082 70.8542 40.0231 69.4317 40.0691C68.7555 40.0917 67.9859 40.0743 67.1673 40.0555L67.0965 40.054C63.607 39.9772 58.8305 39.8718 55.8523 42.6821C54.8176 43.6603 54.1083 44.9382 53.6226 46.2582C53.1572 47.5248 52.8981 48.8276 52.7558 49.9534C53.3929 49.4985 54.1248 48.9978 54.9321 48.4834C56.4178 47.5354 58.1468 46.5459 59.9849 45.713C65.3578 43.2755 69.321 42.7664 69.507 42.7431L69.51 42.7401H69.5205C69.9422 42.6926 70.3459 42.8184 70.6576 43.0624C70.9716 43.3079 71.1915 43.6708 71.2442 44.0955C71.2969 44.518 71.1712 44.9246 70.9249 45.2394C70.6794 45.5534 70.3142 45.7755 69.8903 45.8283V45.826C69.6885 45.8531 66.1025 46.3531 61.2673 48.5467C59.7537 49.2327 58.3094 50.0437 57.0323 50.8397C55.5676 51.7523 54.3259 52.6439 53.4486 53.3089V53.3096ZM5.52649 13.1656C4.43836 16.4352 2.86001 22.3442 3.21243 28.2849C3.45566 32.3927 4.62511 36.5155 7.53558 39.7633C11.1208 43.7665 15.1653 45.2266 18.7256 45.5383C21.4102 45.774 23.8244 45.3614 25.5661 44.8907C24.1708 43.9366 22.368 42.6685 20.5472 41.2897C18.0396 39.3906 15.468 37.2603 13.788 35.3875C11.6524 33.0049 10.2578 31.0689 9.28713 29.4265C8.30442 27.7638 7.7517 26.4046 7.3059 25.1869C7.15756 24.7841 7.18768 24.3601 7.3541 24.0002C7.52127 23.6387 7.827 23.3413 8.22836 23.1929C8.27355 23.1763 8.31798 23.162 8.3624 23.15L8.38575 23.144C8.73892 23.0543 9.10263 23.0958 9.4174 23.2411C9.77886 23.4083 10.0778 23.7133 10.2262 24.1161L10.2743 24.2479C10.6622 25.2946 11.1471 26.4633 11.9845 27.8753C12.8678 29.3655 14.1419 31.1306 16.1021 33.3159C17.7105 35.1096 20.3476 37.255 22.8808 39.1496C24.9359 40.6866 26.9374 42.0676 28.2642 42.9622C28.8471 41.3229 29.6159 38.6858 29.7688 35.8551C29.8825 33.7511 29.6536 31.544 28.7454 29.5816C26.3478 24.4075 20.2347 22.1198 15.7692 20.4504L15.7685 20.4519L15.7617 20.4474C15.2278 20.2478 14.7074 20.0528 14.2556 19.8781C13.7654 19.6876 13.3038 19.5023 12.8851 19.3193C11.4227 18.6792 10.0266 17.6739 8.78485 16.5738C7.50094 15.4367 6.38043 14.1987 5.52649 13.1648V13.1656Z" fill="#48B04F"/>
</svg>
