<svg width="20" height="20" viewBox="0 0 20 20" fill="none" xmlns="http://www.w3.org/2000/svg">
<path d="M8.33268 14.1667H11.666V4.16667H1.66602V14.1667H4.16602" stroke="#555555" stroke-width="1.5" stroke-linecap="round" stroke-linejoin="round"/>
<path d="M16.666 14.1667H18.3327V11.3833C18.333 10.9455 18.2471 10.5118 18.0798 10.1072C17.9125 9.70252 17.6671 9.33479 17.3577 9.025L15.8327 7.5H11.666" stroke="#555555" stroke-width="1.5" stroke-linecap="round" stroke-linejoin="round"/>
<path d="M11.666 14.1667H12.4993" stroke="#555555" stroke-width="1.5" stroke-linecap="round" stroke-linejoin="round"/>
<path d="M6.24935 16.6667C7.39994 16.6667 8.33268 15.7339 8.33268 14.5833C8.33268 13.4327 7.39994 12.5 6.24935 12.5C5.09876 12.5 4.16602 13.4327 4.16602 14.5833C4.16602 15.7339 5.09876 16.6667 6.24935 16.6667Z" stroke="#555555" stroke-width="1.5" stroke-linecap="round" stroke-linejoin="round"/>
<path d="M14.5833 16.6667C15.7339 16.6667 16.6667 15.7339 16.6667 14.5833C16.6667 13.4327 15.7339 12.5 14.5833 12.5C13.4327 12.5 12.5 13.4327 12.5 14.5833C12.5 15.7339 13.4327 16.6667 14.5833 16.6667Z" stroke="#555555" stroke-width="1.5" stroke-linecap="round" stroke-linejoin="round"/>
</svg>
