<svg width="186" height="30" viewBox="0 0 186 30" fill="none" xmlns="http://www.w3.org/2000/svg">
<path d="M18.9179 18.8778C18.7052 18.7074 18.4279 18.6491 18.1373 18.7139L11.547 20.179C11.1098 20.276 10.3736 20.2667 9.93921 20.158L3.34549 18.5125L9.87806 17.1493C10.3198 17.0572 11.0654 17.0572 11.5069 17.1493L17.0664 18.3097C17.1791 18.3335 17.291 18.2606 17.3148 18.147C17.3385 18.0335 17.2657 17.9226 17.1522 17.8992L11.5927 16.7384C11.0964 16.635 10.2888 16.635 9.79266 16.7384L3.22014 18.1101C3.09234 18.1368 2.70322 18.2184 2.69731 18.5001C2.69201 18.782 3.07807 18.8784 3.20465 18.91L9.8377 20.5653C10.3328 20.6886 11.1402 20.6992 11.6385 20.5887L18.229 19.123C18.3929 19.0865 18.5445 19.116 18.6556 19.2049C18.7671 19.2942 18.8281 19.4361 18.8281 19.604V26.5133C18.8281 26.9005 18.5123 27.3123 18.1381 27.4122L11.4392 29.2012C11.0105 29.3155 10.2857 29.3147 9.85666 29.1987L3.24786 27.4146C2.87342 27.3133 2.55748 26.9007 2.55748 26.5131V19.8808C2.55748 19.7648 2.46352 19.6711 2.34774 19.6711C2.23176 19.6711 2.138 19.7648 2.138 19.8808V26.5131C2.138 27.094 2.57766 27.6682 3.13861 27.8192L9.74741 29.6037C10.0014 29.6722 10.3275 29.7065 10.6538 29.7065C10.9755 29.7065 11.2967 29.6728 11.5478 29.6062L18.2463 27.8172C18.8081 27.6672 19.2477 27.0944 19.2477 26.5129V19.6036C19.2477 19.3058 19.131 19.0476 18.9184 18.8772L18.9179 18.8778Z" fill="#D16389"/>
<path d="M18.5996 18.5025C18.764 18.537 18.9167 18.6083 19.0492 18.7145C19.1817 18.8207 19.284 18.954 19.3535 19.1069C19.4216 19.2573 19.4575 19.4255 19.4575 19.6042V26.5133C19.4575 26.851 19.3311 27.1847 19.124 27.4544C18.9167 27.7244 18.6269 27.933 18.3003 28.0202L11.601 29.8092C11.4671 29.8449 11.3165 29.8716 11.1577 29.8893C10.994 29.9077 10.8228 29.9168 10.6538 29.9168C10.4824 29.9168 10.3087 29.9073 10.1428 29.8885C9.98078 29.8702 9.8279 29.8426 9.69337 29.8066L3.08457 28.022C2.75824 27.9342 2.4686 27.725 2.26151 27.4548C2.05441 27.1845 1.92804 26.8506 1.92804 26.5133V19.8812C1.92804 19.7661 1.97492 19.6615 2.05095 19.5851L2.05176 19.5843C2.1282 19.5082 2.23297 19.4613 2.34793 19.4613C2.46309 19.4613 2.56786 19.5084 2.6443 19.5847L2.64471 19.5843C2.72074 19.6603 2.76762 19.7651 2.76762 19.8812V26.5133C2.76762 26.6602 2.82979 26.8149 2.92905 26.9444C3.02811 27.0736 3.16101 27.1741 3.30227 27.2122L9.91127 28.9963C10.1096 29.0499 10.3782 29.0769 10.6481 29.0775C10.9186 29.0779 11.1877 29.0518 11.3854 28.999L18.0843 27.2098C18.2255 27.1721 18.3584 27.0722 18.4571 26.9436C18.5561 26.8145 18.6183 26.66 18.6183 26.5135V19.6044C18.6183 19.549 18.6089 19.4995 18.591 19.4581L18.5916 19.4579C18.5763 19.4224 18.5535 19.392 18.5245 19.3686L18.525 19.3682C18.497 19.346 18.4622 19.3307 18.4226 19.3231C18.3776 19.3144 18.3274 19.3158 18.2744 19.3276L11.684 20.7934C11.4192 20.8521 11.0758 20.8788 10.735 20.8743C10.3929 20.8698 10.0499 20.8346 9.78795 20.7691L3.1549 19.1138C2.9904 19.0728 2.49367 18.9487 2.48857 18.515L2.40765 18.4948L2.48919 18.4777C2.50121 18.2506 2.64838 18.1108 2.81735 18.0235C2.95637 17.9516 3.10455 17.9206 3.17773 17.9053L9.75024 16.5335C10.014 16.4787 10.3552 16.4512 10.6928 16.4512C11.0305 16.4512 11.3717 16.4787 11.6355 16.5335L17.195 17.6943C17.3087 17.718 17.4018 17.7852 17.4605 17.8747C17.5188 17.9636 17.5435 18.0751 17.5203 18.1882L17.5209 18.1884L17.5201 18.1903C17.496 18.304 17.4285 18.3973 17.3389 18.4558C17.2496 18.5141 17.1381 18.5388 17.0256 18.5156V18.516L17.0237 18.5152L11.4643 17.3548C11.2594 17.3119 10.9777 17.2905 10.6928 17.2905C10.4078 17.2905 10.1261 17.3119 9.92085 17.3548L4.28391 18.5311L9.99015 19.9548C10.193 20.0056 10.4679 20.0331 10.7443 20.0366C11.0228 20.0402 11.2992 20.0198 11.5022 19.9748L18.0924 18.5097C18.2673 18.4707 18.4391 18.4689 18.5998 18.5025H18.5996ZM3.20728 18.3276L9.83545 16.9444C9.94592 16.9214 10.0729 16.9037 10.2083 16.8914C10.0717 16.9035 9.9447 16.921 9.83524 16.9438L3.26272 18.3156L3.20728 18.3278V18.3276ZM11.1781 16.8914C11.313 16.9037 11.4396 16.9214 11.5497 16.9444L17.1073 18.1044L11.5501 16.9436C11.4408 16.921 11.3142 16.9035 11.1781 16.8914ZM19.0249 26.6698C18.994 26.8579 18.9094 27.0422 18.7899 27.1977C18.6436 27.3883 18.4426 27.5398 18.2212 27.6066C18.4446 27.5394 18.6446 27.391 18.7909 27.2002C18.9112 27.0436 18.9948 26.8596 19.0249 26.6698ZM13.4697 28.8761L11.4926 29.4038C11.2616 29.4653 10.9539 29.4959 10.6477 29.4955C10.3409 29.4951 10.033 29.4637 9.80263 29.4013L5.92842 28.3555L9.80161 29.4013C9.91677 29.4323 10.0487 29.4558 10.1887 29.4717C10.3354 29.4882 10.4934 29.4967 10.6538 29.4967C10.8118 29.4967 10.9675 29.4886 11.1118 29.4725C11.2508 29.457 11.3807 29.434 11.4936 29.404L13.4697 28.8761ZM3.14287 27.6021C2.92987 27.5314 2.73704 27.3832 2.59579 27.1988C2.47675 27.0432 2.39237 26.8596 2.36098 26.6721C2.39155 26.861 2.47471 27.0445 2.59457 27.2008C2.73664 27.3861 2.92844 27.5318 3.14307 27.6023L3.14287 27.6021ZM2.34773 19.8812C2.34773 19.8808 2.34813 19.8802 2.34773 19.8806V19.8812Z" fill="#D26289"/>
<path d="M11.0827 18.8034C10.9918 18.8034 10.9098 18.7441 10.8819 18.6564C10.8788 18.6481 10.8768 18.6393 10.8754 18.6305C10.8654 18.5802 10.7184 17.8166 10.5472 16.6933C10.3369 15.8813 9.99483 14.9292 9.44123 14.0884C8.75004 13.0393 8.02542 12.4532 7.86134 12.3279C7.30692 12.5621 4.03747 13.7769 1.56888 11.0209C0.539738 9.87193 0.212182 8.41332 0.210144 7.02605V7.01076C0.210959 4.69851 1.11332 2.58907 1.17426 2.44985C1.20525 2.37871 1.27231 2.33081 1.34915 2.32409C1.42599 2.31654 1.5008 2.35242 1.5436 2.41642C1.554 2.43252 2.60984 3.99183 3.74151 4.48693C3.95411 4.57968 4.21338 4.6769 4.48794 4.77943C5.8002 5.26944 7.59717 5.94106 8.35501 7.57823C9.13385 9.25942 8.3915 11.354 8.12591 11.9983C8.33178 12.155 9.07413 12.7633 9.79406 13.8564C9.97608 14.1328 10.1365 14.4186 10.2773 14.707C10.0684 12.9433 9.91411 10.9013 10.0411 9.28918C10.3089 5.88745 10.8128 2.42621 13.7133 0.757036C15.401 -0.214217 16.635 0.322265 17.2204 0.727481C18.1383 1.36404 18.6654 2.49632 18.5027 3.48103C18.3527 4.38828 17.7341 5.13675 16.8888 5.43495C16.1403 5.69911 15.3594 5.55867 14.8007 5.05949C14.0364 4.37707 14.0498 3.67813 14.1261 3.32224C14.2276 2.84813 14.546 2.45087 14.918 2.33285C15.0294 2.29718 15.1479 2.35914 15.1831 2.47064C15.2182 2.58193 15.1568 2.70077 15.0453 2.73562C14.8529 2.79697 14.6173 3.0483 14.5394 3.4103C14.4826 3.67691 14.4769 4.20402 15.082 4.74458C15.5248 5.13919 16.1473 5.24865 16.7481 5.03646C17.4487 4.78942 17.9615 4.16733 18.0863 3.41213C18.221 2.59579 17.7557 1.61251 16.9799 1.07501C16.4764 0.72585 15.4102 0.26825 13.9243 1.12352C11.2021 2.69017 10.7221 6.03258 10.4626 9.322C10.2888 11.536 10.6556 14.5886 10.9557 16.5663C11.0252 16.8323 11.0804 17.0847 11.1249 17.3148C11.258 16.8546 11.4571 16.3362 11.7512 15.8823C12.3552 14.9492 13.2806 14.3823 13.6057 14.2027C13.5933 13.8519 13.5808 11.9732 14.6858 10.9298C15.6803 9.98995 17.1252 10.023 18.1794 10.0468C18.3971 10.0515 18.603 10.056 18.7748 10.0503C19.6807 10.0213 20.8313 9.2421 20.8433 9.23374C20.9069 9.19053 20.9893 9.18523 21.0583 9.21988C21.127 9.25494 21.1713 9.32465 21.1733 9.4019C21.1794 9.58494 21.2826 13.9019 18.4962 15.2828C16.2198 16.411 14.399 15.0553 13.8403 14.5566C13.5855 14.6954 12.674 15.2345 12.1061 16.1118C11.4557 17.1161 11.303 18.5264 11.2947 18.6085C11.2873 18.7013 11.2199 18.7812 11.1243 18.7999C11.1104 18.8024 11.0965 18.8036 11.0831 18.8036L11.0827 18.8034ZM14.1352 14.2584C14.6361 14.7137 16.2469 15.9251 18.3079 14.9037C20.4004 13.8668 20.7043 10.854 20.7451 9.79142C20.3036 10.0472 19.5015 10.4496 18.7875 10.4728C18.6042 10.4789 18.3933 10.4738 18.1691 10.4688C17.188 10.4471 15.8438 10.4166 14.975 11.2368C14.2231 11.9477 14.0621 13.1593 14.0321 13.802C14.4891 13.4506 15.3438 12.8446 16.3234 12.4011C17.7549 11.7517 18.7973 11.6192 18.8413 11.6135C18.9573 11.6004 19.062 11.6815 19.0765 11.7975C19.091 11.9131 19.0084 12.0183 18.8929 12.0327C18.8825 12.0342 17.866 12.1652 16.498 12.7859C15.441 13.2651 14.5127 13.9594 14.1354 14.2586L14.1352 14.2584ZM1.42375 2.97125C0.974509 4.19423 -0.294948 8.30692 1.884 10.7384C3.9111 13.0018 6.46346 12.3901 7.39864 12.0574C6.63264 11.5462 4.77412 10.2627 3.88827 9.27512C2.75497 8.01096 2.40948 7.22214 2.17466 6.58129C2.13431 6.47204 2.19077 6.35076 2.30002 6.31061C2.40927 6.27025 2.53116 6.32671 2.57132 6.43596C2.79268 7.0395 3.11901 7.78491 4.20278 8.99343C5.09576 9.98893 7.10023 11.3522 7.75371 11.7861C8.01054 11.1383 8.6524 9.2262 7.9714 7.75556C7.28592 6.27616 5.58271 5.6398 4.33955 5.17486C4.05949 5.07009 3.79491 4.97103 3.57152 4.8736C2.6502 4.47022 1.81409 3.48449 1.42355 2.97125H1.42375Z" fill="#48B04F"/>
<path d="M11.0827 19.0133C10.992 19.0133 10.9056 18.9834 10.8346 18.9314C10.7669 18.8819 10.7135 18.8113 10.685 18.7265C10.6799 18.7121 10.6766 18.7019 10.6746 18.6943V18.6919L10.6695 18.6705C10.663 18.6381 10.5986 18.3034 10.5046 17.7494C10.4545 17.453 10.3976 17.1055 10.3403 16.73C10.2382 16.3383 10.1041 15.912 9.92839 15.4801C9.75146 15.0454 9.53377 14.609 9.26655 14.2029C9.01808 13.8256 8.76472 13.5095 8.53602 13.2547C8.2319 12.9157 7.97222 12.6868 7.82649 12.5674C7.44043 12.7176 6.53379 13.0152 5.43127 13.0046C4.1879 12.9926 2.69566 12.5923 1.41295 11.1601C0.876472 10.5611 0.523029 9.88273 0.303911 9.17422C0.0868319 8.47182 0.00183448 7.73925 0.000815323 7.02605H0V7.01076H0.000815323C0.00101915 6.19727 0.110069 5.4111 0.255196 4.72439C0.53159 3.41661 0.941494 2.45942 0.98226 2.36627C1.01345 2.29534 1.06216 2.23623 1.12209 2.19322C1.18303 2.14919 1.25499 2.12168 1.33101 2.11495V2.11556C1.40725 2.10843 1.48205 2.12249 1.54809 2.15388C1.61536 2.18588 1.67447 2.23603 1.71748 2.30003L1.71992 2.30329C1.72665 2.31369 2.18038 2.98368 2.80899 3.57601C3.11983 3.86891 3.47103 4.14021 3.82509 4.29512C3.92965 4.34078 4.04482 4.38725 4.16691 4.43434C4.29879 4.4853 4.42802 4.53381 4.56091 4.58334C5.22642 4.83181 6.01484 5.12655 6.73844 5.56988C7.47793 6.02299 8.14609 6.62817 8.54519 7.49058C8.85766 8.16485 8.93797 8.89823 8.90251 9.58494C8.85135 10.5709 8.55987 11.4616 8.37805 11.9312C8.55131 12.0739 8.83259 12.3244 9.15607 12.6848C9.40576 12.9628 9.68338 13.3097 9.96019 13.7284C9.90291 13.1454 9.85521 12.546 9.82423 11.952C9.7749 11.0097 9.76797 10.0868 9.83197 9.27287C9.96691 7.55866 10.162 5.82752 10.6923 4.3045C11.2296 2.7613 12.1086 1.43925 13.6092 0.575621C14.4979 0.0642101 15.2722 -0.0497312 15.9025 0.0175329C16.538 0.0854085 17.0258 0.337955 17.3395 0.555034C17.8303 0.895431 18.2161 1.3673 18.4571 1.88503C18.7004 2.40745 18.7979 2.9796 18.7096 3.51466C18.6283 4.00609 18.4204 4.45452 18.1183 4.81999C17.8156 5.18647 17.4179 5.47061 16.9585 5.63266C16.55 5.77677 16.131 5.8102 15.7367 5.73926C15.3405 5.66792 14.9701 5.4912 14.6613 5.21521C14.3203 4.91069 14.1202 4.59985 14.0083 4.31204C13.8438 3.88848 13.8701 3.51608 13.921 3.27862C13.9785 3.01017 14.0984 2.76211 14.2571 2.56358C14.4218 2.35792 14.6291 2.20402 14.8548 2.13248L14.8556 2.13228C14.9665 2.09742 15.0806 2.11067 15.176 2.1602C15.2706 2.20932 15.3468 2.29554 15.3823 2.40663H15.3831L15.3849 2.41377C15.4173 2.5222 15.4039 2.63411 15.3554 2.72767C15.3054 2.82387 15.2192 2.90092 15.1085 2.93578L15.0981 2.93843C15.0366 2.96166 14.9642 3.02118 14.8978 3.11005C14.8305 3.19994 14.7738 3.31653 14.7443 3.45391C14.7211 3.56337 14.7082 3.72644 14.7633 3.91742C14.8207 4.11697 14.9522 4.34853 15.2208 4.58864L15.2213 4.58823C15.4129 4.75904 15.6438 4.86829 15.8917 4.91171C16.143 4.95574 16.4126 4.93291 16.678 4.83915C16.9921 4.72847 17.264 4.5336 17.4711 4.28208C17.6793 4.02933 17.8227 3.7191 17.879 3.3787C17.9393 3.01323 17.8635 2.60659 17.6843 2.22848C17.5029 1.84528 17.217 1.49469 16.8603 1.24745C16.5881 1.0587 16.1367 0.835505 15.5329 0.844881C15.1065 0.851608 14.6022 0.974314 14.0278 1.30472C12.718 2.05849 11.9453 3.24601 11.4679 4.64388C10.9828 6.06437 10.8 7.70725 10.6711 9.3383C10.5982 10.2676 10.6216 11.3481 10.6956 12.4339C10.7959 13.9076 10.9897 15.3943 11.1618 16.529L11.1679 16.5531L11.2109 16.452C11.3128 16.2188 11.4333 15.9866 11.5747 15.7681C11.8909 15.28 12.2894 14.8888 12.651 14.5965C12.9432 14.3603 13.2119 14.1882 13.3929 14.0821C13.3911 13.826 13.4063 13.3352 13.5207 12.7841C13.6611 12.1059 13.9512 11.3344 14.5413 10.7771C15.5971 9.77939 17.0908 9.81302 18.1811 9.83748L18.1945 9.83769C18.4045 9.84217 18.603 9.84645 18.7673 9.84095C19.0421 9.83218 19.3498 9.74392 19.6381 9.63019C20.2273 9.39762 20.7151 9.06741 20.7226 9.06211L20.7243 9.06048C20.7877 9.01727 20.8606 8.99301 20.9346 8.98832C21.0074 8.98363 21.0824 8.99831 21.1511 9.03276H21.1527C21.2208 9.06741 21.2773 9.12 21.3174 9.18339C21.3566 9.24535 21.3794 9.31812 21.3818 9.39517C21.3861 9.51889 21.4334 11.485 20.6444 13.2182C20.23 14.1283 19.5865 14.9758 18.5881 15.4705C17.3914 16.0637 16.3126 16.0032 15.4593 15.729C14.7113 15.4887 14.1391 15.0822 13.8148 14.8112C13.621 14.9259 13.3034 15.1326 12.9781 15.4245C12.7331 15.6442 12.4836 15.9124 12.281 16.2255C12.0696 16.5519 11.9125 16.9273 11.7969 17.283C11.5778 17.9575 11.5105 18.5512 11.503 18.6246C11.496 18.7178 11.4579 18.8046 11.3976 18.8723C11.3385 18.9387 11.2578 18.987 11.164 19.0054H11.1607C11.1434 19.0086 11.13 19.0105 11.1204 19.0113C11.1067 19.0125 11.0941 19.0131 11.0827 19.0131V19.0133ZM11.0823 18.5934L11.0845 18.5932L11.0857 18.5879C11.0912 18.5321 11.1616 17.8821 11.3982 17.1536C11.5232 16.7691 11.6952 16.3603 11.9298 15.9977C12.1542 15.6509 12.4292 15.355 12.6991 15.1128C13.1428 14.7147 13.5741 14.4628 13.7394 14.3727L13.8688 14.3022L14.016 14.433L13.816 14.2514L13.8185 14.324L13.7058 14.3864C13.5494 14.4728 13.2486 14.6524 12.9137 14.9231C12.5804 15.1923 12.2141 15.5515 11.9261 15.9962C11.7981 16.1939 11.6885 16.4055 11.5949 16.6193C11.4832 16.8747 11.3947 17.1322 11.3252 17.3729L11.0831 18.2094L10.9182 17.3539C10.8954 17.2355 10.8709 17.1163 10.8448 16.9997V16.9989C10.8179 16.8788 10.7873 16.7518 10.7525 16.6185L10.7484 16.6032L10.7476 16.5971C10.5743 15.4561 10.3789 13.9565 10.2771 12.4616C10.2019 11.3564 10.1781 10.2551 10.2527 9.30528C10.3835 7.64691 10.5705 5.97387 11.0707 4.50914C11.5786 3.02179 12.4072 1.75458 13.8193 0.941905C14.463 0.571341 15.0364 0.433959 15.5262 0.426213C16.2416 0.414799 16.7761 0.679167 17.0981 0.902362C17.517 1.19262 17.8519 1.60232 18.0633 2.04911C18.2773 2.50101 18.3668 2.99448 18.2924 3.44535C18.2239 3.85994 18.0486 4.23846 17.7942 4.54726C17.5386 4.85749 17.2037 5.0976 16.8173 5.23376C16.4822 5.35198 16.1399 5.38052 15.8193 5.32447C15.4952 5.2676 15.1931 5.12471 14.942 4.90091V4.90009C14.6057 4.59965 14.4375 4.29757 14.3611 4.03177C14.282 3.75762 14.3004 3.52362 14.3338 3.36647C14.3768 3.16651 14.4614 2.99387 14.5627 2.85852C14.686 2.69403 14.8397 2.58091 14.9818 2.53566L14.982 2.53484C14.9826 2.53464 14.9824 2.53566 14.9826 2.53525C14.9828 2.53362 14.983 2.53178 14.9807 2.5326C14.8342 2.57907 14.6962 2.68323 14.5835 2.82408C14.465 2.97226 14.375 3.15979 14.3309 3.36525C14.2918 3.54768 14.2718 3.83426 14.3984 4.16059C14.4889 4.39357 14.6542 4.64795 14.9398 4.90315C15.1897 5.12634 15.4893 5.26943 15.8101 5.32712C16.133 5.38521 16.4787 5.35667 16.8187 5.23682C17.2047 5.10066 17.5392 4.86136 17.7946 4.55215C18.0506 4.24233 18.2269 3.86259 18.2956 3.44698C18.3698 2.99754 18.285 2.51079 18.0759 2.06195C17.8645 1.60823 17.5278 1.19567 17.101 0.899508C16.8293 0.711372 16.4071 0.492866 15.8576 0.434163C15.3028 0.374848 14.6159 0.47819 13.8171 0.938032C12.4174 1.74357 11.5939 2.98694 11.0874 4.44208C10.5737 5.91741 10.3827 7.61797 10.25 9.30528C10.1873 10.1035 10.194 11.0077 10.2423 11.9302C10.2906 12.8532 10.3813 13.8008 10.4855 14.6821L10.6308 15.9104L10.0882 14.7987C10.0162 14.6513 9.94143 14.5085 9.86377 14.3719C9.7853 14.2339 9.70377 14.1 9.61877 13.9712C9.35562 13.5717 9.08697 13.2364 8.8438 12.9655C8.44532 12.5217 8.12143 12.2588 7.99811 12.165L7.87031 12.0676L7.93166 11.9188C8.09167 11.5305 8.42982 10.601 8.48363 9.56353C8.51604 8.93696 8.4443 8.27104 8.16403 7.66628C7.80549 6.89152 7.19604 6.34219 6.51952 5.92781C5.82711 5.50363 5.06091 5.21725 4.41416 4.97571C4.27249 4.92272 4.1347 4.87135 4.01526 4.82488C3.88583 4.77474 3.76475 4.72622 3.65693 4.67914C3.25232 4.50201 2.86178 4.20218 2.52118 3.88135C1.87871 3.27617 1.40439 2.586 1.36852 2.53301L1.36648 2.53341C1.36567 2.53341 1.36628 2.5326 1.36587 2.53301L1.36098 2.54422L1.58947 2.84466C1.81654 3.14328 2.19729 3.60454 2.65469 4.00956C2.96166 4.28147 3.30328 4.52831 3.65468 4.6822C3.76475 4.7301 3.88399 4.7782 4.00914 4.82671C4.14449 4.8791 4.27575 4.92822 4.41089 4.97877L4.4111 4.97836L4.41293 4.97959C5.69034 5.45716 7.43982 6.11146 8.16097 7.66811C8.4392 8.2688 8.50973 8.9339 8.47569 9.56313C8.42228 10.5515 8.11001 11.4539 7.94756 11.8636L7.85237 12.1039L7.63753 11.9612C7.311 11.7445 6.64549 11.2943 5.94207 10.7682C5.23886 10.2421 4.50384 9.64323 4.04645 9.13325C3.49325 8.51625 3.13288 8.01707 2.88278 7.59473C2.62942 7.1673 2.48796 6.81936 2.37402 6.50852L2.3734 6.50791C2.37157 6.50791 2.37157 6.5075 2.37116 6.50933C2.4851 6.82079 2.62595 7.16771 2.87462 7.58821C3.12656 8.01422 3.48856 8.51666 4.0438 9.1361C4.47469 9.61673 5.151 10.1756 5.81427 10.6781C6.48528 11.1862 7.1357 11.631 7.51462 11.8839L7.84789 12.1065L7.89151 12.0882L7.98792 12.1618C8.09513 12.2437 8.43329 12.5152 8.84727 12.9765C9.08738 13.2441 9.35379 13.5766 9.61551 13.974C9.90168 14.4088 10.1318 14.8688 10.3169 15.3234C10.5007 15.7749 10.6416 16.2253 10.7494 16.6413L10.7535 16.6568L10.7543 16.6625C10.8153 17.0618 10.8709 17.4035 10.918 17.6813C11.0085 18.2159 11.0743 18.5574 11.081 18.5908L11.0821 18.594L11.0823 18.5934ZM1.72461 10.8811C2.09803 11.2981 2.49061 11.6204 2.88889 11.8666C2.49285 11.6186 2.1017 11.2951 1.72808 10.8778C0.867299 9.91718 0.522214 8.71193 0.451281 7.51667C0.336728 5.5815 0.942717 3.67201 1.22665 2.89888L1.32755 2.62453C1.21422 2.8997 0.894001 3.72807 0.665507 4.80918C0.525068 5.47408 0.419483 6.23192 0.41928 7.01035H0.420095V7.02564H0.41928C0.420095 7.6993 0.499997 8.39008 0.704439 9.0509C0.906842 9.7056 1.23216 10.331 1.72481 10.8811H1.72461ZM13.8154 14.2325L13.8158 14.2441L14.0048 14.0943C14.2363 13.9106 14.6719 13.5806 15.2162 13.2415C15.5753 13.0176 15.9828 12.7889 16.4116 12.5945C17.7883 11.97 18.8264 11.8301 18.8639 11.825L18.8684 11.8238L18.868 11.8226C18.868 11.8218 18.8688 11.8222 18.8684 11.822C18.8676 11.8218 18.8641 11.8218 18.8641 11.8212C18.7877 11.8311 17.7883 11.9665 16.4096 12.592C15.9277 12.8101 15.4785 13.0672 15.0943 13.3124C14.709 13.5582 14.386 13.794 14.1601 13.9677L13.8156 14.2327L13.8154 14.2325ZM13.931 12.8678C13.8305 13.3527 13.812 13.7859 13.8116 14.0331L13.8228 13.7928C13.8411 13.3972 13.9074 12.794 14.121 12.2129C14.272 11.8016 14.4973 11.3996 14.8311 11.0841C15.761 10.2064 17.153 10.237 18.1701 10.2596L18.1892 10.26C18.4043 10.2649 18.6065 10.2696 18.7808 10.2637C19.1095 10.2529 19.4654 10.1524 19.792 10.0242C20.1252 9.89333 20.4261 9.73414 20.6399 9.61021L20.9638 9.42269L20.9634 9.4072L20.9603 9.40679C20.9248 9.43064 20.4022 9.78041 19.7924 10.0211C19.4675 10.1493 19.1128 10.2492 18.7805 10.2598C18.6077 10.2655 18.4031 10.261 18.1864 10.2566L18.1721 10.2564C17.1544 10.2335 15.7604 10.2023 14.8285 11.0829C14.3138 11.569 14.0574 12.2586 13.931 12.8682V12.8678ZM20.2636 13.0446C20.9273 11.5866 20.9672 9.94938 20.965 9.514L20.954 9.79875C20.9283 10.4683 20.8003 11.8945 20.2049 13.1434C19.8246 13.9412 19.2545 14.6685 18.4004 15.0916C17.9234 15.3281 17.4683 15.4508 17.0429 15.4936C17.4693 15.453 17.9253 15.3315 18.4028 15.0949C19.3009 14.6497 19.8847 13.877 20.2638 13.0446H20.2636ZM14.4675 14.2659C14.8215 14.548 15.4296 14.9357 16.2068 15.056C16.7889 15.1458 17.4693 15.0853 18.2149 14.716C18.9709 14.3413 19.4813 13.6858 19.8258 12.963C20.2962 11.9761 20.4587 10.8668 20.5139 10.1559C20.3431 10.2433 20.1497 10.3338 19.9444 10.4145C19.581 10.5572 19.1788 10.6695 18.7938 10.682C18.6108 10.6881 18.4024 10.6834 18.1809 10.6783L18.1617 10.6779C17.2172 10.6571 15.9243 10.6285 15.1181 11.3892C14.8381 11.654 14.646 11.9999 14.5146 12.3572C14.3886 12.7001 14.3185 13.0527 14.28 13.3574C14.4524 13.2343 14.6505 13.0988 14.869 12.9596C15.2712 12.7029 15.7392 12.4351 16.2367 12.2097C17.6911 11.5499 18.7638 11.4121 18.8142 11.4058L18.815 11.4049H18.8178C18.932 11.3921 19.0412 11.4261 19.1256 11.4922C19.2106 11.5586 19.2701 11.6569 19.2844 11.7718C19.2987 11.8862 19.2646 11.9963 19.198 12.0815C19.1315 12.1665 19.0327 12.2266 18.9179 12.2408V12.2402C18.8633 12.2476 17.8927 12.3829 16.5839 12.9767C16.1742 13.1624 15.7832 13.3819 15.4375 13.5973C15.0411 13.8444 14.705 14.0857 14.4675 14.2657V14.2659ZM1.49591 3.39969C1.20138 4.28473 0.774149 5.88419 0.869541 7.49221C0.935379 8.6041 1.25193 9.72008 2.03973 10.5992C3.01017 11.6828 4.10495 12.078 5.06866 12.1624C5.79531 12.2262 6.44879 12.1145 6.92025 11.9871C6.54256 11.7288 6.05459 11.3856 5.56172 11.0124C4.88297 10.4983 4.18688 9.92166 3.73214 9.41474C3.15408 8.76982 2.77658 8.24577 2.51384 7.80121C2.24784 7.35116 2.09823 6.98324 1.97756 6.65365C1.93741 6.5446 1.94556 6.42984 1.99061 6.33241C2.03586 6.23457 2.11862 6.15406 2.22726 6.1139C2.23949 6.10942 2.25151 6.10555 2.26354 6.10229L2.26986 6.10065C2.36545 6.0764 2.4639 6.08761 2.54911 6.12695C2.64694 6.1722 2.72787 6.25475 2.76802 6.3638L2.78106 6.39947C2.88604 6.6828 3.0173 6.99914 3.24396 7.38132C3.48306 7.7847 3.82794 8.26248 4.35851 8.854C4.79389 9.33952 5.50771 9.92024 6.19339 10.4331C6.74965 10.8491 7.29143 11.2229 7.65058 11.4651C7.80834 11.0213 8.01646 10.3075 8.05783 9.54132C8.08861 8.97181 8.02665 8.37438 7.78083 7.8432C7.13183 6.44268 5.47713 5.82344 4.26842 5.37155L4.26821 5.37196L4.26638 5.37074C4.12186 5.31672 3.98102 5.26393 3.85872 5.21664C3.72602 5.16507 3.60108 5.11493 3.48775 5.0654C3.09191 4.89214 2.714 4.62003 2.37789 4.32223C2.03036 4.01445 1.72706 3.67935 1.49591 3.39949V3.39969Z" fill="#48B04F"/>
<path d="M31.7238 5.26148H32.2986C33.722 5.26148 35.0995 5.64916 36.427 6.42474C37.7454 7.43757 38.4068 8.66912 38.4068 10.1106V10.3797C38.4068 11.8303 37.6724 13.103 36.1989 14.1889C38.1149 15.2928 39.0727 16.6705 39.0727 18.3172V18.8647C39.0727 20.5844 38.279 22.0078 36.6961 23.1299C35.2866 23.9921 33.4664 24.4254 31.2265 24.4254H29.5157C27.9921 24.4254 26.9931 23.8097 26.5094 22.5824C26.4228 22.3042 26.3771 22.0488 26.3771 21.8205V21.3233C26.6189 19.7724 26.7375 17.9338 26.7375 15.8036V6.28776C26.7832 5.87276 26.9475 5.66282 27.2302 5.66282H27.3669C27.6953 5.71296 27.8596 5.88173 27.8596 6.15548V15.4432C27.8596 18.1165 27.7273 20.1509 27.458 21.5514C27.458 22.327 27.7864 22.8514 28.4342 23.1297C28.9177 23.2711 29.5017 23.3441 30.1859 23.3441C34.2825 23.3441 36.7366 22.4318 37.5487 20.6162C37.8542 19.8134 38.0049 19.1383 38.0049 18.5863C38.0049 16.7934 36.8371 15.4934 34.5014 14.6813C34.3508 14.5125 34.2733 14.3482 34.2733 14.1886C34.2733 13.9377 34.661 13.6548 35.4366 13.3311C36.6683 12.5054 37.2841 11.5521 37.2841 10.471V10.1106C37.2841 8.6416 36.4767 7.56517 34.8618 6.87622C33.7032 6.52054 32.7452 6.34259 31.9878 6.34259C31.0025 6.34259 30.4003 6.65282 30.1859 7.27777C30.1586 7.63366 30.1449 7.88906 30.1449 8.03969V22.1813C30.0218 22.423 29.8759 22.5416 29.7024 22.5416H29.5153C29.2324 22.5416 29.0683 22.3319 29.0227 21.912V8.30875C29.0227 6.7578 29.4743 5.84994 30.373 5.58088C30.7106 5.36645 31.1623 5.26148 31.7234 5.26148H31.7238ZM47.8817 10.3935H48.4701C50.4455 10.3935 51.9783 11.3104 53.0639 13.1442C53.6295 14.1524 53.9077 15.3566 53.9077 16.7526V17.2636C53.9077 17.8521 53.4925 18.2216 52.6668 18.3721H45.272C44.3917 18.2626 43.9492 17.8382 43.9492 17.0902C44.077 16.2235 44.5011 15.7901 45.2355 15.7901H51.2616C51.4669 15.7901 51.5991 15.9316 51.6629 16.2053V16.3148C51.6629 16.5201 51.517 16.6523 51.2204 16.7161H45.2718C45.0073 16.7161 44.875 16.8393 44.875 17.0902C44.8886 17.3274 45.0117 17.4505 45.2353 17.4505H52.6666C52.8765 17.4505 52.986 17.3503 52.986 17.154V16.7159C52.986 14.2206 52.0463 12.5327 50.1668 11.6479C49.5692 11.4243 49.0172 11.3148 48.5064 11.3148H48.3193C48.2692 11.3148 48.219 11.3012 48.1734 11.2739C48.1277 11.3012 48.082 11.3148 48.0274 11.3148H47.9224C45.7282 11.3148 44.1133 12.5282 43.0686 14.9506C42.7767 15.9724 42.6261 16.8847 42.6261 17.6784C42.6261 20.5979 43.949 22.5687 46.5949 23.5814C47.4251 23.805 48.1094 23.9189 48.6568 23.9189C49.9023 23.9189 51.2616 23.5722 52.7306 22.8879H52.7718C53.0637 22.9609 53.2143 23.1068 53.2143 23.3305V23.3714C53.2143 23.8321 52.1103 24.2883 49.8978 24.7308C49.6332 24.7764 49.3274 24.7993 48.9899 24.7993H48.3605C46.7227 24.7993 45.1762 24.1607 43.7256 22.8879C42.4072 21.5239 41.7458 19.9228 41.7458 18.0753V17.4094C41.7458 15.3065 42.4529 13.5182 43.8715 12.0492C45.0576 10.9453 46.3941 10.3933 47.8813 10.3933L47.8817 10.3935ZM61.6582 10.608H62.233C63.7566 10.608 65.0842 11.2146 66.2154 12.4371C66.8312 13.2946 67.1369 14.1615 67.1369 15.0419V15.7261C67.1369 18.8419 67.1734 21.2868 67.2464 23.0614C67.2464 23.5541 66.8769 23.9144 66.138 24.1425C66.0467 24.1607 65.9419 24.1698 65.8141 24.1698H65.6408C64.8653 24.1698 64.4366 23.709 64.3453 22.783C64.213 18.7913 64.0944 16.7934 63.9986 16.7934C63.8298 16.5333 63.4558 16.4057 62.8763 16.4057C60.6046 16.4057 58.9487 17.1448 57.9038 18.6228C57.6209 19.1884 57.475 19.7359 57.475 20.2695V20.6711C57.475 22.2905 58.5013 23.2438 60.5495 23.5312C60.7091 23.5312 60.9144 23.5449 61.1653 23.5677C61.7538 23.5677 62.4929 23.3305 63.3824 22.847C63.6971 22.9108 63.8522 23.0522 63.8522 23.2758C63.8249 23.764 63.0357 24.1472 61.4847 24.4254H60.8689C59.0716 24.4254 57.7624 23.7092 56.9413 22.2722C56.6996 21.711 56.581 21.2002 56.581 20.7349V20.201C56.581 18.4312 57.6303 17.058 59.7332 16.0863C60.7414 15.7031 61.7907 15.5115 62.8763 15.5115C63.9529 15.5115 64.6372 15.9175 64.9199 16.7249C64.9928 16.994 65.1115 19.1199 65.2802 23.1024C65.4081 23.2163 65.513 23.2756 65.6041 23.2756H65.8551C66.2107 23.23 66.3887 23.1113 66.3887 22.9152C66.2929 22.3724 66.2427 19.7494 66.2427 15.0417C66.2427 13.8054 65.6086 12.8018 64.3451 12.0354C63.533 11.6522 62.7621 11.4606 62.0186 11.4606C60.6227 11.4606 59.286 11.821 58.0088 12.5462L57.8629 12.569C57.5799 12.5005 57.434 12.3364 57.434 12.0763C57.434 11.7205 58.2734 11.3008 59.9476 10.822C60.6182 10.676 61.1884 10.6075 61.6582 10.6075V10.608ZM70.2937 10.4573H70.5218C70.5764 10.4755 70.6722 10.5668 70.8136 10.7264C70.841 11.4655 70.8546 11.9398 70.8546 12.145C70.8546 13.4542 70.8683 15.9952 70.8956 19.7724C70.8956 20.9766 71.3701 22.0441 72.3234 22.9703C73.0486 23.4949 73.8334 23.7548 74.6909 23.7548H74.919C74.9463 23.7548 74.9555 23.7685 74.9555 23.796L75.024 23.7548H75.293C76.6295 23.7548 77.6287 22.879 78.2993 21.1228C78.5229 20.2606 78.6324 19.5353 78.6324 18.9469V12.4098C78.6324 11.4198 79.0064 10.7859 79.7547 10.4983L80.1287 10.4573H80.4754C81.3421 10.4573 81.8395 11.0458 81.9762 12.2227C82.0264 18.5955 82.0537 22.5779 82.0537 24.17C81.9122 24.3388 81.7754 24.4254 81.6387 24.4254H81.561C81.2555 24.4254 81.1048 24.1015 81.1048 23.4493V23.1162C81.1048 22.1994 81.082 18.5406 81.0364 12.145C81.0364 11.6432 80.7991 11.3968 80.3156 11.3968V11.3558C79.8183 11.3558 79.5676 11.6705 79.5676 12.3046V18.8645C79.5676 21.0908 78.8423 22.806 77.3917 24.0102C76.6617 24.4664 75.9318 24.6945 75.2111 24.6945H74.7321C72.547 24.6945 71.0415 23.5769 70.2113 21.3506C70.0425 20.6845 69.9604 20.1554 69.9604 19.7722C69.9331 15.5937 69.9194 12.601 69.9194 10.7947C69.9194 10.6259 70.0426 10.5117 70.2935 10.4571L70.2937 10.4573ZM85.0738 5.47591H85.3292C85.603 5.47591 85.7671 5.67668 85.8082 6.07802V19.038C85.8082 19.1383 85.7946 19.2661 85.7718 19.4257C85.8857 21.5104 86.5335 22.806 87.7059 23.3168C88.1621 23.5402 88.6776 23.6499 89.2568 23.6499C90.4976 23.6499 91.1135 23.4081 91.1135 22.9291C91.1135 22.5824 90.9857 22.4091 90.7259 22.4091C90.1555 22.432 89.7269 22.4456 89.4303 22.4456C88.7096 22.4456 88.1348 21.9894 87.7059 21.0724C87.5006 20.5614 87.4004 19.9456 87.4004 19.2112V10.781C87.4004 10.512 87.6056 10.3568 88.0161 10.3112H91.7705C92.1718 10.3568 92.3726 10.512 92.3726 10.781V11.0456C92.2448 11.2781 92.0852 11.3968 91.8891 11.3968H88.4815V19.2112C88.4815 20.6482 88.8282 21.3643 89.5261 21.3643C89.7497 21.3643 90.1466 21.3506 90.7259 21.3233C91.6017 21.3233 92.0899 21.8708 92.1993 22.9701C92.1993 23.9326 91.5196 24.4937 90.1647 24.6533C90.0051 24.6806 89.7723 24.6943 89.4713 24.6943H89.0015C87.0261 24.6943 85.6713 23.5675 84.9416 21.3231C84.8001 20.6937 84.7271 20.1187 84.7271 19.5987V5.94064C84.7271 5.75352 84.8413 5.59841 85.0738 5.4753V5.47591ZM95.4201 10.1928H95.566C95.8169 10.1928 96.0678 10.6308 96.3141 11.502C99.0055 18.2534 100.379 21.7294 100.433 21.9256C100.474 21.9256 101.56 19.0883 103.681 13.4133C104.338 11.6296 104.762 10.6944 104.95 10.6078C105.232 10.3295 105.561 10.1925 105.926 10.1925H106.177C106.847 10.1925 107.331 10.6167 107.636 11.4608V11.876C107.636 12.145 107.075 13.6642 105.953 16.4332C104.065 21.3508 102.897 24.2795 102.45 25.2147C101.98 26.1407 101.204 27.1763 100.123 28.3168C98.8047 29.3842 97.6963 29.9454 96.7976 30H96.6516C96.4553 29.8905 96.355 29.7536 96.355 29.5848V29.5163C96.355 29.2244 96.6789 29.0373 97.3312 28.9552C98.9598 28.3302 100.315 27.0712 101.396 25.1735C101.893 24.2931 102.842 21.9756 104.242 18.2259C105.907 14.0884 106.738 11.9261 106.738 11.73C106.623 11.3285 106.437 11.1279 106.176 11.1279H105.953C105.588 11.1279 105.301 11.5521 105.095 12.3962C102.431 19.3849 101.003 23.1073 100.807 23.5679C100.716 23.6317 100.602 23.6819 100.456 23.7183C100.164 23.7183 99.9133 23.3351 99.7081 22.5687C97.0988 16.0272 95.5432 12.0766 95.0458 10.7127V10.5668C95.1005 10.3159 95.2238 10.1928 95.4199 10.1928H95.4201ZM115.656 5.26148H116.231C117.654 5.26148 119.032 5.64916 120.359 6.42474C121.678 7.43757 122.339 8.66912 122.339 10.1106V10.3797C122.339 11.8303 121.605 13.103 120.131 14.1889C122.047 15.2928 123.005 16.6705 123.005 18.3172V18.8647C123.005 20.5844 122.212 22.0078 120.629 23.1299C119.219 23.9921 117.399 24.4254 115.159 24.4254H113.448C111.925 24.4254 110.926 23.8097 110.442 22.5824C110.355 22.3042 110.31 22.0488 110.31 21.8205V21.3233C110.551 19.7724 110.67 17.9338 110.67 15.8036V6.28776C110.716 5.87276 110.88 5.66282 111.163 5.66282H111.299C111.628 5.71296 111.792 5.88173 111.792 6.15548V15.4432C111.792 18.1165 111.66 20.1509 111.391 21.5514C111.391 22.327 111.719 22.8514 112.367 23.1297C112.85 23.2711 113.434 23.3441 114.118 23.3441C118.215 23.3441 120.669 22.4318 121.481 20.6162C121.787 19.8134 121.937 19.1383 121.937 18.5863C121.937 16.7934 120.77 15.4934 118.434 14.6813C118.283 14.5125 118.206 14.3482 118.206 14.1886C118.206 13.9377 118.594 13.6548 119.369 13.3311C120.601 12.5054 121.217 11.5521 121.217 10.471V10.1106C121.217 8.6416 120.409 7.56517 118.794 6.87622C117.636 6.52054 116.678 6.34259 115.921 6.34259C114.935 6.34259 114.333 6.65282 114.119 7.27777C114.091 7.63366 114.078 7.88906 114.078 8.03969V22.1813C113.955 22.423 113.809 22.5416 113.635 22.5416H113.448C113.165 22.5416 113.001 22.3319 112.955 21.912V8.30875C112.955 6.7578 113.407 5.84994 114.306 5.58088C114.643 5.36645 115.095 5.26148 115.656 5.26148ZM132.548 10.1518H132.963C135.117 10.1518 136.846 11.1051 138.146 13.0119C138.949 14.4718 139.35 15.8495 139.35 17.1403V17.6238C139.35 19.3435 138.802 20.9448 137.708 22.432C136.417 23.9419 134.706 24.6947 132.589 24.6947H131.878C130.249 24.6947 128.721 23.933 127.293 22.4091C126.682 21.5424 126.308 20.8672 126.171 20.3745V20.1464C126.28 19.9456 126.413 19.8409 126.572 19.8409H126.654C126.887 19.8409 127.111 20.1419 127.334 20.7487C127.521 21.2322 128.037 21.8572 128.872 22.6191C129.925 23.4036 131.002 23.796 132.106 23.796C134.957 23.796 136.859 22.6921 137.813 20.4842C138.241 19.2891 138.456 18.2626 138.456 17.4096C138.456 15.8495 137.95 14.3576 136.946 12.93C135.874 11.7029 134.537 11.087 132.936 11.087H132.667C132.64 11.087 132.626 11.0733 132.626 11.046L132.548 11.087H132.521C130.633 11.087 129.091 11.8122 127.895 13.2675C127.015 14.5586 126.573 15.9408 126.573 17.4096C126.573 17.9797 126.842 18.2626 127.375 18.2626C127.822 18.2033 128.046 17.9889 128.046 17.624C128.069 16.8484 128.27 15.8859 128.644 14.7363C129.456 12.8568 130.756 11.9172 132.549 11.9172C134.519 11.9172 135.856 12.9938 136.572 15.1515C136.818 16.0137 136.946 16.7755 136.946 17.4369C136.855 17.7106 136.695 17.8521 136.463 17.8521C136.134 17.8521 135.97 17.5099 135.97 16.8348C135.838 15.7581 135.559 14.8823 135.14 14.2164C134.519 13.304 133.666 12.8523 132.59 12.8523H132.521C130.902 12.8523 129.807 13.856 129.246 15.8586C129.123 16.5201 129.022 17.2455 128.954 18.0392C128.621 18.8193 128.083 19.2116 127.334 19.2116C126.559 19.2116 126.034 18.8193 125.761 18.0392C125.706 17.9298 125.679 17.7702 125.679 17.5557V17.1817C125.679 15.6032 126.176 14.0979 127.175 12.6656C128.575 10.9914 130.364 10.152 132.549 10.152L132.548 10.1518ZM142.411 10.2203H142.571C142.739 10.2203 142.958 10.4484 143.228 10.9137C145.568 14.262 146.836 16.1095 147.023 16.4471C147.119 16.7665 147.169 17.04 147.169 17.2636C147.169 17.8613 146.767 18.655 145.965 19.654C144.746 21.4012 144.012 22.4868 143.761 22.9157V23.1437C143.866 23.4996 144.049 23.6776 144.309 23.6776C144.71 23.6776 145.057 23.2671 145.349 22.4458C146.635 19.9369 148.56 16.0639 151.124 10.836C151.535 10.4255 151.895 10.2203 152.205 10.2203H152.515C153.209 10.2203 153.688 10.64 153.943 11.4885C153.971 11.63 153.984 11.7486 153.984 11.8352C153.984 12.2276 153.555 12.9483 152.702 14.0021C151.63 15.5531 151.028 16.4426 150.882 16.6754C150.786 16.8715 150.736 17.0951 150.736 17.3413C150.736 17.583 151.275 18.4452 152.356 19.9369C154.162 22.6329 155.065 24.0015 155.065 24.0379V24.2251C155.065 24.4303 154.924 24.5581 154.641 24.6127H154.559C154.327 24.6127 153.952 24.1611 153.437 23.2624C151.065 19.8227 149.883 18.0437 149.883 17.9159C149.801 17.7106 149.76 17.4917 149.76 17.2636C149.76 16.5839 150.28 15.6259 151.311 14.3896C151.311 14.3531 151.882 13.5274 153.022 11.9172V11.794C152.958 11.3607 152.753 11.1418 152.393 11.1418C152.064 11.1418 151.745 11.5706 151.43 12.4237C148.574 18.199 146.649 22.04 145.659 23.9558C145.285 24.3938 144.911 24.6127 144.537 24.6127H144.227C143.57 24.6127 143.091 24.1839 142.799 23.3309V22.9841C142.799 22.5828 143.201 21.8574 144.004 20.8172C145.472 18.7781 146.207 17.6421 146.207 17.4096V17.2225C146.207 16.8849 145.705 16.0547 144.697 14.7363C142.913 12.1452 142.024 10.8316 142.024 10.7949V10.6078C142.078 10.3477 142.206 10.2201 142.411 10.2201L142.411 10.2203ZM163.86 5.12939C165.74 5.12939 167.25 5.81365 168.39 7.18666C168.933 7.98037 169.207 8.86989 169.207 9.8599C169.207 11.8898 168.057 13.2949 165.758 14.0657V14.1479C167.131 14.5038 168.18 15.1151 168.91 15.9771C169.535 16.7526 169.846 17.5737 169.846 18.4359V19.0107C169.846 20.8309 168.942 22.3409 167.136 23.5451C165.877 24.2202 164.622 24.5577 163.363 24.5577H162.601C161.064 24.5577 159.467 24.1015 157.821 23.1847C157.821 23.1391 157.793 23.0842 157.738 23.0204V22.7832C157.738 22.5322 157.912 22.3818 158.258 22.327C159.892 23.1664 161.47 23.5816 163.003 23.5816C165.215 23.5816 166.903 22.8425 168.071 21.3645C168.605 20.5435 168.869 19.6676 168.869 18.7324C168.869 16.6933 167.414 15.4069 164.499 14.8823C163.769 14.75 163.081 14.6815 162.428 14.6815C162.351 14.6815 162.31 14.6679 162.31 14.6403L162.109 14.6815H160.891C160.599 14.6815 160.439 14.4899 160.412 14.1067C160.412 13.9015 160.558 13.7555 160.854 13.6687C161.511 13.6414 161.931 13.6277 162.109 13.6277C162.136 13.6277 162.177 13.6414 162.227 13.6687C162.273 13.6414 162.342 13.6277 162.428 13.6277C164.317 13.6277 165.9 13.1532 167.173 12.209C167.852 11.5886 168.19 10.804 168.19 9.85969C168.19 8.13997 167.314 6.99485 165.558 6.42474C165.083 6.25597 164.435 6.14182 163.605 6.08719C162.173 6.08719 160.836 6.44308 159.595 7.14548V7.34626C159.595 7.56069 159.668 7.72497 159.81 7.83892H159.928C160.011 7.83892 160.398 7.68849 161.092 7.38723C161.799 7.1728 162.447 7.06334 163.044 7.06334H163.364C165.129 7.06334 166.237 7.88906 166.694 9.53581C166.721 9.71375 166.735 9.887 166.735 10.0605V10.2977C166.735 10.5486 166.557 10.6993 166.196 10.7539C165.85 10.7539 165.676 10.3615 165.676 9.57698C165.498 9.05232 165.216 8.67381 164.823 8.44103C164.367 8.19929 163.884 8.08066 163.364 8.08066H163.003C162.246 8.08066 161.343 8.3224 160.293 8.8014C160.184 8.82872 160.079 8.84258 159.97 8.84258H159.892C159.267 8.84258 158.847 8.46386 158.633 7.70663C158.606 7.57434 158.592 7.43757 158.592 7.30529V7.18666C158.592 6.18768 160.066 5.50342 163.003 5.12939H163.861H163.86ZM178.787 5.15222H179.466C181.884 5.15222 183.567 6.19686 184.521 8.28164C184.708 8.76981 184.799 9.2533 184.799 9.72313V9.88272C184.799 11.7576 183.184 13.0715 179.95 13.8287C177.865 14.3623 176.351 14.9371 175.406 15.5531C174.147 16.5292 173.522 17.6424 173.522 18.8786V19.3621C173.522 20.4568 174.042 21.4377 175.083 22.2999C176.118 23.0481 177.286 23.4222 178.586 23.4222H179.307C181.186 23.4222 182.66 22.7151 183.718 21.2964C184.224 20.5392 184.48 19.6405 184.48 18.6004C184.48 17.5466 183.946 16.5429 182.879 15.5896C182.076 15.0649 181.579 14.8003 181.392 14.7912H181.351C181.031 14.8505 180.872 15.0101 180.872 15.2702C180.872 15.4481 181.232 15.7948 181.953 16.3148C182.678 16.9807 183.039 17.8886 183.039 19.0382V19.0792C183.039 20.6758 182.167 21.8162 180.429 22.5005C179.987 22.6327 179.517 22.7012 179.029 22.7012C178.682 22.6466 178.504 22.5005 178.504 22.2587V22.2222C178.504 21.8482 178.855 21.6611 179.549 21.6611C180.233 21.6611 180.903 21.2962 181.551 20.5755C181.875 20.1056 182.035 19.6175 182.035 19.1203V18.9972C182.035 17.866 181.528 17.0266 180.511 16.4746C180.082 16.0822 179.868 15.6672 179.868 15.2292C179.868 14.5906 180.255 14.1208 181.031 13.8287C181.172 13.8014 181.296 13.7877 181.391 13.7877C181.98 13.7877 182.851 14.2804 184.001 15.2704C184.963 16.315 185.442 17.3961 185.442 18.5184V19.0384C185.442 20.8494 184.521 22.3639 182.678 23.582C181.528 24.1431 180.392 24.4258 179.266 24.4258H178.586C176.643 24.4258 175.023 23.7461 173.723 22.3822C172.92 21.4197 172.519 20.4116 172.519 19.3623V18.8788C172.519 16.7848 173.801 15.1289 176.369 13.9063C177.213 13.5871 178.878 13.0806 181.35 12.3827C182.983 11.7533 183.8 10.9457 183.8 9.96507V9.64567C183.8 8.61918 183.253 7.69786 182.153 6.87663C181.355 6.39763 180.47 6.15589 179.507 6.15589H178.828C176.734 6.15589 175.269 7.03623 174.444 8.80181C174.256 9.32647 174.161 9.80079 174.161 10.2205V10.4577C174.161 11.5297 174.549 12.3691 175.324 12.985L175.365 13.1858V13.2679C175.301 13.5598 175.155 13.7058 174.923 13.7058H174.804C174.43 13.7058 173.974 13.1583 173.44 12.0635C173.253 11.5299 173.162 10.9824 173.162 10.4212V10.2205C173.162 8.5509 173.937 7.1732 175.484 6.07843C176.528 5.46266 177.628 5.15243 178.786 5.15243L178.787 5.15222Z" fill="#5E3A1D"/>
</svg>
